<?xml version="1.0" encoding="UTF-8" standalone="no"?>
<!-- Generator: Adobe Illustrator 27.5.0, SVG Export Plug-In . SVG Version: 6.00 Build 0)  -->

<svg
   version="1.1"
   id="Ñëîé_1"
   x="0px"
   y="0px"
   viewBox="0 0 421 339"
   xml:space="preserve"
   sodipodi:docname="4102849_941.svg"
   inkscape:version="1.4 (e7c3feb1, 2024-10-09)"
   width="421"
   height="339"
   xmlns:inkscape="http://www.inkscape.org/namespaces/inkscape"
   xmlns:sodipodi="http://sodipodi.sourceforge.net/DTD/sodipodi-0.dtd"
   xmlns:xlink="http://www.w3.org/1999/xlink"
   xmlns="http://www.w3.org/2000/svg"
   xmlns:svg="http://www.w3.org/2000/svg"><defs
   id="defs420" /><sodipodi:namedview
   id="namedview420"
   pagecolor="#ffffff"
   bordercolor="#000000"
   borderopacity="0.25"
   inkscape:showpageshadow="2"
   inkscape:pageopacity="0.0"
   inkscape:pagecheckerboard="0"
   inkscape:deskcolor="#d1d1d1"
   inkscape:zoom="1.1723172"
   inkscape:cx="296.84799"
   inkscape:cy="159.93965"
   inkscape:window-width="1440"
   inkscape:window-height="766"
   inkscape:window-x="0"
   inkscape:window-y="25"
   inkscape:window-maximized="0"
   inkscape:current-layer="Ñëîé_1" />
<radialGradient
   id="SVGID_1_"
   cx="76.833603"
   cy="-1946.8596"
   r="532.65118"
   gradientTransform="matrix(1,0,0,0.9992,0,1774.9125)"
   gradientUnits="userSpaceOnUse">
	<stop
   offset="0"
   style="stop-color:#2B237C"
   id="stop1" />
	<stop
   offset="0.31"
   style="stop-color:#251C72"
   id="stop2" />
	<stop
   offset="1"
   style="stop-color:#0F054C"
   id="stop3" />
</radialGradient>

<path
   style="fill:#42e8e0"
   d="m 306.13308,264.45732 -0.162,-0.279 87.544,-50.52 c 1.009,-0.582 1.565,-1.347 1.565,-2.152 0,-0.805 -0.556,-1.569 -1.565,-2.151 l -15.406,-8.908 0.162,-0.279 15.406,8.908 c 1.112,0.643 1.725,1.506 1.725,2.431 0,0.926 -0.612,1.789 -1.725,2.432 z"
   id="path3" />
<path
   style="fill:#42e8e0"
   d="m 191.97508,276.86332 c -0.773,0 -1.587,-0.188 -2.221,-0.553 l -101.946996,-58.859 c -0.642,-0.371 -1.01,-0.875 -1.01,-1.382 0,-0.432 0.263,-0.82 0.739,-1.096 l 60.835996,-35.124 c 1.014,-0.585 2.781,-0.514 3.943,0.156 l 101.949,58.859 c 0.642,0.371 1.009,0.875 1.009,1.382 0,0.432 -0.263,0.82 -0.738,1.096 l -60.837,35.124 c -0.461,0.266 -1.078,0.397 -1.723,0.397 z m -103.994996,-59.713 101.947996,58.859 c 1.066,0.616 2.68,0.686 3.597,0.156 l 60.837,-35.124 c 0.365,-0.21 0.565,-0.492 0.565,-0.795 0,-0.38 -0.305,-0.774 -0.836,-1.081 l -101.949,-58.86 c -1.065,-0.615 -2.679,-0.685 -3.596,-0.156 l -60.836996,35.125 c -0.365,0.21 -0.565,0.492 -0.565,0.795 -0.001,0.38 0.304,0.775 0.836,1.081 z"
   id="path4" />
<g
   id="g15"
   transform="translate(-185.52692,1.3233207)">
	
		<linearGradient
   id="SVGID_00000011005001569696049010000008572796383233605259_"
   gradientUnits="userSpaceOnUse"
   x1="437.47079"
   y1="220.5802"
   x2="269.34"
   y2="220.5802"
   gradientTransform="translate(185.52692,-1.3233207)">
		<stop
   offset="0"
   style="stop-color:#5761D7"
   id="stop4" />
		<stop
   offset="0.1779"
   style="stop-color:#5C66D9"
   id="stop5" />
		<stop
   offset="0.3876"
   style="stop-color:#6A73DF"
   id="stop6" />
		<stop
   offset="0.6134"
   style="stop-color:#8289E8"
   id="stop7" />
		<stop
   offset="0.849"
   style="stop-color:#A3A7F5"
   id="stop8" />
		<stop
   offset="1"
   style="stop-color:#BCBEFF"
   id="stop9" />
	</linearGradient>
	<path
   style="fill:url(#SVGID_00000011005001569696049010000008572796383233605259_)"
   d="m 440.628,228.747 -5.614,-0.808 -97.257,-56.152 c -1.116,-0.644 -2.804,-0.714 -3.77,-0.156 l -57.924,33.442 -3.565,-0.513 v 4.732 l 0.011,0.002 c 0.006,0.424 0.308,0.869 0.912,1.217 l 101.949,58.86 c 1.116,0.644 2.804,0.714 3.77,0.156 l 60.836,-35.124 c 0.445,-0.257 0.648,-0.602 0.642,-0.962 l 0.011,0.002 v -4.696 z"
   id="path9" />
	
		<linearGradient
   id="SVGID_00000111193006770340575460000003944606378245310884_"
   gradientUnits="userSpaceOnUse"
   x1="325.00821"
   y1="216.6664"
   x2="493.13889"
   y2="216.6664"
   gradientTransform="matrix(-1,0,0,1,894.66492,-1.3233207)">
		<stop
   offset="0"
   style="stop-color:#C0BFF6"
   id="stop10" />
		<stop
   offset="0.2938"
   style="stop-color:#C5C4F7"
   id="stop11" />
		<stop
   offset="0.6399"
   style="stop-color:#D3D2F9"
   id="stop12" />
		<stop
   offset="1"
   style="stop-color:#E9E9FD"
   id="stop13" />
	</linearGradient>
	<path
   style="fill:url(#SVGID_00000111193006770340575460000003944606378245310884_)"
   d="m 273.42,205.809 101.948,58.86 c 1.116,0.644 2.804,0.714 3.77,0.156 l 60.836,-35.124 c 0.966,-0.558 0.845,-1.533 -0.271,-2.177 l -101.948,-58.86 c -1.116,-0.644 -2.804,-0.714 -3.77,-0.156 l -60.836,35.124 c -0.966,0.558 -0.845,1.532 0.271,2.177 z"
   id="path13" />
	<path
   style="opacity:0.3;fill:#24126a"
   d="m 282.248,206.962 91.123,52.61 c 0.997,0.576 2.506,0.638 3.37,0.14 l 54.377,-31.394 c 0.864,-0.499 0.755,-1.37 -0.242,-1.946 l -91.123,-52.61 c -0.997,-0.576 -2.506,-0.638 -3.37,-0.14 l -54.377,31.394 c -0.864,0.499 -0.755,1.37 0.242,1.946 z"
   id="path14" />
	<path
   style="fill:#ffffff"
   d="m 439.975,229.189 -60.836,35.124 c -0.966,0.558 -2.654,0.488 -3.77,-0.156 L 273.42,205.297 c -0.49,-0.283 -0.775,-0.629 -0.874,-0.976 -0.154,0.497 0.14,1.063 0.874,1.487 l 101.949,58.86 c 1.116,0.644 2.804,0.714 3.77,0.156 L 439.975,229.7 c 0.542,-0.313 0.73,-0.758 0.604,-1.201 -0.08,0.259 -0.274,0.5 -0.604,0.69 z"
   id="path15" />
</g>
<path
   style="fill:#42e8e0"
   d="m 188.39908,177.68532 -0.162,-0.279 32.447,-18.733 -85.074,-49.117 c -2.401,-1.385 -5.385,-1.387 -7.788,0 l -27.656,15.967 -0.161,-0.279 27.655,-15.967 c 2.503,-1.445 5.611,-1.444 8.112,0 l 85.557,49.396 -0.241,0.14 z"
   id="path16" />
<g
   id="g35"
   transform="translate(-185.52692,1.3233207)">
	<g
   id="g18">
		<path
   style="fill:#42e8e0"
   d="m 557.378,202.763 -16.466,-9.219 c -3.687,-2.063 -6.927,-6.607 -8.064,-11.308 l -14.261,-58.917 c -0.905,-3.741 -2.938,-6.923 -5.244,-9.095 l -1.988,6.111 c -0.493,1.518 -1.423,2.576 -2.688,3.062 -1.528,0.585 -3.455,0.283 -5.427,-0.855 l -2.325,-1.342 -2.055,6.317 c -0.493,1.518 -1.423,2.576 -2.688,3.061 -1.532,0.586 -3.457,0.284 -5.429,-0.855 l -2.973,-1.716 c -3.435,-1.983 -6.566,-6.277 -7.793,-10.683 -1.114,-4.003 -3.404,-7.223 -5.869,-9.25 l -1.367,2.897 c -0.573,1.216 -1.489,2.051 -2.647,2.413 -1.482,0.464 -3.32,0.129 -5.178,-0.942 l -1.552,-0.896 -3.118,6.606 c -0.573,1.216 -1.489,2.051 -2.648,2.413 -1.479,0.463 -3.319,0.129 -5.177,-0.942 l -3.403,-1.965 c -3.725,-2.151 -6.94,-6.775 -8,-11.507 l -14.25,-63.644 c -0.887,-3.96 -3.065,-7.336 -5.523,-9.567 L 400.7,89.076 c -0.521,1.424 -1.447,2.413 -2.68,2.86 -1.517,0.549 -3.418,0.236 -5.357,-0.881 l -2.108,-1.218 -2.35,6.421 c -0.522,1.424 -1.448,2.413 -2.681,2.86 -1.517,0.551 -3.418,0.237 -5.357,-0.882 l -11.945,-6.897 0.243,-0.139 12.575,-7.228 0.081,0.046 9.262,5.348 20.661,-56.458 c 0.795,-2.174 2.412,-3.297 4.532,-3.154 1.705,0.111 3.678,1.065 5.522,2.642 l 2.44,-6.669 c 0.751,-2.053 2.229,-3.166 4.183,-3.166 0.115,0 0.232,0.004 0.349,0.012 4.16,0.272 9.909,5.548 11.507,12.683 L 453.826,98.9 c 1.025,4.576 4.252,9.222 7.848,11.298 l 1.548,0.894 1.447,-3.067 c 0.879,-1.863 2.448,-2.799 4.454,-2.628 1.493,0.127 3.209,0.891 4.864,2.177 l 3.177,-6.731 c 0.879,-1.863 2.448,-2.801 4.454,-2.628 3.875,0.329 9.246,4.95 11.164,11.84 1.205,4.331 4.277,8.546 7.645,10.491 l 0.303,0.175 2.117,-6.507 c 0.738,-2.268 2.326,-3.48 4.46,-3.387 1.833,0.07 3.948,1.075 5.895,2.787 l 2.141,-6.582 c 0.738,-2.268 2.326,-3.477 4.46,-3.387 4.187,0.161 9.844,5.189 11.594,12.417 l 14.261,58.917 c 1.117,4.619 4.295,9.081 7.908,11.103 l 16.466,9.219 -0.158,0.281 -16.466,-9.219 c -3.686,-2.063 -6.927,-6.608 -8.065,-11.308 l -14.261,-58.917 c -1.69,-6.981 -7.307,-12.017 -11.292,-12.17 -1.993,-0.074 -3.441,1.017 -4.141,3.165 l -2.186,6.718 c 2.39,2.201 4.488,5.473 5.438,9.393 l 14.261,58.917 c 1.117,4.618 4.295,9.08 7.908,11.103 l 16.466,9.219 z M 474.247,107.78 c 2.541,2.067 4.901,5.36 6.041,9.456 1.206,4.331 4.277,8.547 7.645,10.491 l 2.973,1.716 c 1.885,1.089 3.718,1.385 5.15,0.833 1.171,-0.449 2.034,-1.438 2.497,-2.86 l 2.076,-6.383 -0.363,-0.21 c -3.435,-1.983 -6.566,-6.277 -7.793,-10.683 -1.881,-6.757 -7.113,-11.285 -10.881,-11.605 -1.876,-0.161 -3.305,0.686 -4.136,2.444 z m 26.769,13.105 2.385,1.377 c 1.884,1.088 3.715,1.385 5.149,0.833 1.171,-0.449 2.034,-1.438 2.497,-2.86 l 2.034,-6.252 c -1.927,-1.736 -4.018,-2.766 -5.787,-2.834 -2.03,-0.077 -3.442,1.018 -4.141,3.165 z M 421.359,32.623 c 2.549,2.276 4.811,5.742 5.723,9.814 l 14.25,63.644 c 1.025,4.576 4.252,9.222 7.848,11.298 l 3.403,1.965 c 1.776,1.025 3.522,1.351 4.919,0.914 1.07,-0.335 1.918,-1.11 2.453,-2.243 l 3.129,-6.631 -1.571,-0.907 c -3.725,-2.152 -6.94,-6.776 -8,-11.507 L 439.264,35.326 c -1.566,-6.997 -7.167,-12.167 -11.213,-12.432 -2.004,-0.134 -3.455,0.887 -4.208,2.944 z m 42.144,78.63 1.575,0.91 c 1.775,1.026 3.522,1.351 4.919,0.914 1.07,-0.335 1.918,-1.111 2.453,-2.243 l 1.4,-2.967 c -1.618,-1.27 -3.296,-2.024 -4.754,-2.148 -1.878,-0.159 -3.305,0.686 -4.136,2.444 z M 368.869,91.34 380.33,97.957 c 1.854,1.072 3.66,1.374 5.085,0.858 1.14,-0.414 2,-1.336 2.487,-2.668 l 2.369,-6.473 -9.23,-5.33 z m 21.798,-1.81 2.158,1.246 c 1.855,1.072 3.663,1.376 5.085,0.857 1.141,-0.414 2,-1.336 2.487,-2.668 L 420.984,32.71 c -1.811,-1.573 -3.753,-2.524 -5.429,-2.634 -2.008,-0.131 -3.455,0.887 -4.208,2.944 z"
   id="path17" />
		
			<rect
   x="412.142"
   y="26.677999"
   transform="matrix(0.8674,-0.4975,0.4975,0.8674,42.2434,212.2316)"
   style="fill:#42e8e0"
   width="14.532"
   height="0.322"
   id="rect17" />
		<polygon
   style="fill:#42e8e0"
   points="478.924,98.795 479.084,99.074 466.337,106.422 466.176,106.142 "
   id="polygon17" />
		
			<rect
   x="503.66299"
   y="107.768"
   transform="matrix(0.8676,-0.4973,0.4973,0.8676,14.0384,268.5779)"
   style="fill:#42e8e0"
   width="15.317"
   height="0.322"
   id="rect18" />
		<path
   style="fill:#42e8e0"
   d="m 557.378,202.763 -16.466,-9.219 c -3.687,-2.063 -6.927,-6.607 -8.064,-11.308 l -14.261,-58.917 c -0.905,-3.741 -2.938,-6.923 -5.244,-9.095 l -1.988,6.111 c -0.493,1.518 -1.423,2.576 -2.688,3.062 -1.528,0.585 -3.455,0.283 -5.427,-0.855 l -2.325,-1.342 -2.055,6.317 c -0.493,1.518 -1.423,2.576 -2.688,3.061 -1.532,0.586 -3.457,0.284 -5.429,-0.855 l -2.973,-1.716 c -3.435,-1.983 -6.566,-6.277 -7.793,-10.683 -1.114,-4.003 -3.404,-7.223 -5.869,-9.25 l -1.367,2.897 c -0.573,1.216 -1.489,2.051 -2.647,2.413 -1.482,0.464 -3.32,0.129 -5.178,-0.942 l -1.552,-0.896 -3.118,6.606 c -0.573,1.216 -1.489,2.051 -2.648,2.413 -1.479,0.463 -3.319,0.129 -5.177,-0.942 l -3.403,-1.965 c -3.725,-2.151 -6.94,-6.775 -8,-11.507 l -14.25,-63.644 c -0.887,-3.96 -3.065,-7.336 -5.523,-9.567 L 400.7,89.076 c -0.521,1.424 -1.447,2.413 -2.68,2.86 -1.517,0.549 -3.418,0.236 -5.357,-0.881 l -2.108,-1.218 -2.35,6.421 c -0.522,1.424 -1.448,2.413 -2.681,2.86 -1.517,0.551 -3.418,0.237 -5.357,-0.882 l -11.945,-6.897 0.243,-0.139 12.575,-7.228 0.081,0.046 9.262,5.348 20.661,-56.458 c 0.795,-2.174 2.412,-3.297 4.532,-3.154 1.705,0.111 3.678,1.065 5.522,2.642 l 2.44,-6.669 c 0.751,-2.053 2.229,-3.166 4.183,-3.166 0.115,0 0.232,0.004 0.349,0.012 4.16,0.272 9.909,5.548 11.507,12.683 L 453.826,98.9 c 1.025,4.576 4.252,9.222 7.848,11.298 l 1.548,0.894 1.447,-3.067 c 0.879,-1.863 2.448,-2.799 4.454,-2.628 1.493,0.127 3.209,0.891 4.864,2.177 l 3.177,-6.731 c 0.879,-1.863 2.448,-2.801 4.454,-2.628 3.875,0.329 9.246,4.95 11.164,11.84 1.205,4.331 4.277,8.546 7.645,10.491 l 0.303,0.175 2.117,-6.507 c 0.738,-2.268 2.326,-3.48 4.46,-3.387 1.833,0.07 3.948,1.075 5.895,2.787 l 2.141,-6.582 c 0.738,-2.268 2.326,-3.477 4.46,-3.387 4.187,0.161 9.844,5.189 11.594,12.417 l 14.261,58.917 c 1.117,4.619 4.295,9.081 7.908,11.103 l 16.466,9.219 -0.158,0.281 -16.466,-9.219 c -3.686,-2.063 -6.927,-6.608 -8.065,-11.308 l -14.261,-58.917 c -1.69,-6.981 -7.307,-12.017 -11.292,-12.17 -1.993,-0.074 -3.441,1.017 -4.141,3.165 l -2.186,6.718 c 2.39,2.201 4.488,5.473 5.438,9.393 l 14.261,58.917 c 1.117,4.618 4.295,9.08 7.908,11.103 l 16.466,9.219 z M 474.247,107.78 c 2.541,2.067 4.901,5.36 6.041,9.456 1.206,4.331 4.277,8.547 7.645,10.491 l 2.973,1.716 c 1.885,1.089 3.718,1.385 5.15,0.833 1.171,-0.449 2.034,-1.438 2.497,-2.86 l 2.076,-6.383 -0.363,-0.21 c -3.435,-1.983 -6.566,-6.277 -7.793,-10.683 -1.881,-6.757 -7.113,-11.285 -10.881,-11.605 -1.876,-0.161 -3.305,0.686 -4.136,2.444 z m 26.769,13.105 2.385,1.377 c 1.884,1.088 3.715,1.385 5.149,0.833 1.171,-0.449 2.034,-1.438 2.497,-2.86 l 2.034,-6.252 c -1.927,-1.736 -4.018,-2.766 -5.787,-2.834 -2.03,-0.077 -3.442,1.018 -4.141,3.165 z M 421.359,32.623 c 2.549,2.276 4.811,5.742 5.723,9.814 l 14.25,63.644 c 1.025,4.576 4.252,9.222 7.848,11.298 l 3.403,1.965 c 1.776,1.025 3.522,1.351 4.919,0.914 1.07,-0.335 1.918,-1.11 2.453,-2.243 l 3.129,-6.631 -1.571,-0.907 c -3.725,-2.152 -6.94,-6.776 -8,-11.507 L 439.264,35.326 c -1.566,-6.997 -7.167,-12.167 -11.213,-12.432 -2.004,-0.134 -3.455,0.887 -4.208,2.944 z m 42.144,78.63 1.575,0.91 c 1.775,1.026 3.522,1.351 4.919,0.914 1.07,-0.335 1.918,-1.111 2.453,-2.243 l 1.4,-2.967 c -1.618,-1.27 -3.296,-2.024 -4.754,-2.148 -1.878,-0.159 -3.305,0.686 -4.136,2.444 z M 368.869,91.34 380.33,97.957 c 1.854,1.072 3.66,1.374 5.085,0.858 1.14,-0.414 2,-1.336 2.487,-2.668 l 2.369,-6.473 -9.23,-5.33 z m 21.798,-1.81 2.158,1.246 c 1.855,1.072 3.663,1.376 5.085,0.857 1.141,-0.414 2,-1.336 2.487,-2.668 L 420.984,32.71 c -1.811,-1.573 -3.753,-2.524 -5.429,-2.634 -2.008,-0.131 -3.455,0.887 -4.208,2.944 z"
   id="path18" />
	</g>
	
		<linearGradient
   id="SVGID_00000148657369963756000750000018434481772405410993_"
   gradientUnits="userSpaceOnUse"
   x1="381.04071"
   y1="109.0812"
   x2="569.95209"
   y2="109.0812"
   gradientTransform="translate(185.52692,-1.3233207)">
		<stop
   offset="0"
   style="stop-color:#42E8E0"
   id="stop18" />
		<stop
   offset="0.1055"
   style="stop-color:#37B6BF"
   id="stop19" />
		<stop
   offset="0.2197"
   style="stop-color:#2C87A1"
   id="stop20" />
		<stop
   offset="0.338"
   style="stop-color:#235F87"
   id="stop21" />
		<stop
   offset="0.4587"
   style="stop-color:#1C3F72"
   id="stop22" />
		<stop
   offset="0.5824"
   style="stop-color:#162561"
   id="stop23" />
		<stop
   offset="0.7105"
   style="stop-color:#121355"
   id="stop24" />
		<stop
   offset="0.8458"
   style="stop-color:#10084E"
   id="stop25" />
		<stop
   offset="1"
   style="stop-color:#0F054C"
   id="stop26" />
	</linearGradient>
	<path
   style="opacity:0.5;fill:url(#SVGID_00000148657369963756000750000018434481772405410993_)"
   d="m 381.041,84.158 11.704,6.757 c 3.516,2.03 6.647,1.27 7.805,-1.895 l 23.143,-63.238 c 2.643,-7.222 13.445,-0.693 15.729,9.508 l 14.25,63.644 c 1.041,4.651 4.265,9.29 7.924,11.403 l 3.403,1.965 c 3.307,1.91 6.296,1.359 7.598,-1.4 l 4.715,-9.99 c 2.923,-6.193 12.662,-0.351 15.317,9.187 v 0 c 1.225,4.399 4.295,8.61 7.719,10.587 l 2.973,1.716 c 3.605,2.081 6.794,1.225 7.881,-2.116 l 4.295,-13.204 c 2.424,-7.452 13.258,-1.247 15.743,9.018 l 14.261,58.917 c 1.121,4.63 4.36,9.175 7.987,11.205 l 16.466,9.219 z"
   id="path26" />
	
		<linearGradient
   id="SVGID_00000058566584481689828880000003725576226242111932_"
   gradientUnits="userSpaceOnUse"
   x1="368.5455"
   y1="116.0812"
   x2="557.45691"
   y2="116.0812"
   gradientTransform="translate(185.52692,-1.3233207)">
		<stop
   offset="0"
   style="stop-color:#42E8E0"
   id="stop27" />
		<stop
   offset="0.1055"
   style="stop-color:#37B6BF"
   id="stop28" />
		<stop
   offset="0.2197"
   style="stop-color:#2C87A1"
   id="stop29" />
		<stop
   offset="0.338"
   style="stop-color:#235F87"
   id="stop30" />
		<stop
   offset="0.4587"
   style="stop-color:#1C3F72"
   id="stop31" />
		<stop
   offset="0.5824"
   style="stop-color:#162561"
   id="stop32" />
		<stop
   offset="0.7105"
   style="stop-color:#121355"
   id="stop33" />
		<stop
   offset="0.8458"
   style="stop-color:#10084E"
   id="stop34" />
		<stop
   offset="1"
   style="stop-color:#0F054C"
   id="stop35" />
	</linearGradient>
	<path
   style="opacity:0.5;fill:url(#SVGID_00000058566584481689828880000003725576226242111932_)"
   d="m 368.546,91.158 11.704,6.757 c 3.516,2.03 6.647,1.27 7.805,-1.895 l 23.143,-63.238 c 2.643,-7.222 13.445,-0.693 15.729,9.508 l 14.25,63.644 c 1.041,4.651 4.265,9.29 7.924,11.403 l 3.403,1.965 c 3.307,1.91 6.296,1.359 7.598,-1.4 l 4.715,-9.99 c 2.923,-6.193 12.662,-0.351 15.317,9.187 v 0 c 1.225,4.399 4.295,8.61 7.719,10.587 l 2.973,1.716 c 3.605,2.081 6.794,1.225 7.881,-2.116 l 4.295,-13.204 c 2.424,-7.452 13.258,-1.247 15.743,9.018 l 14.261,58.917 c 1.121,4.63 4.36,9.175 7.987,11.205 l 16.466,9.219 z"
   id="path35" />
</g>
<g
   id="g36"
   transform="translate(-185.52692,1.3233207)">
	<path
   style="fill:#42e8e0"
   d="m 278.207,185.945 c -1.552,0 -3.105,-0.342 -4.287,-1.023 l -19.781,-11.421 c -1.176,-0.679 -1.824,-1.594 -1.824,-2.575 0,-0.982 0.647,-1.896 1.824,-2.575 l 19.78,-11.42 c 2.364,-1.366 6.211,-1.365 8.574,0 l 19.781,11.421 c 1.176,0.679 1.823,1.593 1.823,2.575 0,0.981 -0.648,1.896 -1.823,2.574 l -19.781,11.421 c -1.181,0.682 -2.734,1.023 -4.286,1.023 z m -4.114,-1.324 c 2.269,1.311 5.959,1.311 8.228,0 l 19.78,-11.42 c 1.064,-0.614 1.65,-1.422 1.65,-2.274 0,-0.852 -0.586,-1.661 -1.65,-2.275 l -19.78,-11.421 c -2.269,-1.309 -5.96,-1.309 -8.228,0 l -19.78,11.42 c -1.064,0.614 -1.65,1.422 -1.65,2.275 0,0.853 0.586,1.661 1.65,2.275 z"
   id="path36" />
</g>
<g
   id="g223"
   transform="translate(-185.52692,1.3233207)">
	<g
   id="g219">
		<g
   id="g145">
			<g
   id="g58">
				<g
   id="g47">
					
						<linearGradient
   id="SVGID_00000121970194091074062430000013566139925518408092_"
   gradientUnits="userSpaceOnUse"
   x1="252.605"
   y1="142.91389"
   x2="371.58679"
   y2="142.91389"
   gradientTransform="matrix(-1,0,0,1,894.66492,-1.3233207)">
						<stop
   offset="0"
   style="stop-color:#C0BFF6"
   id="stop36" />
						<stop
   offset="0.2938"
   style="stop-color:#C5C4F7"
   id="stop37" />
						<stop
   offset="0.6399"
   style="stop-color:#D3D2F9"
   id="stop38" />
						<stop
   offset="1"
   style="stop-color:#E9E9FD"
   id="stop39" />
					</linearGradient>
					<path
   style="fill:url(#SVGID_00000121970194091074062430000013566139925518408092_)"
   d="m 337.573,150.314 12.887,-76.459 -1.036,-0.436 1.557,-0.893 -0.003,0.009 c 0.302,-0.201 0.729,-0.189 1.2,0.083 l 102.996,59.465 c 0.846,0.488 1.486,1.741 1.337,2.616 l -12.99,77.066 c -0.068,0.402 -0.267,0.668 -0.543,0.784 l 0.002,0.001 -1.524,0.88 -0.262,-1.422 0.087,0.026 L 338.91,152.93 c -0.846,-0.488 -1.486,-1.741 -1.337,-2.616 z"
   id="path39" />
					
						<linearGradient
   id="SVGID_00000175299583490564033100000005628432619084587687_"
   gradientUnits="userSpaceOnUse"
   x1="252.6058"
   y1="173.4274"
   x2="273.0361"
   y2="173.4274"
   gradientTransform="matrix(-1,0,0,1,894.66492,-1.3233207)">
						<stop
   offset="0"
   style="stop-color:#5761D7"
   id="stop40" />
						<stop
   offset="0.1779"
   style="stop-color:#5C66D9"
   id="stop41" />
						<stop
   offset="0.3876"
   style="stop-color:#6A73DF"
   id="stop42" />
						<stop
   offset="0.6134"
   style="stop-color:#8289E8"
   id="stop43" />
						<stop
   offset="0.849"
   style="stop-color:#A3A7F5"
   id="stop44" />
						<stop
   offset="1"
   style="stop-color:#BCBEFF"
   id="stop45" />
					</linearGradient>
					<path
   style="fill:url(#SVGID_00000175299583490564033100000005628432619084587687_)"
   d="m 454.6,134.173 1.693,-0.749 c 0.19,0.434 0.283,0.89 0.218,1.275 l -12.99,77.066 c -0.068,0.402 -0.267,0.668 -0.543,0.784 l 0.002,0.001 -1.524,0.88 -0.262,-1.422 0.087,0.026 -5.18,-2.991 z"
   id="path45" />
					<path
   style="fill:#24126a"
   d="m 337.294,153.857 102.996,59.465 c 0.795,0.459 1.476,0.194 1.616,-0.629 l 12.99,-77.066 c 0.149,-0.876 -0.492,-2.128 -1.337,-2.616 L 350.562,73.545 c -0.795,-0.459 -1.476,-0.194 -1.616,0.629 l -12.99,77.066 c -0.148,0.876 0.492,2.128 1.338,2.617 z"
   id="path46" />
					<g
   style="opacity:0.51"
   id="g46">
						<polygon
   style="fill:#453c9e"
   points="440.628,211.958 337.215,152.279 350.216,74.978 453.696,134.695 "
   id="polygon46" />
					</g>
				</g>
				<g
   id="g57">
					
						<linearGradient
   id="SVGID_00000106146741178619918540000006361225447719652005_"
   gradientUnits="userSpaceOnUse"
   x1="268.54581"
   y1="206.7197"
   x2="436.58701"
   y2="206.7197"
   gradientTransform="matrix(-1,0,0,1,894.66492,-1.3233207)">
						<stop
   offset="0"
   style="stop-color:#5761D7"
   id="stop47" />
						<stop
   offset="0.1779"
   style="stop-color:#5C66D9"
   id="stop48" />
						<stop
   offset="0.3876"
   style="stop-color:#6A73DF"
   id="stop49" />
						<stop
   offset="0.6134"
   style="stop-color:#8289E8"
   id="stop50" />
						<stop
   offset="0.849"
   style="stop-color:#A3A7F5"
   id="stop51" />
						<stop
   offset="1"
   style="stop-color:#BCBEFF"
   id="stop52" />
					</linearGradient>
					<path
   style="fill:url(#SVGID_00000106146741178619918540000006361225447719652005_)"
   d="m 272.551,190.343 5.621,2.935 56.362,-32.54 c 0.943,-0.544 2.59,-0.476 3.679,0.152 l 97.208,56.123 c 0.93,-0.52 5.172,-2.56 5.172,-2.56 l -2.057,3.344 c 0,0 -0.007,-0.006 -0.008,-0.007 -0.085,0.238 -0.268,0.461 -0.575,0.638 l -59.36,34.271 c -0.943,0.544 -2.59,0.476 -3.679,-0.152 l -99.475,-57.432 c -0.447,-0.258 -0.721,-0.571 -0.834,-0.887 l -0.008,0.005 z"
   id="path52" />
					
						<linearGradient
   id="SVGID_00000029744487512706207970000010747222068663683518_"
   gradientUnits="userSpaceOnUse"
   x1="325.00821"
   y1="202.12489"
   x2="493.13889"
   y2="202.12489"
   gradientTransform="matrix(-1,0,0,1,894.66492,-1.3233207)">
						<stop
   offset="0"
   style="stop-color:#C0BFF6"
   id="stop53" />
						<stop
   offset="0.2938"
   style="stop-color:#C5C4F7"
   id="stop54" />
						<stop
   offset="0.6399"
   style="stop-color:#D3D2F9"
   id="stop55" />
						<stop
   offset="1"
   style="stop-color:#E9E9FD"
   id="stop56" />
					</linearGradient>
					<path
   style="fill:url(#SVGID_00000029744487512706207970000010747222068663683518_)"
   d="m 273.42,191.267 101.948,58.86 c 1.116,0.644 2.804,0.714 3.77,0.156 l 60.836,-35.124 c 0.966,-0.558 0.845,-1.532 -0.271,-2.177 l -101.948,-58.86 c -1.116,-0.644 -2.804,-0.714 -3.77,-0.156 l -60.836,35.124 c -0.966,0.558 -0.845,1.533 0.271,2.177 z"
   id="path56" />
					<path
   style="fill:#ffffff"
   d="m 273.42,190.811 101.948,58.86 c 1.116,0.644 2.804,0.714 3.77,0.156 l 60.836,-35.124 c 0.34,-0.196 0.538,-0.446 0.613,-0.713 0.108,0.433 -0.083,0.864 -0.613,1.169 l -60.836,35.124 c -0.966,0.558 -2.654,0.488 -3.77,-0.156 L 273.42,191.267 c -0.723,-0.417 -1.021,-0.972 -0.884,-1.464 0.09,0.357 0.379,0.716 0.884,1.008 z"
   id="path57" />
				</g>
			</g>
			<g
   style="opacity:0.15"
   id="g144">
				<defs
   id="defs58">
					<polygon
   id="SVGID_00000176759109035145902750000012712340662145969302_"
   style="opacity:0.15"
   points="337.215,152.279 440.628,211.958 453.696,134.695 350.216,74.978 " />
				</defs>
				<clipPath
   id="SVGID_00000159429470695415180980000018342281149360082353_">
					<use
   xlink:href="#SVGID_00000176759109035145902750000012712340662145969302_"
   style="overflow:visible"
   id="use58" />
				</clipPath>
				<g
   clip-path="url(#SVGID_00000159429470695415180980000018342281149360082353_)"
   id="g143">
					<g
   id="g68">
						
							<linearGradient
   id="SVGID_00000156588300834162660630000008187382442756934843_"
   gradientUnits="userSpaceOnUse"
   x1="203.9287"
   y1="169.7372"
   x2="371.96991"
   y2="169.7372"
   gradientTransform="matrix(-1,0,0,1,894.66492,-1.3233207)">
							<stop
   offset="0"
   style="stop-color:#5761D7"
   id="stop58" />
							<stop
   offset="0.1779"
   style="stop-color:#5C66D9"
   id="stop59" />
							<stop
   offset="0.3876"
   style="stop-color:#6A73DF"
   id="stop60" />
							<stop
   offset="0.6134"
   style="stop-color:#8289E8"
   id="stop61" />
							<stop
   offset="0.849"
   style="stop-color:#A3A7F5"
   id="stop62" />
							<stop
   offset="1"
   style="stop-color:#BCBEFF"
   id="stop63" />
						</linearGradient>
						<path
   style="fill:url(#SVGID_00000156588300834162660630000008187382442756934843_)"
   d="m 337.168,153.361 5.621,2.935 56.362,-32.54 c 0.943,-0.544 2.59,-0.476 3.679,0.152 l 97.208,56.123 c 0.93,-0.52 5.172,-2.56 5.172,-2.56 l -2.057,3.344 c 0,0 -0.007,-0.006 -0.008,-0.007 -0.085,0.238 -0.268,0.461 -0.575,0.638 l -59.36,34.271 c -0.943,0.545 -2.59,0.476 -3.679,-0.152 l -99.475,-57.432 c -0.447,-0.258 -0.721,-0.571 -0.835,-0.887 l -0.008,0.005 z"
   id="path63" />
						
							<linearGradient
   id="SVGID_00000020372889909829802200000002671501847108606399_"
   gradientUnits="userSpaceOnUse"
   x1="260.39111"
   y1="165.1425"
   x2="428.52179"
   y2="165.1425"
   gradientTransform="matrix(-1,0,0,1,894.66492,-1.3233207)">
							<stop
   offset="0"
   style="stop-color:#C0BFF6"
   id="stop64" />
							<stop
   offset="0.2938"
   style="stop-color:#C5C4F7"
   id="stop65" />
							<stop
   offset="0.6399"
   style="stop-color:#D3D2F9"
   id="stop66" />
							<stop
   offset="1"
   style="stop-color:#E9E9FD"
   id="stop67" />
						</linearGradient>
						<path
   style="fill:url(#SVGID_00000020372889909829802200000002671501847108606399_)"
   d="m 338.037,154.285 101.948,58.86 c 1.116,0.644 2.804,0.714 3.77,0.156 l 60.836,-35.124 c 0.966,-0.558 0.845,-1.533 -0.271,-2.177 L 402.372,117.14 c -1.116,-0.644 -2.804,-0.714 -3.77,-0.156 l -60.837,35.124 c -0.965,0.558 -0.844,1.533 0.272,2.177 z"
   id="path67" />
						<path
   style="fill:#ffffff"
   d="M 504.322,176 402.374,117.14 c -0.718,-0.415 -1.672,-0.588 -2.519,-0.512 0.626,0.049 1.257,0.217 1.768,0.512 L 503.571,176 c 1.116,0.644 1.237,1.619 0.271,2.177 l -60.837,35.124 c -0.344,0.199 -0.782,0.314 -1.251,0.356 0.742,0.058 1.478,-0.054 2.002,-0.356 l 60.836,-35.124 c 0.967,-0.558 0.846,-1.533 -0.27,-2.177 z"
   id="path68" />
					</g>
					<g
   style="opacity:0.5"
   id="g142">
						<path
   style="fill:#24126a"
   d="m 391.438,144.152 -3.268,-1.887 c -0.262,-0.151 -0.706,-0.139 -0.992,0.027 l -3.632,2.122 c -0.285,0.167 -0.304,0.425 -0.042,0.576 l 3.268,1.887 c 0.262,0.152 0.706,0.139 0.992,-0.027 l 3.632,-2.122 c 0.286,-0.167 0.304,-0.425 0.042,-0.576 z"
   id="path69" />
						<path
   style="fill:#24126a"
   d="m 396.485,147.066 -3.268,-1.887 c -0.262,-0.151 -0.706,-0.139 -0.992,0.028 l -3.632,2.122 c -0.285,0.167 -0.304,0.425 -0.042,0.576 l 3.268,1.887 c 0.262,0.151 0.706,0.139 0.992,-0.028 l 3.632,-2.122 c 0.285,-0.167 0.304,-0.425 0.042,-0.576 z"
   id="path70" />
						<path
   style="fill:#24126a"
   d="m 401.531,149.979 -3.268,-1.887 c -0.262,-0.152 -0.706,-0.139 -0.992,0.027 l -3.632,2.122 c -0.285,0.167 -0.304,0.425 -0.041,0.576 l 3.268,1.887 c 0.262,0.151 0.706,0.139 0.992,-0.027 l 3.632,-2.122 c 0.285,-0.166 0.304,-0.424 0.041,-0.576 z"
   id="path71" />
						<path
   style="fill:#24126a"
   d="m 397.689,153.857 -3.268,-1.887 c -0.262,-0.152 -0.706,-0.139 -0.992,0.027 l -3.049,1.781 c -0.285,0.167 -0.304,0.424 -0.042,0.576 l 3.268,1.887 c 0.262,0.151 0.706,0.139 0.992,-0.027 l 3.049,-1.781 c 0.286,-0.166 0.305,-0.424 0.042,-0.576 z"
   id="path72" />
						<path
   style="fill:#24126a"
   d="m 402.736,156.771 -3.268,-1.887 c -0.262,-0.152 -0.706,-0.139 -0.992,0.027 l -3.049,1.781 c -0.285,0.167 -0.304,0.425 -0.041,0.576 l 3.268,1.887 c 0.262,0.152 0.706,0.139 0.992,-0.027 l 3.049,-1.781 c 0.284,-0.167 0.303,-0.425 0.041,-0.576 z"
   id="path73" />
						<path
   style="fill:#24126a"
   d="m 407.782,159.685 -3.268,-1.887 c -0.262,-0.152 -0.706,-0.139 -0.992,0.027 l -3.049,1.781 c -0.285,0.167 -0.304,0.425 -0.041,0.576 l 3.268,1.887 c 0.262,0.152 0.706,0.139 0.992,-0.027 l 3.049,-1.781 c 0.285,-0.167 0.304,-0.425 0.041,-0.576 z"
   id="path74" />
						<path
   style="fill:#24126a"
   d="m 412.829,162.598 -3.268,-1.887 c -0.262,-0.151 -0.706,-0.139 -0.992,0.028 l -3.049,1.781 c -0.285,0.167 -0.304,0.425 -0.042,0.576 l 3.268,1.887 c 0.262,0.152 0.706,0.139 0.992,-0.027 l 3.049,-1.781 c 0.286,-0.167 0.304,-0.425 0.042,-0.577 z"
   id="path75" />
						<path
   style="fill:#24126a"
   d="m 417.876,165.512 -3.268,-1.887 c -0.262,-0.151 -0.706,-0.139 -0.992,0.027 l -3.049,1.781 c -0.285,0.167 -0.304,0.424 -0.041,0.576 l 3.268,1.887 c 0.262,0.151 0.706,0.139 0.992,-0.028 l 3.049,-1.781 c 0.284,-0.166 0.303,-0.424 0.041,-0.575 z"
   id="path76" />
						<path
   style="fill:#24126a"
   d="m 422.922,168.426 -3.268,-1.887 c -0.262,-0.151 -0.706,-0.139 -0.992,0.028 l -3.049,1.781 c -0.285,0.167 -0.304,0.425 -0.042,0.576 l 3.268,1.887 c 0.262,0.152 0.706,0.139 0.992,-0.027 l 3.049,-1.781 c 0.286,-0.168 0.305,-0.426 0.042,-0.577 z"
   id="path77" />
						<path
   style="fill:#24126a"
   d="m 427.969,171.339 -3.268,-1.887 c -0.262,-0.152 -0.706,-0.139 -0.992,0.027 l -3.049,1.781 c -0.285,0.167 -0.304,0.425 -0.042,0.576 l 3.268,1.887 c 0.262,0.151 0.706,0.139 0.992,-0.028 l 3.049,-1.781 c 0.286,-0.165 0.304,-0.423 0.042,-0.575 z"
   id="path78" />
						<path
   style="fill:#24126a"
   d="m 433.016,174.253 -3.268,-1.887 c -0.262,-0.152 -0.706,-0.139 -0.992,0.027 l -3.049,1.781 c -0.285,0.167 -0.304,0.425 -0.041,0.576 l 3.268,1.887 c 0.262,0.152 0.706,0.139 0.992,-0.027 l 3.049,-1.781 c 0.284,-0.167 0.303,-0.425 0.041,-0.576 z"
   id="path79" />
						<path
   style="fill:#24126a"
   d="m 438.062,177.167 -3.268,-1.887 c -0.262,-0.152 -0.706,-0.139 -0.992,0.027 l -3.049,1.781 c -0.285,0.167 -0.304,0.425 -0.041,0.576 l 3.268,1.887 c 0.262,0.152 0.706,0.139 0.992,-0.027 l 3.049,-1.781 c 0.285,-0.167 0.303,-0.425 0.041,-0.576 z"
   id="path80" />
						<path
   style="fill:#24126a"
   d="m 443.109,180.08 -3.268,-1.887 c -0.262,-0.152 -0.706,-0.139 -0.992,0.027 l -3.049,1.781 c -0.285,0.167 -0.304,0.425 -0.041,0.576 l 3.268,1.887 c 0.262,0.151 0.706,0.139 0.992,-0.027 l 3.049,-1.781 c 0.285,-0.166 0.303,-0.424 0.041,-0.576 z"
   id="path81" />
						<path
   style="fill:#24126a"
   d="m 395.587,158.017 -3.268,-1.887 c -0.262,-0.152 -0.706,-0.139 -0.992,0.027 l -3.049,1.781 c -0.285,0.167 -0.304,0.425 -0.041,0.576 l 3.268,1.887 c 0.262,0.151 0.706,0.139 0.992,-0.027 l 3.049,-1.781 c 0.285,-0.167 0.303,-0.425 0.041,-0.576 z"
   id="path82" />
						<path
   style="fill:#24126a"
   d="m 390.465,155.059 -3.268,-1.887 c -0.262,-0.152 -0.706,-0.139 -0.992,0.027 l -3.049,1.781 c -0.285,0.167 -0.304,0.425 -0.042,0.576 l 3.268,1.887 c 0.262,0.152 0.706,0.139 0.992,-0.027 l 3.049,-1.781 c 0.286,-0.166 0.304,-0.424 0.042,-0.576 z"
   id="path83" />
						<path
   style="fill:#24126a"
   d="m 385.334,152.097 -7.038,-4.063 c -0.262,-0.152 -0.706,-0.139 -0.992,0.027 l -3.049,1.781 c -0.285,0.167 -0.304,0.425 -0.041,0.576 l 7.038,4.063 c 0.262,0.152 0.706,0.139 0.992,-0.027 l 3.049,-1.781 c 0.285,-0.166 0.304,-0.424 0.041,-0.576 z"
   id="path84" />
						<path
   style="fill:#24126a"
   d="m 379.382,154.034 -5.712,-3.298 c -0.262,-0.152 -0.706,-0.139 -0.992,0.027 l -3.049,1.781 c -0.285,0.167 -0.304,0.425 -0.041,0.576 l 5.712,3.298 c 0.262,0.152 0.706,0.139 0.992,-0.027 l 3.049,-1.781 c 0.285,-0.167 0.304,-0.424 0.041,-0.576 z"
   id="path85" />
						<path
   style="fill:#24126a"
   d="m 400.633,160.93 -3.268,-1.887 c -0.262,-0.152 -0.706,-0.139 -0.992,0.027 l -3.049,1.781 c -0.285,0.167 -0.304,0.425 -0.042,0.576 l 3.268,1.887 c 0.262,0.152 0.706,0.139 0.992,-0.027 l 3.049,-1.781 c 0.286,-0.166 0.305,-0.424 0.042,-0.576 z"
   id="path86" />
						<path
   style="fill:#24126a"
   d="m 405.68,163.844 -3.268,-1.887 c -0.262,-0.152 -0.706,-0.139 -0.992,0.027 l -3.049,1.781 c -0.285,0.167 -0.304,0.425 -0.042,0.576 l 3.268,1.887 c 0.262,0.152 0.706,0.139 0.992,-0.027 l 3.049,-1.781 c 0.286,-0.167 0.304,-0.425 0.042,-0.576 z"
   id="path87" />
						<path
   style="fill:#24126a"
   d="m 410.727,166.758 -3.268,-1.887 c -0.262,-0.151 -0.706,-0.139 -0.992,0.027 l -3.049,1.781 c -0.285,0.167 -0.304,0.425 -0.041,0.576 l 3.268,1.887 c 0.262,0.152 0.706,0.139 0.992,-0.027 l 3.049,-1.781 c 0.284,-0.167 0.303,-0.425 0.041,-0.576 z"
   id="path88" />
						<path
   style="fill:#24126a"
   d="m 415.773,169.671 -3.268,-1.887 c -0.262,-0.151 -0.706,-0.139 -0.992,0.027 l -3.049,1.781 c -0.285,0.167 -0.304,0.424 -0.042,0.576 l 3.268,1.887 c 0.262,0.151 0.706,0.139 0.992,-0.028 l 3.049,-1.781 c 0.286,-0.165 0.305,-0.423 0.042,-0.575 z"
   id="path89" />
						<path
   style="fill:#24126a"
   d="m 420.82,172.585 -3.268,-1.887 c -0.262,-0.151 -0.706,-0.139 -0.992,0.027 l -3.049,1.781 c -0.285,0.167 -0.304,0.425 -0.042,0.576 l 3.268,1.887 c 0.262,0.152 0.706,0.139 0.992,-0.027 l 3.049,-1.781 c 0.286,-0.167 0.304,-0.425 0.042,-0.576 z"
   id="path90" />
						<path
   style="fill:#24126a"
   d="m 425.866,175.499 -3.268,-1.887 c -0.262,-0.151 -0.706,-0.139 -0.992,0.028 l -3.049,1.781 c -0.285,0.167 -0.304,0.425 -0.041,0.576 l 3.268,1.887 c 0.262,0.151 0.706,0.139 0.992,-0.028 l 3.049,-1.781 c 0.285,-0.167 0.304,-0.425 0.041,-0.576 z"
   id="path91" />
						<path
   style="fill:#24126a"
   d="m 430.913,178.412 -3.268,-1.887 c -0.262,-0.152 -0.706,-0.139 -0.992,0.027 l -3.049,1.781 c -0.285,0.167 -0.304,0.425 -0.042,0.576 l 3.268,1.887 c 0.262,0.151 0.706,0.139 0.992,-0.027 l 3.049,-1.781 c 0.286,-0.166 0.305,-0.424 0.042,-0.576 z"
   id="path92" />
						<path
   style="fill:#24126a"
   d="m 435.96,181.326 -3.268,-1.887 c -0.262,-0.151 -0.706,-0.139 -0.992,0.028 l -3.049,1.781 c -0.285,0.167 -0.304,0.425 -0.042,0.576 l 3.268,1.887 c 0.262,0.152 0.706,0.139 0.992,-0.027 l 3.049,-1.781 c 0.286,-0.168 0.304,-0.426 0.042,-0.577 z"
   id="path93" />
						<path
   style="fill:#24126a"
   d="m 441.006,184.24 -3.268,-1.887 c -0.262,-0.152 -0.706,-0.139 -0.992,0.027 l -3.049,1.781 c -0.285,0.167 -0.304,0.425 -0.041,0.576 l 3.268,1.887 c 0.262,0.151 0.706,0.139 0.992,-0.027 l 3.049,-1.781 c 0.285,-0.167 0.304,-0.425 0.041,-0.576 z"
   id="path94" />
						<path
   style="fill:#24126a"
   d="m 449.978,189.419 -7.13,-4.117 c -0.262,-0.151 -0.706,-0.139 -0.992,0.028 l -3.049,1.781 c -0.285,0.167 -0.304,0.424 -0.041,0.576 l 7.13,4.117 c 0.262,0.151 0.706,0.139 0.992,-0.028 l 3.049,-1.781 c 0.285,-0.166 0.304,-0.424 0.041,-0.576 z"
   id="path95" />
						<path
   style="fill:#24126a"
   d="m 440.727,194.824 -6.018,-3.475 c -0.262,-0.151 -0.706,-0.139 -0.992,0.028 l -3.049,1.781 c -0.285,0.167 -0.304,0.425 -0.041,0.576 l 6.018,3.475 c 0.262,0.152 0.706,0.139 0.992,-0.027 l 3.049,-1.781 c 0.285,-0.167 0.303,-0.425 0.041,-0.577 z"
   id="path96" />
						<path
   style="fill:#24126a"
   d="m 399.933,165.899 -3.268,-1.887 c -0.262,-0.152 -0.706,-0.139 -0.992,0.027 l -3.049,1.781 c -0.285,0.167 -0.304,0.425 -0.042,0.576 l 3.268,1.887 c 0.262,0.151 0.706,0.139 0.992,-0.028 l 3.049,-1.781 c 0.286,-0.166 0.304,-0.424 0.042,-0.575 z"
   id="path97" />
						<path
   style="fill:#24126a"
   d="m 394.761,162.913 -3.268,-1.887 c -0.262,-0.152 -0.706,-0.139 -0.992,0.027 l -3.049,1.781 c -0.285,0.167 -0.304,0.425 -0.042,0.576 l 3.268,1.887 c 0.262,0.152 0.706,0.139 0.992,-0.027 l 3.049,-1.781 c 0.285,-0.167 0.304,-0.425 0.042,-0.576 z"
   id="path98" />
						<path
   style="fill:#24126a"
   d="m 389.589,159.927 -3.268,-1.887 c -0.262,-0.151 -0.706,-0.139 -0.992,0.028 l -3.049,1.781 c -0.285,0.167 -0.304,0.425 -0.041,0.576 l 3.268,1.887 c 0.262,0.152 0.706,0.139 0.992,-0.027 l 3.049,-1.781 c 0.284,-0.168 0.303,-0.426 0.041,-0.577 z"
   id="path99" />
						<path
   style="fill:#24126a"
   d="m 384.416,156.94 -3.268,-1.887 c -0.262,-0.151 -0.706,-0.139 -0.992,0.028 l -3.049,1.781 c -0.285,0.167 -0.304,0.425 -0.041,0.576 l 3.268,1.887 c 0.262,0.152 0.706,0.139 0.992,-0.027 l 3.049,-1.781 c 0.285,-0.167 0.304,-0.425 0.041,-0.577 z"
   id="path100" />
						<path
   style="fill:#24126a"
   d="m 404.979,168.813 -3.268,-1.887 c -0.262,-0.151 -0.706,-0.139 -0.992,0.027 l -3.049,1.781 c -0.285,0.167 -0.304,0.424 -0.042,0.576 l 3.268,1.887 c 0.262,0.151 0.706,0.139 0.992,-0.027 l 3.049,-1.781 c 0.286,-0.167 0.305,-0.425 0.042,-0.576 z"
   id="path101" />
						<path
   style="fill:#24126a"
   d="m 410.026,171.726 -3.268,-1.887 c -0.262,-0.151 -0.706,-0.139 -0.992,0.028 l -3.049,1.781 c -0.285,0.167 -0.304,0.425 -0.041,0.576 l 3.268,1.887 c 0.262,0.152 0.706,0.139 0.992,-0.027 l 3.049,-1.781 c 0.285,-0.167 0.303,-0.425 0.041,-0.577 z"
   id="path102" />
						<path
   style="fill:#24126a"
   d="m 415.073,174.64 -3.268,-1.887 c -0.262,-0.152 -0.706,-0.139 -0.992,0.027 l -3.049,1.781 c -0.285,0.167 -0.304,0.425 -0.042,0.576 l 3.268,1.887 c 0.262,0.151 0.706,0.139 0.992,-0.028 l 3.049,-1.781 c 0.286,-0.166 0.304,-0.424 0.042,-0.575 z"
   id="path103" />
						<path
   style="fill:#24126a"
   d="m 420.119,177.554 -3.268,-1.887 c -0.262,-0.152 -0.706,-0.139 -0.992,0.027 l -3.049,1.781 c -0.285,0.167 -0.304,0.425 -0.042,0.576 l 3.268,1.887 c 0.262,0.152 0.706,0.139 0.992,-0.027 l 3.049,-1.781 c 0.286,-0.167 0.305,-0.425 0.042,-0.576 z"
   id="path104" />
						<path
   style="fill:#24126a"
   d="m 425.166,180.467 -3.268,-1.887 c -0.262,-0.151 -0.706,-0.139 -0.992,0.027 l -3.049,1.781 c -0.285,0.167 -0.304,0.425 -0.041,0.576 l 3.268,1.887 c 0.262,0.152 0.706,0.139 0.992,-0.027 l 3.049,-1.781 c 0.285,-0.166 0.303,-0.424 0.041,-0.576 z"
   id="path105" />
						<path
   style="fill:#24126a"
   d="m 430.213,183.381 -3.268,-1.887 c -0.262,-0.152 -0.706,-0.139 -0.992,0.027 l -3.049,1.781 c -0.285,0.167 -0.304,0.425 -0.042,0.576 l 3.268,1.887 c 0.262,0.152 0.706,0.139 0.992,-0.027 l 3.049,-1.781 c 0.285,-0.167 0.304,-0.425 0.042,-0.576 z"
   id="path106" />
						<path
   style="fill:#24126a"
   d="m 435.259,186.295 -3.268,-1.887 c -0.262,-0.152 -0.706,-0.139 -0.992,0.027 l -3.049,1.781 c -0.285,0.167 -0.304,0.425 -0.042,0.576 l 3.268,1.887 c 0.262,0.152 0.706,0.139 0.992,-0.027 l 3.049,-1.781 c 0.286,-0.167 0.305,-0.425 0.042,-0.576 z"
   id="path107" />
						<path
   style="fill:#24126a"
   d="m 440.306,189.208 -3.268,-1.887 c -0.262,-0.151 -0.706,-0.139 -0.992,0.028 l -3.049,1.781 c -0.285,0.167 -0.304,0.425 -0.041,0.576 l 3.268,1.887 c 0.262,0.152 0.706,0.139 0.992,-0.027 l 3.049,-1.781 c 0.285,-0.167 0.303,-0.425 0.041,-0.577 z"
   id="path108" />
						<path
   style="fill:#24126a"
   d="m 445.353,192.122 -3.268,-1.887 c -0.262,-0.152 -0.706,-0.139 -0.992,0.027 l -3.049,1.781 c -0.285,0.167 -0.304,0.425 -0.042,0.576 l 3.268,1.887 c 0.262,0.151 0.706,0.139 0.992,-0.028 l 3.049,-1.781 c 0.285,-0.166 0.304,-0.424 0.042,-0.575 z"
   id="path109" />
						<path
   style="fill:#24126a"
   d="m 387.737,164.231 -3.268,-1.887 c -0.262,-0.152 -0.706,-0.139 -0.992,0.027 l -3.049,1.781 c -0.285,0.167 -0.304,0.425 -0.041,0.576 l 3.268,1.887 c 0.262,0.152 0.706,0.139 0.992,-0.027 l 3.049,-1.781 c 0.285,-0.167 0.304,-0.425 0.041,-0.576 z"
   id="path110" />
						<path
   style="fill:#24126a"
   d="m 382.716,161.332 -3.268,-1.887 c -0.262,-0.152 -0.706,-0.139 -0.992,0.027 l -3.049,1.781 c -0.285,0.167 -0.304,0.425 -0.042,0.576 l 3.268,1.887 c 0.262,0.152 0.706,0.139 0.992,-0.027 l 3.049,-1.781 c 0.286,-0.167 0.304,-0.425 0.042,-0.576 z"
   id="path111" />
						<path
   style="fill:#24126a"
   d="m 377.694,158.432 -3.268,-1.887 c -0.262,-0.151 -0.706,-0.139 -0.992,0.027 l -3.049,1.781 c -0.285,0.167 -0.304,0.424 -0.042,0.576 l 3.268,1.887 c 0.262,0.151 0.706,0.139 0.992,-0.028 l 3.049,-1.781 c 0.286,-0.165 0.305,-0.423 0.042,-0.575 z"
   id="path112" />
						<path
   style="fill:#24126a"
   d="m 372.673,155.533 -3.268,-1.887 c -0.262,-0.152 -0.706,-0.139 -0.992,0.027 l -3.049,1.781 c -0.285,0.167 -0.304,0.425 -0.042,0.576 l 3.268,1.887 c 0.262,0.151 0.706,0.139 0.992,-0.028 l 3.049,-1.781 c 0.286,-0.165 0.304,-0.423 0.042,-0.575 z"
   id="path113" />
						<path
   style="fill:#24126a"
   d="m 367.811,158.374 -3.268,-1.887 c -0.262,-0.152 -0.706,-0.139 -0.992,0.027 l -1.008,0.589 c -0.285,0.167 -0.304,0.424 -0.041,0.576 l 3.268,1.887 c 0.262,0.151 0.706,0.139 0.992,-0.027 l 1.008,-0.589 c 0.284,-0.167 0.303,-0.425 0.041,-0.576 z"
   id="path114" />
						<path
   style="fill:#24126a"
   d="m 374.364,162.157 -3.268,-1.887 c -0.262,-0.152 -0.706,-0.139 -0.992,0.027 l -1.008,0.589 c -0.285,0.167 -0.304,0.425 -0.041,0.576 l 3.268,1.887 c 0.262,0.152 0.706,0.139 0.992,-0.027 l 1.008,-0.589 c 0.284,-0.166 0.303,-0.424 0.041,-0.576 z"
   id="path115" />
						<path
   style="fill:#24126a"
   d="m 379.364,165.044 -3.268,-1.887 c -0.262,-0.152 -0.706,-0.139 -0.992,0.027 l -1.008,0.589 c -0.285,0.167 -0.304,0.425 -0.041,0.576 l 3.268,1.887 c 0.262,0.152 0.706,0.139 0.992,-0.027 l 1.008,-0.589 c 0.285,-0.166 0.304,-0.424 0.041,-0.576 z"
   id="path116" />
						<path
   style="fill:#24126a"
   d="m 384.365,167.932 -3.268,-1.887 c -0.262,-0.152 -0.706,-0.139 -0.992,0.027 l -1.008,0.589 c -0.285,0.167 -0.304,0.425 -0.041,0.576 l 3.268,1.887 c 0.262,0.152 0.706,0.139 0.992,-0.027 l 1.008,-0.589 c 0.285,-0.167 0.303,-0.425 0.041,-0.576 z"
   id="path117" />
						<path
   style="fill:#24126a"
   d="m 389.366,170.819 -3.268,-1.887 c -0.262,-0.152 -0.706,-0.139 -0.992,0.027 l -1.008,0.589 c -0.285,0.167 -0.304,0.425 -0.041,0.576 l 3.268,1.887 c 0.262,0.152 0.706,0.139 0.992,-0.027 l 1.008,-0.589 c 0.284,-0.167 0.303,-0.425 0.041,-0.576 z"
   id="path118" />
						<path
   style="fill:#24126a"
   d="m 417.283,186.937 -3.268,-1.887 c -0.262,-0.151 -0.706,-0.139 -0.992,0.028 l -1.008,0.589 c -0.285,0.167 -0.304,0.425 -0.041,0.576 l 3.268,1.887 c 0.262,0.152 0.706,0.139 0.992,-0.027 l 1.008,-0.589 c 0.285,-0.168 0.304,-0.426 0.041,-0.577 z"
   id="path119" />
						<path
   style="fill:#24126a"
   d="m 422.284,189.824 -3.268,-1.887 c -0.262,-0.151 -0.706,-0.139 -0.992,0.028 l -1.008,0.589 c -0.285,0.167 -0.304,0.425 -0.042,0.576 l 3.268,1.887 c 0.262,0.152 0.706,0.139 0.992,-0.027 l 1.008,-0.589 c 0.285,-0.168 0.304,-0.426 0.042,-0.577 z"
   id="path120" />
						<path
   style="fill:#24126a"
   d="m 427.284,192.711 -3.268,-1.887 c -0.262,-0.151 -0.706,-0.139 -0.992,0.028 l -1.008,0.589 c -0.285,0.167 -0.304,0.425 -0.042,0.576 l 3.268,1.887 c 0.262,0.152 0.706,0.139 0.992,-0.027 l 1.008,-0.589 c 0.286,-0.168 0.305,-0.425 0.042,-0.577 z"
   id="path121" />
						<path
   style="fill:#24126a"
   d="m 432.285,195.598 -3.268,-1.887 c -0.262,-0.151 -0.706,-0.139 -0.992,0.028 l -1.008,0.589 c -0.285,0.167 -0.304,0.425 -0.042,0.576 l 3.268,1.887 c 0.262,0.152 0.706,0.139 0.992,-0.027 l 1.008,-0.589 c 0.286,-0.167 0.304,-0.425 0.042,-0.577 z"
   id="path122" />
						<path
   style="fill:#24126a"
   d="m 392.784,167.145 -3.268,-1.887 c -0.262,-0.152 -0.706,-0.139 -0.992,0.027 l -3.049,1.781 c -0.285,0.167 -0.304,0.425 -0.042,0.576 l 3.268,1.887 c 0.262,0.152 0.706,0.139 0.992,-0.027 l 3.049,-1.781 c 0.286,-0.167 0.304,-0.425 0.042,-0.576 z"
   id="path123" />
						<path
   style="fill:#24126a"
   d="m 397.831,170.058 -3.268,-1.887 c -0.262,-0.151 -0.706,-0.139 -0.992,0.027 l -3.049,1.781 c -0.285,0.167 -0.304,0.425 -0.042,0.576 l 3.268,1.887 c 0.262,0.152 0.706,0.139 0.992,-0.027 l 3.049,-1.781 c 0.285,-0.166 0.304,-0.424 0.042,-0.576 z"
   id="path124" />
						<path
   style="fill:#24126a"
   d="m 402.877,172.972 -3.268,-1.887 c -0.262,-0.152 -0.706,-0.139 -0.992,0.027 l -3.049,1.781 c -0.285,0.167 -0.304,0.424 -0.041,0.576 l 3.268,1.887 c 0.262,0.151 0.706,0.139 0.992,-0.028 l 3.049,-1.781 c 0.285,-0.166 0.303,-0.424 0.041,-0.575 z"
   id="path125" />
						<path
   style="fill:#24126a"
   d="m 407.924,175.885 -3.268,-1.887 c -0.262,-0.151 -0.706,-0.139 -0.992,0.028 l -3.049,1.781 c -0.285,0.167 -0.304,0.425 -0.042,0.576 l 3.268,1.887 c 0.262,0.152 0.706,0.139 0.992,-0.027 l 3.049,-1.781 c 0.286,-0.167 0.304,-0.425 0.042,-0.577 z"
   id="path126" />
						<path
   style="fill:#24126a"
   d="m 412.97,178.799 -3.268,-1.887 c -0.262,-0.152 -0.706,-0.139 -0.992,0.027 l -3.049,1.781 c -0.285,0.167 -0.304,0.425 -0.042,0.576 l 3.268,1.887 c 0.262,0.151 0.706,0.139 0.992,-0.028 l 3.049,-1.781 c 0.286,-0.165 0.305,-0.423 0.042,-0.575 z"
   id="path127" />
						<path
   style="fill:#24126a"
   d="m 418.017,181.713 -3.268,-1.887 c -0.262,-0.152 -0.706,-0.139 -0.992,0.027 l -3.049,1.781 c -0.285,0.167 -0.304,0.425 -0.041,0.576 l 3.268,1.887 c 0.262,0.152 0.706,0.139 0.992,-0.027 l 3.049,-1.781 c 0.285,-0.167 0.303,-0.425 0.041,-0.576 z"
   id="path128" />
						<path
   style="fill:#24126a"
   d="m 423.064,184.627 -3.268,-1.887 c -0.262,-0.151 -0.706,-0.139 -0.992,0.027 l -3.049,1.781 c -0.285,0.167 -0.304,0.424 -0.042,0.576 l 3.268,1.887 c 0.262,0.152 0.706,0.139 0.992,-0.027 l 3.049,-1.781 c 0.285,-0.167 0.304,-0.425 0.042,-0.576 z"
   id="path129" />
						<path
   style="fill:#24126a"
   d="m 428.11,187.54 -3.268,-1.887 c -0.262,-0.152 -0.706,-0.139 -0.992,0.027 l -3.049,1.781 c -0.285,0.167 -0.304,0.425 -0.041,0.576 l 3.268,1.887 c 0.262,0.152 0.706,0.139 0.992,-0.027 l 3.049,-1.781 c 0.285,-0.166 0.304,-0.424 0.041,-0.576 z"
   id="path130" />
						<path
   style="fill:#24126a"
   d="m 433.157,190.454 -3.268,-1.887 c -0.262,-0.152 -0.706,-0.139 -0.992,0.027 l -3.049,1.781 c -0.285,0.167 -0.304,0.425 -0.041,0.576 l 3.268,1.887 c 0.262,0.152 0.706,0.139 0.992,-0.027 l 3.049,-1.781 c 0.285,-0.167 0.303,-0.425 0.041,-0.576 z"
   id="path131" />
						<path
   style="fill:#24126a"
   d="m 392.546,150.888 -9.624,-5.557 c -0.262,-0.152 -0.706,-0.139 -0.992,0.027 l -3.049,1.781 c -0.285,0.167 -0.304,0.425 -0.042,0.576 l 9.624,5.557 c 0.262,0.152 0.706,0.139 0.992,-0.027 l 3.049,-1.781 c 0.286,-0.167 0.305,-0.424 0.042,-0.576 z"
   id="path132" />
						<path
   style="fill:#24126a"
   d="m 454.545,186.683 -9.624,-5.557 c -0.262,-0.152 -0.706,-0.139 -0.992,0.027 l -3.049,1.781 c -0.285,0.167 -0.304,0.424 -0.042,0.576 l 9.624,5.557 c 0.262,0.152 0.706,0.139 0.992,-0.027 l 3.049,-1.781 c 0.286,-0.166 0.305,-0.424 0.042,-0.576 z"
   id="path133" />
						<path
   style="fill:#24126a"
   d="m 445.185,175.183 -3.268,-1.887 c -0.262,-0.151 -0.706,-0.139 -0.992,0.027 l -3.632,2.122 c -0.285,0.167 -0.304,0.424 -0.041,0.576 l 3.268,1.887 c 0.262,0.151 0.706,0.139 0.992,-0.027 l 3.632,-2.122 c 0.285,-0.167 0.303,-0.425 0.041,-0.576 z"
   id="path134" />
						<path
   style="fill:#24126a"
   d="m 408.536,154.024 -5.226,-3.017 c -0.262,-0.152 -0.706,-0.139 -0.992,0.027 l -3.632,2.122 c -0.285,0.167 -0.304,0.425 -0.042,0.576 l 5.226,3.017 c 0.262,0.151 0.706,0.139 0.992,-0.028 l 3.632,-2.122 c 0.286,-0.166 0.305,-0.424 0.042,-0.575 z"
   id="path135" />
						<path
   style="fill:#24126a"
   d="m 440.323,172.376 -5.226,-3.017 c -0.262,-0.151 -0.706,-0.139 -0.992,0.028 l -3.632,2.122 c -0.285,0.167 -0.304,0.425 -0.041,0.576 l 5.226,3.017 c 0.262,0.152 0.706,0.139 0.992,-0.027 l 3.632,-2.122 c 0.284,-0.168 0.303,-0.426 0.041,-0.577 z"
   id="path136" />
						<path
   style="fill:#24126a"
   d="m 415.818,158.227 -5.226,-3.017 c -0.262,-0.152 -0.706,-0.139 -0.992,0.027 l -3.632,2.122 c -0.285,0.167 -0.304,0.425 -0.042,0.576 l 5.226,3.017 c 0.262,0.152 0.706,0.139 0.992,-0.027 l 3.632,-2.122 c 0.285,-0.166 0.304,-0.424 0.042,-0.576 z"
   id="path137" />
						<path
   style="fill:#24126a"
   d="m 405.961,157.956 22.723,13.119 c 0.282,0.163 0.726,0.169 0.991,0.014 l 3.704,-2.164 c 0.265,-0.155 0.252,-0.413 -0.03,-0.576 L 410.627,155.23 Z"
   id="path138" />
						<path
   style="fill:#24126a"
   d="m 454.48,183.259 3.64,2.102 c 0.215,0.124 0.579,0.114 0.813,-0.023 l 1.486,-0.868 c 0.234,-0.137 0.249,-0.348 0.034,-0.472 l -3.64,-2.102 c -0.215,-0.124 -0.579,-0.114 -0.813,0.022 l -1.486,0.868 c -0.234,0.137 -0.249,0.349 -0.034,0.473 z"
   id="path139" />
						<path
   style="fill:#24126a"
   d="m 449.391,180.321 3.64,2.102 c 0.215,0.124 0.579,0.114 0.813,-0.022 l 1.486,-0.868 c 0.234,-0.137 0.249,-0.348 0.034,-0.472 l -3.64,-2.102 c -0.215,-0.124 -0.579,-0.114 -0.813,0.023 l -1.486,0.868 c -0.234,0.135 -0.249,0.347 -0.034,0.471 z"
   id="path140" />
						<path
   style="fill:#24126a"
   d="m 444.345,177.407 3.64,2.102 c 0.215,0.124 0.579,0.114 0.813,-0.023 l 1.486,-0.868 c 0.234,-0.137 0.249,-0.348 0.034,-0.472 l -3.64,-2.102 c -0.215,-0.124 -0.579,-0.114 -0.813,0.022 l -1.486,0.868 c -0.234,0.138 -0.249,0.349 -0.034,0.473 z"
   id="path141" />
						<path
   style="fill:#24126a"
   d="m 446.767,181.854 3.64,2.102 c 0.215,0.124 0.579,0.114 0.813,-0.023 l 1.486,-0.868 c 0.234,-0.137 0.249,-0.348 0.034,-0.472 l -3.64,-2.102 c -0.215,-0.124 -0.579,-0.114 -0.813,0.023 l -1.486,0.868 c -0.234,0.136 -0.249,0.348 -0.034,0.472 z"
   id="path142" />
					</g>
				</g>
			</g>
		</g>
		<g
   style="opacity:0.8"
   id="g218">
			<path
   style="fill:#24126a"
   d="m 320.315,184.749 -3.236,-1.868 c -0.26,-0.15 -0.227,-0.412 0.073,-0.585 l 3.82,-2.206 c 0.3,-0.173 0.754,-0.192 1.014,-0.042 l 3.236,1.869 c 0.26,0.15 0.227,0.412 -0.073,0.585 l -3.82,2.205 c -0.3,0.173 -0.754,0.192 -1.014,0.042 z"
   id="path145" />
			<path
   style="fill:#24126a"
   d="m 325.313,187.635 -3.236,-1.868 c -0.26,-0.15 -0.227,-0.412 0.073,-0.585 l 3.82,-2.206 c 0.3,-0.173 0.754,-0.192 1.014,-0.042 l 3.236,1.868 c 0.26,0.15 0.227,0.412 -0.073,0.585 l -3.82,2.206 c -0.3,0.173 -0.754,0.192 -1.014,0.042 z"
   id="path146" />
			<path
   style="fill:#24126a"
   d="m 330.311,190.52 -3.236,-1.868 c -0.26,-0.15 -0.227,-0.412 0.073,-0.585 l 3.82,-2.205 c 0.3,-0.173 0.754,-0.192 1.014,-0.042 l 3.236,1.868 c 0.26,0.15 0.227,0.412 -0.073,0.585 l -3.82,2.206 c -0.3,0.172 -0.754,0.191 -1.014,0.041 z"
   id="path147" />
			<path
   style="fill:#24126a"
   d="m 337.224,188.137 -3.236,-1.869 c -0.26,-0.15 -0.227,-0.412 0.073,-0.585 l 3.207,-1.851 c 0.3,-0.173 0.754,-0.192 1.014,-0.042 l 3.236,1.868 c 0.26,0.15 0.227,0.412 -0.073,0.585 l -3.207,1.851 c -0.301,0.174 -0.755,0.193 -1.014,0.043 z"
   id="path148" />
			<path
   style="fill:#24126a"
   d="m 342.222,191.023 -3.237,-1.869 c -0.26,-0.15 -0.227,-0.412 0.073,-0.585 l 3.207,-1.851 c 0.3,-0.173 0.754,-0.192 1.014,-0.042 l 3.236,1.868 c 0.26,0.15 0.227,0.412 -0.073,0.585 l -3.207,1.851 c -0.3,0.174 -0.754,0.193 -1.013,0.043 z"
   id="path149" />
			<path
   style="fill:#24126a"
   d="m 347.22,193.908 -3.236,-1.868 c -0.26,-0.15 -0.227,-0.412 0.073,-0.585 l 3.207,-1.851 c 0.3,-0.173 0.754,-0.192 1.014,-0.042 l 3.236,1.868 c 0.26,0.15 0.227,0.412 -0.073,0.585 l -3.207,1.851 c -0.301,0.174 -0.755,0.192 -1.014,0.042 z"
   id="path150" />
			<path
   style="fill:#24126a"
   d="m 352.217,196.794 -3.236,-1.868 c -0.26,-0.15 -0.227,-0.412 0.073,-0.585 l 3.207,-1.851 c 0.3,-0.173 0.754,-0.192 1.014,-0.042 l 3.236,1.869 c 0.26,0.15 0.227,0.412 -0.073,0.585 l -3.207,1.851 c -0.3,0.172 -0.754,0.191 -1.014,0.041 z"
   id="path151" />
			<path
   style="fill:#24126a"
   d="m 357.215,199.679 -3.236,-1.868 c -0.26,-0.15 -0.227,-0.412 0.073,-0.585 l 3.207,-1.851 c 0.3,-0.173 0.754,-0.192 1.014,-0.042 l 3.237,1.869 c 0.26,0.15 0.227,0.412 -0.073,0.585 l -3.207,1.851 c -0.301,0.173 -0.755,0.191 -1.015,0.041 z"
   id="path152" />
			<path
   style="fill:#24126a"
   d="m 362.214,202.565 -3.236,-1.868 c -0.26,-0.15 -0.227,-0.412 0.073,-0.585 l 3.207,-1.852 c 0.3,-0.173 0.754,-0.192 1.014,-0.042 l 3.236,1.869 c 0.26,0.15 0.227,0.412 -0.073,0.585 l -3.207,1.851 c -0.301,0.173 -0.755,0.192 -1.014,0.042 z"
   id="path153" />
			<path
   style="fill:#24126a"
   d="m 367.211,205.451 -3.236,-1.868 c -0.26,-0.15 -0.227,-0.412 0.073,-0.585 l 3.207,-1.851 c 0.3,-0.173 0.754,-0.192 1.014,-0.042 l 3.236,1.868 c 0.26,0.15 0.227,0.412 -0.073,0.585 l -3.207,1.851 c -0.3,0.173 -0.754,0.192 -1.014,0.042 z"
   id="path154" />
			<path
   style="fill:#24126a"
   d="m 372.21,208.336 -3.236,-1.868 c -0.26,-0.15 -0.227,-0.412 0.073,-0.585 l 3.207,-1.851 c 0.3,-0.173 0.754,-0.192 1.014,-0.042 l 3.236,1.868 c 0.26,0.15 0.227,0.412 -0.073,0.585 l -3.207,1.851 c -0.301,0.173 -0.755,0.192 -1.014,0.042 z"
   id="path155" />
			<path
   style="fill:#24126a"
   d="m 377.207,211.222 -3.236,-1.869 c -0.26,-0.15 -0.227,-0.412 0.073,-0.585 l 3.207,-1.851 c 0.3,-0.173 0.754,-0.192 1.014,-0.042 l 3.236,1.868 c 0.26,0.15 0.227,0.412 -0.073,0.585 l -3.207,1.852 c -0.3,0.173 -0.754,0.192 -1.014,0.042 z"
   id="path156" />
			<path
   style="fill:#24126a"
   d="m 382.206,214.107 -3.236,-1.869 c -0.26,-0.15 -0.227,-0.412 0.073,-0.585 l 3.207,-1.851 c 0.3,-0.173 0.754,-0.192 1.014,-0.042 l 3.236,1.868 c 0.26,0.15 0.227,0.412 -0.073,0.585 l -3.207,1.852 c -0.301,0.174 -0.755,0.192 -1.014,0.042 z"
   id="path157" />
			<path
   style="fill:#24126a"
   d="m 344.588,186.771 -3.236,-1.868 c -0.26,-0.15 -0.227,-0.412 0.073,-0.585 l 3.207,-1.851 c 0.3,-0.173 0.754,-0.192 1.014,-0.042 l 3.236,1.869 c 0.26,0.15 0.227,0.412 -0.073,0.585 l -3.207,1.851 c -0.3,0.172 -0.754,0.191 -1.014,0.041 z"
   id="path158" />
			<path
   style="fill:#24126a"
   d="m 339.515,183.842 -3.236,-1.869 c -0.26,-0.15 -0.227,-0.412 0.073,-0.585 l 3.207,-1.851 c 0.3,-0.173 0.754,-0.192 1.014,-0.042 l 3.236,1.868 c 0.26,0.15 0.227,0.412 -0.073,0.585 l -3.207,1.851 c -0.3,0.174 -0.754,0.193 -1.014,0.043 z"
   id="path159" />
			<path
   style="fill:#24126a"
   d="m 334.434,180.909 -6.97,-4.024 c -0.26,-0.15 -0.227,-0.412 0.073,-0.585 l 3.207,-1.851 c 0.3,-0.173 0.754,-0.192 1.014,-0.042 l 6.97,4.024 c 0.26,0.15 0.227,0.412 -0.073,0.585 l -3.207,1.851 c -0.3,0.173 -0.754,0.192 -1.014,0.042 z"
   id="path160" />
			<path
   style="fill:#24126a"
   d="m 337.986,177.341 -5.657,-3.266 c -0.26,-0.15 -0.227,-0.412 0.073,-0.585 l 3.207,-1.851 c 0.3,-0.173 0.754,-0.192 1.014,-0.042 l 5.657,3.266 c 0.26,0.15 0.227,0.412 -0.073,0.585 L 339,177.299 c -0.3,0.174 -0.754,0.192 -1.014,0.042 z"
   id="path161" />
			<path
   style="fill:#24126a"
   d="m 349.586,189.656 -3.236,-1.868 c -0.26,-0.15 -0.227,-0.412 0.073,-0.585 l 3.207,-1.852 c 0.3,-0.173 0.754,-0.192 1.014,-0.042 l 3.236,1.869 c 0.26,0.15 0.227,0.412 -0.073,0.585 l -3.207,1.851 c -0.301,0.174 -0.754,0.193 -1.014,0.042 z"
   id="path162" />
			<path
   style="fill:#24126a"
   d="m 354.584,192.542 -3.236,-1.868 c -0.26,-0.15 -0.227,-0.412 0.073,-0.585 l 3.207,-1.851 c 0.3,-0.173 0.754,-0.192 1.014,-0.042 l 3.236,1.868 c 0.26,0.15 0.227,0.412 -0.073,0.585 l -3.207,1.851 c -0.301,0.173 -0.754,0.192 -1.014,0.042 z"
   id="path163" />
			<path
   style="fill:#24126a"
   d="m 359.582,195.428 -3.236,-1.868 c -0.26,-0.15 -0.227,-0.412 0.073,-0.585 l 3.207,-1.851 c 0.3,-0.173 0.754,-0.192 1.014,-0.042 l 3.236,1.868 c 0.26,0.15 0.227,0.412 -0.073,0.585 l -3.207,1.851 c -0.3,0.173 -0.754,0.192 -1.014,0.042 z"
   id="path164" />
			<path
   style="fill:#24126a"
   d="m 364.58,198.313 -3.236,-1.869 c -0.26,-0.15 -0.227,-0.412 0.073,-0.585 l 3.207,-1.851 c 0.3,-0.173 0.754,-0.192 1.014,-0.042 l 3.236,1.868 c 0.26,0.15 0.227,0.412 -0.073,0.585 l -3.207,1.852 c -0.301,0.174 -0.754,0.192 -1.014,0.042 z"
   id="path165" />
			<path
   style="fill:#24126a"
   d="m 369.578,201.199 -3.236,-1.869 c -0.26,-0.15 -0.227,-0.412 0.073,-0.585 l 3.207,-1.851 c 0.3,-0.173 0.754,-0.192 1.014,-0.042 l 3.236,1.868 c 0.26,0.15 0.227,0.412 -0.073,0.585 l -3.207,1.851 c -0.3,0.174 -0.754,0.193 -1.014,0.043 z"
   id="path166" />
			<path
   style="fill:#24126a"
   d="m 374.576,204.085 -3.236,-1.869 c -0.26,-0.15 -0.227,-0.412 0.073,-0.585 l 3.207,-1.851 c 0.3,-0.173 0.754,-0.192 1.014,-0.042 l 3.237,1.868 c 0.26,0.15 0.227,0.412 -0.073,0.585 l -3.207,1.851 c -0.302,0.174 -0.755,0.192 -1.015,0.043 z"
   id="path167" />
			<path
   style="fill:#24126a"
   d="m 379.574,206.97 -3.236,-1.869 c -0.26,-0.15 -0.227,-0.412 0.073,-0.585 l 3.207,-1.851 c 0.3,-0.173 0.754,-0.192 1.014,-0.042 l 3.236,1.868 c 0.26,0.15 0.227,0.412 -0.073,0.585 l -3.207,1.851 c -0.3,0.174 -0.754,0.193 -1.014,0.043 z"
   id="path168" />
			<path
   style="fill:#24126a"
   d="m 384.572,209.856 -3.236,-1.868 c -0.26,-0.15 -0.227,-0.412 0.073,-0.585 l 3.207,-1.851 c 0.3,-0.173 0.754,-0.192 1.014,-0.042 l 3.236,1.869 c 0.26,0.15 0.227,0.412 -0.073,0.585 l -3.207,1.851 c -0.301,0.172 -0.754,0.191 -1.014,0.041 z"
   id="path169" />
			<path
   style="fill:#24126a"
   d="m 389.57,212.741 -3.236,-1.868 c -0.26,-0.15 -0.227,-0.412 0.073,-0.585 l 3.207,-1.851 c 0.3,-0.173 0.754,-0.192 1.014,-0.042 l 3.236,1.869 c 0.26,0.15 0.227,0.412 -0.073,0.585 l -3.207,1.851 c -0.301,0.172 -0.755,0.191 -1.014,0.041 z"
   id="path170" />
			<path
   style="fill:#24126a"
   d="m 398.455,217.871 -7.062,-4.077 c -0.26,-0.15 -0.227,-0.412 0.073,-0.585 l 3.207,-1.851 c 0.3,-0.173 0.754,-0.192 1.014,-0.042 l 7.061,4.077 c 0.26,0.15 0.227,0.412 -0.073,0.585 l -3.207,1.851 c -0.299,0.173 -0.753,0.192 -1.013,0.042 z"
   id="path171" />
			<path
   style="fill:#24126a"
   d="m 408.185,212.253 -5.96,-3.441 c -0.26,-0.15 -0.227,-0.412 0.073,-0.585 l 3.207,-1.851 c 0.3,-0.173 0.754,-0.192 1.014,-0.042 l 5.96,3.441 c 0.26,0.15 0.227,0.412 -0.073,0.585 l -3.207,1.852 c -0.3,0.173 -0.754,0.191 -1.014,0.041 z"
   id="path172" />
			<path
   style="fill:#24126a"
   d="m 358.338,189.092 -3.236,-1.868 c -0.26,-0.15 -0.227,-0.412 0.073,-0.585 l 3.207,-1.852 c 0.3,-0.173 0.754,-0.192 1.014,-0.042 l 3.236,1.869 c 0.26,0.15 0.227,0.412 -0.073,0.585 l -3.207,1.851 c -0.3,0.173 -0.754,0.192 -1.014,0.042 z"
   id="path173" />
			<path
   style="fill:#24126a"
   d="m 353.216,186.135 -3.236,-1.869 c -0.26,-0.15 -0.227,-0.412 0.073,-0.585 l 3.207,-1.851 c 0.3,-0.173 0.754,-0.192 1.014,-0.042 l 3.237,1.869 c 0.26,0.15 0.227,0.412 -0.073,0.585 l -3.207,1.851 c -0.301,0.173 -0.755,0.192 -1.015,0.042 z"
   id="path174" />
			<path
   style="fill:#24126a"
   d="m 348.094,183.177 -3.236,-1.869 c -0.26,-0.15 -0.227,-0.412 0.073,-0.585 l 3.207,-1.851 c 0.3,-0.173 0.754,-0.192 1.014,-0.042 l 3.236,1.868 c 0.26,0.15 0.227,0.412 -0.073,0.585 l -3.207,1.851 c -0.301,0.174 -0.754,0.193 -1.014,0.043 z"
   id="path175" />
			<path
   style="fill:#24126a"
   d="m 342.971,180.22 -3.236,-1.868 c -0.26,-0.15 -0.227,-0.412 0.073,-0.585 l 3.207,-1.851 c 0.3,-0.173 0.754,-0.192 1.014,-0.042 l 3.236,1.869 c 0.26,0.15 0.227,0.412 -0.073,0.585 l -3.207,1.851 c -0.3,0.172 -0.754,0.191 -1.014,0.041 z"
   id="path176" />
			<path
   style="fill:#24126a"
   d="m 363.336,191.977 -3.236,-1.868 c -0.26,-0.15 -0.227,-0.412 0.073,-0.585 l 3.207,-1.851 c 0.3,-0.173 0.754,-0.192 1.014,-0.042 l 3.237,1.869 c 0.26,0.15 0.227,0.412 -0.073,0.585 l -3.207,1.851 c -0.301,0.173 -0.755,0.192 -1.015,0.041 z"
   id="path177" />
			<path
   style="fill:#24126a"
   d="m 368.334,194.863 -3.236,-1.868 c -0.26,-0.15 -0.227,-0.412 0.073,-0.585 l 3.207,-1.851 c 0.3,-0.173 0.754,-0.192 1.014,-0.042 l 3.236,1.868 c 0.26,0.15 0.227,0.412 -0.073,0.585 l -3.207,1.851 c -0.3,0.173 -0.754,0.192 -1.014,0.042 z"
   id="path178" />
			<path
   style="fill:#24126a"
   d="m 373.332,197.749 -3.236,-1.869 c -0.26,-0.15 -0.227,-0.412 0.073,-0.585 l 3.207,-1.851 c 0.3,-0.173 0.754,-0.192 1.014,-0.042 l 3.236,1.868 c 0.26,0.15 0.227,0.412 -0.073,0.585 l -3.207,1.852 c -0.3,0.173 -0.754,0.192 -1.014,0.042 z"
   id="path179" />
			<path
   style="fill:#24126a"
   d="m 378.33,200.634 -3.236,-1.869 c -0.26,-0.15 -0.227,-0.412 0.073,-0.585 l 3.207,-1.851 c 0.3,-0.173 0.754,-0.192 1.014,-0.042 l 3.236,1.868 c 0.26,0.15 0.227,0.412 -0.073,0.585 l -3.207,1.852 c -0.3,0.174 -0.754,0.192 -1.014,0.042 z"
   id="path180" />
			<path
   style="fill:#24126a"
   d="m 383.328,203.52 -3.236,-1.869 c -0.26,-0.15 -0.227,-0.412 0.073,-0.585 l 3.207,-1.851 c 0.3,-0.173 0.754,-0.192 1.014,-0.042 l 3.236,1.868 c 0.26,0.15 0.227,0.412 -0.073,0.585 l -3.207,1.851 c -0.3,0.174 -0.754,0.193 -1.014,0.043 z"
   id="path181" />
			<path
   style="fill:#24126a"
   d="m 388.326,206.406 -3.236,-1.869 c -0.26,-0.15 -0.227,-0.412 0.073,-0.585 l 3.207,-1.851 c 0.3,-0.173 0.754,-0.192 1.014,-0.042 l 3.236,1.868 c 0.26,0.15 0.227,0.412 -0.073,0.585 l -3.207,1.851 c -0.3,0.174 -0.754,0.192 -1.014,0.043 z"
   id="path182" />
			<path
   style="fill:#24126a"
   d="m 393.324,209.291 -3.236,-1.868 c -0.26,-0.15 -0.227,-0.412 0.073,-0.585 l 3.207,-1.851 c 0.3,-0.173 0.754,-0.192 1.014,-0.042 l 3.236,1.869 c 0.26,0.15 0.227,0.412 -0.073,0.585 l -3.207,1.851 c -0.3,0.172 -0.754,0.191 -1.014,0.041 z"
   id="path183" />
			<path
   style="fill:#24126a"
   d="m 398.322,212.177 -3.236,-1.868 c -0.26,-0.15 -0.227,-0.412 0.073,-0.585 l 3.207,-1.851 c 0.3,-0.173 0.754,-0.192 1.014,-0.042 l 3.236,1.869 c 0.26,0.15 0.227,0.412 -0.073,0.585 l -3.207,1.851 c -0.3,0.172 -0.754,0.191 -1.014,0.041 z"
   id="path184" />
			<path
   style="fill:#24126a"
   d="m 403.32,215.062 -3.236,-1.868 c -0.26,-0.15 -0.227,-0.412 0.073,-0.585 l 3.207,-1.851 c 0.3,-0.173 0.754,-0.192 1.014,-0.042 l 3.237,1.869 c 0.26,0.15 0.227,0.412 -0.073,0.585 l -3.207,1.851 c -0.301,0.172 -0.755,0.191 -1.015,0.041 z"
   id="path185" />
			<path
   style="fill:#24126a"
   d="m 355.707,181.955 -3.236,-1.868 c -0.26,-0.15 -0.227,-0.412 0.073,-0.585 l 3.207,-1.851 c 0.3,-0.173 0.754,-0.192 1.014,-0.042 l 3.236,1.868 c 0.26,0.15 0.227,0.412 -0.073,0.585 l -3.207,1.851 c -0.301,0.173 -0.755,0.192 -1.014,0.042 z"
   id="path186" />
			<path
   style="fill:#24126a"
   d="m 350.733,179.083 -3.236,-1.869 c -0.26,-0.15 -0.227,-0.412 0.073,-0.585 l 3.207,-1.851 c 0.3,-0.173 0.754,-0.192 1.014,-0.042 l 3.236,1.868 c 0.26,0.15 0.227,0.412 -0.073,0.585 l -3.207,1.851 c -0.3,0.175 -0.754,0.193 -1.014,0.043 z"
   id="path187" />
			<path
   style="fill:#24126a"
   d="m 345.76,176.212 -3.236,-1.868 c -0.26,-0.15 -0.227,-0.412 0.073,-0.585 l 3.207,-1.851 c 0.3,-0.173 0.754,-0.192 1.014,-0.042 l 3.236,1.869 c 0.26,0.15 0.227,0.412 -0.073,0.585 l -3.207,1.851 c -0.3,0.172 -0.754,0.191 -1.014,0.041 z"
   id="path188" />
			<path
   style="fill:#24126a"
   d="m 340.787,173.341 -3.236,-1.868 c -0.26,-0.15 -0.227,-0.412 0.073,-0.585 l 3.207,-1.851 c 0.3,-0.173 0.754,-0.192 1.014,-0.042 l 3.236,1.868 c 0.26,0.15 0.227,0.412 -0.073,0.585 l -3.207,1.851 c -0.3,0.173 -0.754,0.192 -1.014,0.042 z"
   id="path189" />
			<path
   style="fill:#24126a"
   d="m 345.901,170.388 -3.236,-1.868 c -0.26,-0.15 -0.227,-0.412 0.073,-0.585 l 1.06,-0.612 c 0.3,-0.173 0.754,-0.192 1.014,-0.042 l 3.236,1.868 c 0.26,0.15 0.227,0.412 -0.073,0.585 l -1.06,0.612 c -0.3,0.174 -0.754,0.192 -1.014,0.042 z"
   id="path190" />
			<path
   style="fill:#24126a"
   d="m 352.391,174.135 -3.236,-1.869 c -0.26,-0.15 -0.227,-0.412 0.073,-0.585 l 1.06,-0.612 c 0.3,-0.173 0.754,-0.192 1.014,-0.042 l 3.236,1.869 c 0.26,0.15 0.227,0.412 -0.073,0.585 l -1.06,0.612 c -0.3,0.174 -0.754,0.192 -1.014,0.042 z"
   id="path191" />
			<path
   style="fill:#24126a"
   d="m 357.343,176.995 -3.236,-1.868 c -0.26,-0.15 -0.227,-0.412 0.073,-0.585 l 1.06,-0.612 c 0.3,-0.173 0.754,-0.192 1.014,-0.042 l 3.236,1.868 c 0.26,0.15 0.227,0.412 -0.073,0.585 l -1.06,0.612 c -0.3,0.173 -0.754,0.192 -1.014,0.042 z"
   id="path192" />
			<path
   style="fill:#24126a"
   d="m 362.296,179.854 -3.236,-1.868 c -0.26,-0.15 -0.227,-0.412 0.073,-0.585 l 1.06,-0.612 c 0.3,-0.173 0.754,-0.192 1.014,-0.042 l 3.236,1.868 c 0.26,0.15 0.227,0.412 -0.073,0.585 l -1.06,0.612 c -0.3,0.173 -0.754,0.192 -1.014,0.042 z"
   id="path193" />
			<path
   style="fill:#24126a"
   d="m 367.248,182.713 -3.236,-1.869 c -0.26,-0.15 -0.227,-0.412 0.073,-0.585 l 1.06,-0.612 c 0.3,-0.173 0.754,-0.192 1.014,-0.042 l 3.236,1.869 c 0.26,0.15 0.227,0.412 -0.073,0.585 l -1.06,0.612 c -0.3,0.173 -0.754,0.192 -1.014,0.042 z"
   id="path194" />
			<path
   style="fill:#24126a"
   d="m 394.897,198.676 -3.236,-1.868 c -0.26,-0.15 -0.227,-0.412 0.073,-0.585 l 1.06,-0.612 c 0.3,-0.173 0.754,-0.192 1.014,-0.042 l 3.236,1.868 c 0.26,0.15 0.227,0.412 -0.073,0.585 l -1.06,0.612 c -0.3,0.173 -0.754,0.192 -1.014,0.042 z"
   id="path195" />
			<path
   style="fill:#24126a"
   d="m 399.849,201.535 -3.236,-1.868 c -0.26,-0.15 -0.227,-0.412 0.073,-0.585 l 1.06,-0.612 c 0.3,-0.173 0.754,-0.192 1.014,-0.042 l 3.236,1.868 c 0.26,0.15 0.227,0.412 -0.073,0.585 l -1.06,0.612 c -0.3,0.174 -0.754,0.192 -1.014,0.042 z"
   id="path196" />
			<path
   style="fill:#24126a"
   d="m 404.801,204.395 -3.236,-1.869 c -0.26,-0.15 -0.227,-0.412 0.073,-0.585 l 1.06,-0.612 c 0.3,-0.173 0.754,-0.192 1.014,-0.042 l 3.236,1.869 c 0.26,0.15 0.227,0.412 -0.073,0.585 l -1.06,0.612 c -0.3,0.173 -0.754,0.192 -1.014,0.042 z"
   id="path197" />
			<path
   style="fill:#24126a"
   d="m 409.754,207.254 -3.236,-1.868 c -0.26,-0.15 -0.227,-0.412 0.073,-0.585 l 1.06,-0.612 c 0.3,-0.173 0.754,-0.192 1.014,-0.042 l 3.236,1.869 c 0.26,0.15 0.227,0.412 -0.073,0.585 l -1.06,0.612 c -0.3,0.172 -0.754,0.191 -1.014,0.041 z"
   id="path198" />
			<path
   style="fill:#24126a"
   d="m 360.705,184.84 -3.236,-1.869 c -0.26,-0.15 -0.227,-0.412 0.073,-0.585 l 3.207,-1.851 c 0.3,-0.173 0.754,-0.192 1.014,-0.042 l 3.236,1.868 c 0.26,0.15 0.227,0.412 -0.073,0.585 l -3.207,1.852 c -0.301,0.173 -0.755,0.192 -1.014,0.042 z"
   id="path199" />
			<path
   style="fill:#24126a"
   d="m 365.703,187.726 -3.237,-1.869 c -0.26,-0.15 -0.227,-0.412 0.073,-0.585 l 3.207,-1.851 c 0.3,-0.173 0.754,-0.192 1.014,-0.042 l 3.236,1.868 c 0.26,0.15 0.227,0.412 -0.073,0.585 l -3.207,1.852 c -0.3,0.173 -0.754,0.192 -1.013,0.042 z"
   id="path200" />
			<path
   style="fill:#24126a"
   d="m 370.701,190.611 -3.236,-1.869 c -0.26,-0.15 -0.227,-0.412 0.073,-0.585 l 3.207,-1.851 c 0.3,-0.173 0.754,-0.192 1.014,-0.042 l 3.236,1.868 c 0.26,0.15 0.227,0.412 -0.073,0.585 l -3.207,1.851 c -0.301,0.175 -0.755,0.193 -1.014,0.043 z"
   id="path201" />
			<path
   style="fill:#24126a"
   d="m 375.698,193.497 -3.236,-1.869 c -0.26,-0.15 -0.227,-0.412 0.073,-0.585 l 3.207,-1.851 c 0.3,-0.173 0.754,-0.192 1.014,-0.042 l 3.236,1.868 c 0.26,0.15 0.227,0.412 -0.073,0.585 l -3.207,1.851 c -0.3,0.174 -0.754,0.193 -1.014,0.043 z"
   id="path202" />
			<path
   style="fill:#24126a"
   d="m 380.697,196.383 -3.236,-1.868 c -0.26,-0.15 -0.227,-0.412 0.073,-0.585 l 3.207,-1.851 c 0.3,-0.173 0.754,-0.192 1.014,-0.042 l 3.237,1.869 c 0.26,0.15 0.227,0.412 -0.073,0.585 l -3.207,1.851 c -0.302,0.172 -0.756,0.191 -1.015,0.041 z"
   id="path203" />
			<path
   style="fill:#24126a"
   d="m 385.694,199.268 -3.236,-1.868 c -0.26,-0.15 -0.227,-0.412 0.073,-0.585 l 3.207,-1.851 c 0.3,-0.173 0.754,-0.192 1.014,-0.042 l 3.236,1.869 c 0.26,0.15 0.227,0.412 -0.073,0.585 l -3.207,1.851 c -0.3,0.172 -0.754,0.191 -1.014,0.041 z"
   id="path204" />
			<path
   style="fill:#24126a"
   d="m 390.693,202.154 -3.236,-1.868 c -0.26,-0.15 -0.227,-0.412 0.073,-0.585 l 3.207,-1.852 c 0.3,-0.173 0.754,-0.192 1.014,-0.042 l 3.236,1.869 c 0.26,0.15 0.227,0.412 -0.073,0.585 l -3.207,1.851 c -0.301,0.173 -0.755,0.192 -1.014,0.042 z"
   id="path205" />
			<path
   style="fill:#24126a"
   d="m 395.69,205.039 -3.236,-1.868 c -0.26,-0.15 -0.227,-0.412 0.073,-0.585 l 3.207,-1.852 c 0.3,-0.173 0.754,-0.192 1.014,-0.042 l 3.236,1.869 c 0.26,0.15 0.227,0.412 -0.073,0.585 l -3.207,1.851 c -0.3,0.174 -0.754,0.192 -1.014,0.042 z"
   id="path206" />
			<path
   style="fill:#24126a"
   d="m 400.689,207.925 -3.236,-1.868 c -0.26,-0.15 -0.227,-0.412 0.073,-0.585 l 3.207,-1.851 c 0.3,-0.173 0.754,-0.192 1.014,-0.042 l 3.236,1.868 c 0.26,0.15 0.227,0.412 -0.073,0.585 l -3.207,1.851 c -0.301,0.173 -0.755,0.192 -1.014,0.042 z"
   id="path207" />
			<path
   style="fill:#24126a"
   d="m 332.13,185.196 -9.532,-5.503 c -0.26,-0.15 -0.227,-0.412 0.073,-0.585 l 3.207,-1.851 c 0.3,-0.173 0.754,-0.192 1.014,-0.042 l 9.532,5.503 c 0.26,0.15 0.227,0.412 -0.073,0.585 l -3.207,1.851 c -0.3,0.174 -0.754,0.192 -1.014,0.042 z"
   id="path208" />
			<path
   style="fill:#24126a"
   d="M 393.532,220.647 384,215.144 c -0.26,-0.15 -0.227,-0.412 0.073,-0.585 l 3.207,-1.851 c 0.3,-0.173 0.754,-0.192 1.014,-0.042 l 9.532,5.503 c 0.26,0.15 0.227,0.412 -0.073,0.585 l -3.207,1.851 c -0.301,0.173 -0.754,0.192 -1.014,0.042 z"
   id="path209" />
			<path
   style="fill:#24126a"
   d="m 373.544,215.481 -3.236,-1.869 c -0.26,-0.15 -0.227,-0.412 0.073,-0.585 l 3.82,-2.205 c 0.3,-0.173 0.754,-0.192 1.014,-0.042 l 3.236,1.868 c 0.26,0.15 0.227,0.412 -0.073,0.585 l -3.82,2.206 c -0.3,0.173 -0.754,0.192 -1.014,0.042 z"
   id="path210" />
			<path
   style="fill:#24126a"
   d="m 337.249,194.525 -5.176,-2.988 c -0.26,-0.15 -0.227,-0.412 0.073,-0.585 l 3.82,-2.205 c 0.3,-0.173 0.754,-0.192 1.014,-0.042 l 5.176,2.988 c 0.26,0.15 0.227,0.412 -0.073,0.585 l -3.82,2.206 c -0.301,0.173 -0.755,0.192 -1.014,0.041 z"
   id="path211" />
			<path
   style="fill:#24126a"
   d="m 368.728,212.7 -5.176,-2.988 c -0.26,-0.15 -0.227,-0.412 0.073,-0.585 l 3.82,-2.205 c 0.3,-0.173 0.754,-0.192 1.014,-0.042 l 5.176,2.988 c 0.26,0.15 0.227,0.412 -0.073,0.585 l -3.82,2.206 c -0.3,0.173 -0.754,0.191 -1.014,0.041 z"
   id="path212" />
			<path
   style="fill:#24126a"
   d="m 344.46,198.689 -5.176,-2.988 c -0.26,-0.15 -0.227,-0.412 0.073,-0.585 l 3.82,-2.205 c 0.3,-0.173 0.754,-0.192 1.014,-0.042 l 5.176,2.988 c 0.26,0.15 0.227,0.412 -0.073,0.585 l -3.82,2.206 c -0.301,0.172 -0.754,0.191 -1.014,0.041 z"
   id="path213" />
			<path
   style="fill:#24126a"
   d="m 344.225,192.888 22.503,12.992 c 0.279,0.161 0.279,0.423 0,0.584 l -3.896,2.249 c -0.279,0.161 -0.732,0.161 -1.011,0 l -22.503,-12.992 z"
   id="path214" />
			<path
   style="fill:#24126a"
   d="m 387.513,220.713 3.605,2.081 c 0.213,0.123 0.186,0.338 -0.06,0.48 l -1.563,0.902 c -0.246,0.142 -0.618,0.157 -0.831,0.035 l -3.605,-2.081 c -0.213,-0.123 -0.186,-0.338 0.06,-0.48 l 1.563,-0.902 c 0.246,-0.143 0.618,-0.158 0.831,-0.035 z"
   id="path215" />
			<path
   style="fill:#24126a"
   d="m 382.473,217.803 3.605,2.081 c 0.213,0.123 0.186,0.338 -0.06,0.48 l -1.563,0.902 c -0.246,0.142 -0.618,0.157 -0.831,0.035 l -3.605,-2.081 c -0.213,-0.123 -0.186,-0.338 0.06,-0.48 l 1.563,-0.902 c 0.246,-0.143 0.618,-0.158 0.831,-0.035 z"
   id="path216" />
			<path
   style="fill:#24126a"
   d="m 377.475,214.917 3.605,2.081 c 0.213,0.123 0.186,0.338 -0.06,0.48 l -1.563,0.902 c -0.246,0.142 -0.618,0.157 -0.831,0.035 l -3.605,-2.081 c -0.213,-0.123 -0.186,-0.338 0.06,-0.48 l 1.563,-0.902 c 0.246,-0.142 0.618,-0.158 0.831,-0.035 z"
   id="path217" />
			<path
   style="fill:#24126a"
   d="m 385.233,216.21 3.605,2.081 c 0.213,0.123 0.186,0.338 -0.06,0.48 l -1.563,0.902 c -0.246,0.142 -0.618,0.157 -0.831,0.035 l -3.605,-2.081 c -0.213,-0.123 -0.186,-0.338 0.06,-0.48 l 1.563,-0.902 c 0.246,-0.143 0.618,-0.158 0.831,-0.035 z"
   id="path218" />
		</g>
	</g>
	<g
   id="g221">
		<path
   style="fill:#42e8e0"
   d="m 436.222,138.447 c -0.246,0 -0.505,-0.073 -0.754,-0.217 -0.766,-0.441 -1.239,-1.442 -1.057,-2.23 0.088,-0.38 0.313,-0.666 0.633,-0.805 0.355,-0.153 0.792,-0.109 1.2,0.127 0.765,0.441 1.238,1.441 1.057,2.229 v 0 c -0.088,0.38 -0.313,0.666 -0.635,0.805 -0.137,0.061 -0.287,0.091 -0.444,0.091 z m -0.731,-2.995 c -0.109,0 -0.213,0.021 -0.308,0.062 -0.218,0.094 -0.371,0.295 -0.434,0.565 -0.151,0.65 0.249,1.48 0.893,1.852 0.309,0.179 0.635,0.22 0.887,0.109 0.218,-0.094 0.372,-0.295 0.435,-0.565 0.15,-0.65 -0.25,-1.481 -0.893,-1.852 -0.195,-0.114 -0.395,-0.171 -0.58,-0.171 z"
   id="path219" />
		<path
   style="fill:#42e8e0"
   d="m 440.342,140.826 c -0.245,0 -0.505,-0.073 -0.754,-0.217 -0.765,-0.442 -1.238,-1.442 -1.056,-2.23 0.088,-0.379 0.313,-0.665 0.633,-0.805 0.354,-0.153 0.792,-0.109 1.2,0.127 0.764,0.442 1.238,1.442 1.057,2.23 v 0 c -0.088,0.38 -0.314,0.665 -0.635,0.805 -0.137,0.06 -0.288,0.09 -0.445,0.09 z m -0.73,-2.995 c -0.109,0 -0.214,0.02 -0.308,0.061 -0.218,0.095 -0.371,0.295 -0.434,0.566 -0.15,0.65 0.249,1.48 0.892,1.852 0.312,0.179 0.634,0.219 0.888,0.109 0.218,-0.095 0.372,-0.295 0.435,-0.565 v 0 c 0.149,-0.65 -0.251,-1.48 -0.893,-1.852 -0.195,-0.113 -0.395,-0.171 -0.58,-0.171 z"
   id="path220" />
		<path
   style="fill:#42e8e0"
   d="m 445.374,142.271 c -0.167,0.72 -0.873,0.974 -1.577,0.567 -0.705,-0.407 -1.141,-1.32 -0.974,-2.041 0.166,-0.72 0.873,-0.974 1.577,-0.567 0.704,0.407 1.141,1.321 0.974,2.041 z"
   id="path221" />
	</g>
	<polygon
   style="fill:#42e8e0"
   points="364.325,94.508 366.529,95.78 366.358,96.799 364.154,95.527 "
   id="polygon221" />
	<polygon
   style="fill:#42e8e0"
   points="367.529,96.358 369.733,97.63 369.562,98.649 367.358,97.377 "
   id="polygon222" />
	<polygon
   style="fill:#42e8e0"
   points="358.525,91.159 363.358,93.95 363.187,94.969 358.354,92.178 "
   id="polygon223" />
</g>

<g
   id="g381"
   transform="translate(-185.52692,1.3233207)">
	<g
   id="g373">
		<path
   style="fill:#42e8e0"
   d="m 479.414,286.109 c -1.351,0 -2.7,-0.297 -3.728,-0.89 l -19.78,-11.421 c -1.027,-0.593 -1.593,-1.394 -1.593,-2.253 0,-0.859 0.565,-1.66 1.593,-2.253 l 19.78,-11.42 c 2.056,-1.186 5.399,-1.186 7.457,0 l 19.78,11.421 c 1.026,0.593 1.592,1.393 1.592,2.252 0.001,0.86 -0.565,1.66 -1.592,2.254 l -19.78,11.42 c -1.029,0.594 -2.379,0.89 -3.729,0.89 z m -3.555,-1.19 c 1.959,1.133 5.15,1.133 7.109,0 l 19.78,-11.42 c 0.916,-0.528 1.42,-1.223 1.42,-1.953 -0.001,-0.73 -0.505,-1.423 -1.42,-1.951 l -19.78,-11.421 c -1.962,-1.134 -5.151,-1.132 -7.109,0 l -19.78,11.42 c -0.916,0.528 -1.42,1.222 -1.42,1.952 0,0.73 0.504,1.424 1.42,1.952 z"
   id="path350" />
		<g
   id="g372">
			<path
   style="opacity:0.4;fill:#42e8e0"
   d="m 505.132,267.163 v -6.773 l -1.24,-0.689 c -0.35,2.115 -2.84,3.509 -4.921,3.798 l -14.174,8.288 -6.186,2.234 -19.744,-10.189 0.456,-0.263 c -1.688,-0.788 -2.596,-2.591 -3.509,-4.236 l -1.329,0.793 -0.79,0.222 v 6.888 0 c 0,0.878 0.579,1.756 1.737,2.425 l 19.781,11.421 c 2.316,1.337 6.085,1.337 8.401,0 l 19.78,-11.42 c 1.139,-0.658 1.718,-1.518 1.737,-2.382 0.001,-0.039 -10e-4,-0.077 -0.002,-0.116 z"
   id="path351" />
			<g
   id="g371">
				<g
   id="g370">
					
						<linearGradient
   id="SVGID_00000057125147950004467450000000725323485737079963_"
   gradientUnits="userSpaceOnUse"
   x1="458.81299"
   y1="247.75439"
   x2="499.6228"
   y2="271.31589"
   gradientTransform="translate(185.52692,-1.3233207)">
						<stop
   offset="0"
   style="stop-color:#BCBEFF"
   id="stop351" />
						<stop
   offset="0.2271"
   style="stop-color:#AAADF8"
   id="stop352" />
						<stop
   offset="0.6802"
   style="stop-color:#7C83E5"
   id="stop353" />
						<stop
   offset="1"
   style="stop-color:#5761D7"
   id="stop354" />
					</linearGradient>
					<path
   style="fill:url(#SVGID_00000057125147950004467450000000725323485737079963_)"
   d="m 505.132,261.142 v -4.482 l -1.24,-0.689 c -0.35,2.115 -2.84,3.509 -4.921,3.798 l -14.174,8.289 -6.186,2.234 -19.744,-10.189 0.456,-0.263 c -1.688,-0.788 -2.596,-2.591 -3.509,-4.236 l -1.329,0.793 -0.79,0.222 v 4.596 0 c 0,0.878 0.579,1.756 1.737,2.425 l 19.781,11.421 c 2.316,1.337 6.085,1.337 8.401,0 l 19.78,-11.42 c 1.139,-0.658 1.718,-1.518 1.737,-2.382 0.001,-0.039 -10e-4,-0.077 -0.002,-0.116 z"
   id="path354" />
					<path
   style="opacity:0.3;fill:#0f054c"
   d="m 498.971,259.77 -14.174,8.289 -5.384,1.944 v 6.06 c 1.521,0 3.043,-0.334 4.201,-1.003 l 19.78,-11.42 c 1.139,-0.658 1.718,-1.518 1.737,-2.382 0.001,-0.039 -10e-4,-0.077 -0.002,-0.116 l 0.003,10e-4 v -4.482 l -1.133,-0.63 h -0.118 c -0.387,2.081 -2.848,3.452 -4.91,3.739 z"
   id="path355" />
					
						<linearGradient
   id="SVGID_00000034072229343656138440000006683623828989469334_"
   gradientUnits="userSpaceOnUse"
   x1="461.26221"
   y1="246.1676"
   x2="497.65649"
   y2="267.1799"
   gradientTransform="translate(185.52692,-1.3233207)">
						<stop
   offset="0.2421"
   style="stop-color:#5761D7"
   id="stop355" />
						<stop
   offset="0.3923"
   style="stop-color:#7A82E5"
   id="stop356" />
						<stop
   offset="0.5463"
   style="stop-color:#979CF0"
   id="stop357" />
						<stop
   offset="0.7"
   style="stop-color:#ACAFF8"
   id="stop358" />
						<stop
   offset="0.8519"
   style="stop-color:#B8BAFD"
   id="stop359" />
						<stop
   offset="1"
   style="stop-color:#BCBEFF"
   id="stop360" />
					</linearGradient>
					<path
   style="fill:url(#SVGID_00000034072229343656138440000006683623828989469334_)"
   d="m 459.324,259.839 18.744,-10.822 c 0.742,-0.428 1.948,-0.428 2.69,0 l 18.417,10.633 -0.204,0.119 c 2.081,-0.29 4.571,-1.683 4.921,-3.798 l -20.669,-11.496 -6.014,-1.589 -4.897,2.878 -16.497,9.839 c 0.913,1.645 1.822,3.448 3.509,4.236 z"
   id="path360" />
					<path
   style="opacity:0.3;fill:#0f054c"
   d="m 479.414,243.469 -2.205,-0.583 -4.897,2.878 -16.497,9.839 c 0.913,1.645 1.822,3.448 3.509,4.236 l 18.744,-10.822 c 0.371,-0.214 0.858,-0.321 1.345,-0.321 v -5.227 z"
   id="path361" />
					<g
   id="g364">
						
							<linearGradient
   id="SVGID_00000120527422284906890320000010441008381422122394_"
   gradientUnits="userSpaceOnUse"
   x1="453.69589"
   y1="256.66061"
   x2="505.13159"
   y2="256.66061"
   gradientTransform="translate(185.52692,-1.3233207)">
							<stop
   offset="0"
   style="stop-color:#E9E9FD"
   id="stop361" />
							<stop
   offset="0.3601"
   style="stop-color:#D3D2F9"
   id="stop362" />
							<stop
   offset="0.7062"
   style="stop-color:#C5C4F7"
   id="stop363" />
							<stop
   offset="1"
   style="stop-color:#C0BFF6"
   id="stop364" />
						</linearGradient>
						<path
   style="fill:url(#SVGID_00000120527422284906890320000010441008381422122394_)"
   d="m 475.214,270.506 -19.781,-11.421 c -2.316,-1.337 -2.316,-3.513 0,-4.85 l 19.78,-11.42 c 2.316,-1.337 6.085,-1.337 8.401,0 l 19.781,11.42 c 2.316,1.337 2.316,3.513 0,4.85 l -19.78,11.42 c -2.317,1.338 -6.085,1.338 -8.401,10e-4 z m 5.544,-26.042 c -0.742,-0.428 -1.948,-0.428 -2.69,0 l -19.78,11.42 c -0.742,0.428 -0.742,1.125 0,1.553 l 19.781,11.421 c 0.742,0.428 1.948,0.428 2.69,0 l 19.78,-11.42 c 0.742,-0.428 0.742,-1.125 0,-1.553 z"
   id="path364" />
					</g>
					<g
   id="g366">
						<path
   style="fill:#ffffff"
   d="m 500.539,255.884 -19.781,-11.42 c -0.742,-0.428 -1.948,-0.428 -2.69,0 l -19.78,11.42 c -0.495,0.286 -0.658,0.691 -0.492,1.056 0.083,-0.182 0.245,-0.355 0.492,-0.497 l 19.78,-11.42 c 0.742,-0.428 1.948,-0.428 2.69,0 l 19.781,11.42 c 0.247,0.143 0.41,0.315 0.492,0.497 0.166,-0.365 0.003,-0.77 -0.492,-1.056 z"
   id="path365" />
						<path
   style="fill:#ffffff"
   d="m 503.395,259.086 -19.78,11.42 c -2.316,1.337 -6.085,1.337 -8.401,0 l -19.781,-11.421 c -1.035,-0.598 -1.606,-1.363 -1.716,-2.146 -0.136,0.969 0.435,1.965 1.716,2.704 l 19.781,11.421 c 2.316,1.337 6.085,1.337 8.401,0 l 19.78,-11.42 c 1.281,-0.74 1.852,-1.735 1.716,-2.704 -0.11,0.783 -0.681,1.548 -1.716,2.146 z"
   id="path366" />
					</g>
					<g
   id="g369">
						
							<linearGradient
   id="SVGID_00000124872532119415669830000007559143858510065584_"
   gradientUnits="userSpaceOnUse"
   x1="454.4856"
   y1="256.66061"
   x2="504.3418"
   y2="256.66061"
   gradientTransform="translate(185.52692,-1.3233207)">
							<stop
   offset="0"
   style="stop-color:#E9E9FD"
   id="stop366" />
							<stop
   offset="0.3601"
   style="stop-color:#D3D2F9"
   id="stop367" />
							<stop
   offset="0.7062"
   style="stop-color:#C5C4F7"
   id="stop368" />
							<stop
   offset="1"
   style="stop-color:#C0BFF6"
   id="stop369" />
						</linearGradient>
						<path
   style="fill:url(#SVGID_00000124872532119415669830000007559143858510065584_)"
   d="m 475.772,270.183 -19.781,-11.42 c -2.008,-1.159 -2.008,-3.046 0,-4.205 l 19.78,-11.42 c 2.008,-1.159 5.275,-1.159 7.283,0 l 19.781,11.421 c 2.008,1.159 2.008,3.046 0,4.205 l -19.78,11.42 c -2.007,1.159 -5.275,1.159 -7.283,-0.001 z m 5.545,-26.042 c -1.05,-0.606 -2.757,-0.606 -3.807,0 l -19.78,11.42 c -1.05,0.606 -1.05,1.592 0,2.198 l 19.781,11.421 c 1.05,0.606 2.758,0.606 3.807,0 l 19.78,-11.42 c 1.05,-0.606 1.05,-1.592 0,-2.198 z"
   id="path369" />
					</g>
				</g>
				<path
   style="opacity:0.4;fill:#42e8e0"
   d="m 480.758,244.464 c -0.742,-0.428 -1.948,-0.428 -2.69,0 l -19.78,11.42 c -0.742,0.428 -0.742,1.125 0,1.553 l 19.781,11.421 c 0.742,0.428 1.948,0.428 2.69,0 l 19.78,-11.42 c 0.742,-0.428 0.742,-1.125 0,-1.553 z"
   id="path370" />
			</g>
		</g>
	</g>
	
		<linearGradient
   id="SVGID_00000029028219551604789100000000922392935838355115_"
   gradientUnits="userSpaceOnUse"
   x1="479.4126"
   y1="269.17841"
   x2="479.4126"
   y2="186.09621">
		<stop
   offset="0"
   style="stop-color:#42E8E0"
   id="stop373" />
		<stop
   offset="0.1055"
   style="stop-color:#37B6BF"
   id="stop374" />
		<stop
   offset="0.2197"
   style="stop-color:#2C87A1"
   id="stop375" />
		<stop
   offset="0.338"
   style="stop-color:#235F87"
   id="stop376" />
		<stop
   offset="0.4587"
   style="stop-color:#1C3F72"
   id="stop377" />
		<stop
   offset="0.5824"
   style="stop-color:#162561"
   id="stop378" />
		<stop
   offset="0.7105"
   style="stop-color:#121355"
   id="stop379" />
		<stop
   offset="0.8458"
   style="stop-color:#10084E"
   id="stop380" />
		<stop
   offset="1"
   style="stop-color:#0F054C"
   id="stop381" />
	</linearGradient>
	
</g>
<g
   id="g396"
   transform="translate(-185.52692,1.3233207)">
	<g
   id="g395">
		<path
   style="fill:#42e8e0"
   d="m 278.207,141.627 c -1.35,0 -2.7,-0.296 -3.728,-0.89 l -19.781,-11.421 c -1.027,-0.593 -1.593,-1.393 -1.593,-2.253 0,-0.859 0.566,-1.659 1.593,-2.252 l 19.78,-11.421 c 2.055,-1.188 5.401,-1.187 7.456,0.001 l 19.781,11.42 c 1.026,0.593 1.592,1.393 1.592,2.252 0,0.86 -0.565,1.66 -1.592,2.252 l -19.781,11.421 c -1.027,0.595 -2.377,0.891 -3.727,0.891 z m -3.555,-1.19 c 1.961,1.131 5.149,1.131 7.11,0 l 19.78,-11.42 c 0.915,-0.529 1.42,-1.222 1.42,-1.953 0,-0.73 -0.505,-1.423 -1.42,-1.952 l -19.78,-11.421 c -1.961,-1.132 -5.15,-1.131 -7.111,0 l -19.78,11.42 c -0.915,0.528 -1.419,1.222 -1.419,1.952 0,0.731 0.504,1.424 1.419,1.953 z"
   id="path382" />
		<g
   id="g394">
			<path
   style="opacity:0.4;fill:#42e8e0"
   d="m 303.924,122.681 v -6.774 l -1.24,-0.689 c -0.35,2.115 -2.84,3.509 -4.921,3.798 l -14.174,8.288 -6.186,2.234 -19.743,-10.188 0.456,-0.264 c -1.687,-0.788 -2.596,-2.591 -3.509,-4.236 l -1.329,0.793 -0.79,0.222 v 6.888 0 c 0,0.878 0.579,1.756 1.737,2.425 l 19.781,11.421 c 2.316,1.337 6.085,1.337 8.401,0 l 19.78,-11.42 c 1.139,-0.658 1.718,-1.518 1.736,-2.382 10e-4,-0.038 -10e-4,-0.077 -0.002,-0.116 z"
   id="path383" />
			<g
   id="g393">
				<g
   id="g392">
					
						<linearGradient
   id="SVGID_00000129200706162430962160000007809099377159681675_"
   gradientUnits="userSpaceOnUse"
   x1="257.60571"
   y1="103.2721"
   x2="298.41541"
   y2="126.8336"
   gradientTransform="translate(185.52692,-1.3233207)">
						<stop
   offset="0"
   style="stop-color:#BCBEFF"
   id="stop383" />
						<stop
   offset="0.2271"
   style="stop-color:#AAADF8"
   id="stop384" />
						<stop
   offset="0.6802"
   style="stop-color:#7C83E5"
   id="stop385" />
						<stop
   offset="1"
   style="stop-color:#5761D7"
   id="stop386" />
					</linearGradient>
					<path
   style="fill:url(#SVGID_00000129200706162430962160000007809099377159681675_)"
   d="m 303.924,116.66 v -4.482 l -1.24,-0.689 c -0.35,2.115 -2.84,3.509 -4.921,3.799 l -14.174,8.288 -6.186,2.234 -19.743,-10.19 0.456,-0.263 c -1.687,-0.788 -2.596,-2.591 -3.509,-4.236 l -1.329,0.793 -0.79,0.222 v 4.596 0 c 0,0.878 0.579,1.756 1.737,2.425 l 19.781,11.42 c 2.316,1.337 6.085,1.337 8.401,0 l 19.78,-11.42 c 1.139,-0.658 1.718,-1.518 1.736,-2.382 10e-4,-0.038 -10e-4,-0.077 -0.002,-0.116 z"
   id="path386" />
					<path
   style="opacity:0.3;fill:#0f054c"
   d="m 297.764,115.287 -14.174,8.288 -5.384,1.944 v 6.06 c 1.521,0 3.043,-0.334 4.201,-1.003 l 19.78,-11.42 c 1.139,-0.658 1.718,-1.518 1.736,-2.382 10e-4,-0.038 -10e-4,-0.077 -0.002,-0.116 l 0.003,0.001 v -4.482 l -1.133,-0.63 h -0.118 c -0.387,2.083 -2.847,3.453 -4.909,3.74 z"
   id="path387" />
					<g
   id="g390">
						
							<linearGradient
   id="SVGID_00000137822567909354676720000005753475594270637992_"
   gradientUnits="userSpaceOnUse"
   x1="252.4886"
   y1="112.1783"
   x2="303.92419"
   y2="112.1783"
   gradientTransform="translate(185.52692,-1.3233207)">
							<stop
   offset="0"
   style="stop-color:#E9E9FD"
   id="stop387" />
							<stop
   offset="0.3601"
   style="stop-color:#D3D2F9"
   id="stop388" />
							<stop
   offset="0.7062"
   style="stop-color:#C5C4F7"
   id="stop389" />
							<stop
   offset="1"
   style="stop-color:#C0BFF6"
   id="stop390" />
						</linearGradient>
						<path
   style="fill:url(#SVGID_00000137822567909354676720000005753475594270637992_)"
   d="m 274.007,126.024 -19.781,-11.42 c -2.316,-1.337 -2.316,-3.513 0,-4.85 l 19.78,-11.42 c 2.316,-1.337 6.084,-1.337 8.401,0 l 19.781,11.42 c 2.316,1.337 2.316,3.513 0,4.85 l -19.78,11.42 c -2.317,1.337 -6.085,1.337 -8.401,0 z"
   id="path390" />
					</g>
					<g
   id="g391">
						<path
   style="fill:#ffffff"
   d="m 302.187,114.604 -19.78,11.42 c -2.316,1.337 -6.085,1.337 -8.401,0 l -19.781,-11.42 c -1.035,-0.598 -1.606,-1.363 -1.716,-2.146 -0.136,0.969 0.435,1.965 1.716,2.704 l 19.781,11.421 c 2.316,1.337 6.085,1.337 8.401,0 l 19.78,-11.42 c 1.281,-0.74 1.852,-1.735 1.716,-2.704 -0.11,0.782 -0.681,1.547 -1.716,2.145 z"
   id="path391" />
					</g>
				</g>
			</g>
		</g>
	</g>
</g>
<g
   id="g411"
   transform="translate(-185.52692,1.3233207)">
	<g
   id="g410">
		<path
   style="fill:#42e8e0"
   d="m 234.448,254.3 c -1.35,0 -2.7,-0.297 -3.728,-0.89 l -19.781,-11.421 c -1.027,-0.593 -1.593,-1.393 -1.593,-2.252 0,-0.86 0.566,-1.66 1.593,-2.254 l 19.781,-11.42 c 2.054,-1.186 5.4,-1.186 7.456,0 l 19.781,11.421 c 1.027,0.593 1.593,1.394 1.593,2.253 0,0.859 -0.565,1.66 -1.593,2.253 l -19.78,11.42 c -1.029,0.593 -2.379,0.89 -3.729,0.89 z m -3.555,-1.191 c 1.961,1.133 5.149,1.133 7.11,0 l 19.78,-11.42 c 0.915,-0.528 1.419,-1.222 1.419,-1.952 0,-0.73 -0.504,-1.424 -1.419,-1.952 l -19.781,-11.421 c -1.962,-1.134 -5.151,-1.133 -7.11,0 l -19.78,11.42 c -0.916,0.528 -1.419,1.223 -1.419,1.953 0,0.73 0.504,1.423 1.419,1.951 z"
   id="path396" />
		<g
   id="g409">
			<path
   style="opacity:0.4;fill:#42e8e0"
   d="m 260.165,235.354 v -6.773 l -1.24,-0.689 c -0.35,2.115 -2.84,3.509 -4.921,3.799 l -14.174,8.288 -6.186,2.234 -19.744,-10.189 0.456,-0.263 c -1.688,-0.788 -2.596,-2.591 -3.509,-4.236 l -1.329,0.793 -0.79,0.222 v 6.888 0 c 0,0.878 0.579,1.756 1.737,2.425 l 19.781,11.42 c 2.316,1.337 6.085,1.337 8.401,0 l 19.78,-11.42 c 1.139,-0.658 1.718,-1.518 1.737,-2.382 0.001,-0.039 -10e-4,-0.077 -0.002,-0.116 z"
   id="path397" />
			<g
   id="g408">
				<g
   id="g407">
					
						<linearGradient
   id="SVGID_00000066515059941286315620000001778551442437146556_"
   gradientUnits="userSpaceOnUse"
   x1="213.84689"
   y1="215.9451"
   x2="254.65669"
   y2="239.5065"
   gradientTransform="translate(185.52692,-1.3233207)">
						<stop
   offset="0"
   style="stop-color:#BCBEFF"
   id="stop397" />
						<stop
   offset="0.2271"
   style="stop-color:#AAADF8"
   id="stop398" />
						<stop
   offset="0.6802"
   style="stop-color:#7C83E5"
   id="stop399" />
						<stop
   offset="1"
   style="stop-color:#5761D7"
   id="stop400" />
					</linearGradient>
					<path
   style="fill:url(#SVGID_00000066515059941286315620000001778551442437146556_)"
   d="m 260.165,229.333 v -4.482 l -1.24,-0.689 c -0.35,2.115 -2.84,3.509 -4.921,3.798 l -14.174,8.288 -6.186,2.234 -19.744,-10.189 0.456,-0.264 c -1.688,-0.788 -2.596,-2.591 -3.509,-4.236 l -1.329,0.793 -0.79,0.222 v 4.596 0 c 0,0.878 0.579,1.756 1.737,2.425 l 19.781,11.42 c 2.316,1.337 6.085,1.337 8.401,0 l 19.78,-11.42 c 1.139,-0.658 1.718,-1.518 1.737,-2.382 0.001,-0.039 -10e-4,-0.077 -0.002,-0.116 z"
   id="path400" />
					<path
   style="opacity:0.3;fill:#0f054c"
   d="m 254.005,227.96 -14.174,8.288 -5.384,1.944 v 6.06 c 1.521,0 3.043,-0.334 4.201,-1.003 l 19.78,-11.42 c 1.139,-0.658 1.718,-1.518 1.737,-2.382 10e-4,-0.039 -0.001,-0.077 -0.002,-0.116 l 0.003,0.001 v -4.482 l -1.133,-0.63 h -0.118 c -0.387,2.083 -2.848,3.453 -4.91,3.74 z"
   id="path401" />
					<g
   id="g404">
						
							<linearGradient
   id="SVGID_00000177472006521626768500000003585565129961030798_"
   gradientUnits="userSpaceOnUse"
   x1="208.7298"
   y1="224.8512"
   x2="260.16541"
   y2="224.8512"
   gradientTransform="translate(185.52692,-1.3233207)">
							<stop
   offset="0"
   style="stop-color:#E9E9FD"
   id="stop401" />
							<stop
   offset="0.3601"
   style="stop-color:#D3D2F9"
   id="stop402" />
							<stop
   offset="0.7062"
   style="stop-color:#C5C4F7"
   id="stop403" />
							<stop
   offset="1"
   style="stop-color:#C0BFF6"
   id="stop404" />
						</linearGradient>
						<path
   style="fill:url(#SVGID_00000177472006521626768500000003585565129961030798_)"
   d="m 230.248,238.697 -19.781,-11.421 c -2.316,-1.337 -2.316,-3.513 0,-4.85 l 19.78,-11.42 c 2.316,-1.337 6.084,-1.337 8.401,0 l 19.781,11.421 c 2.316,1.337 2.316,3.513 0,4.85 l -19.78,11.42 c -2.317,1.337 -6.085,1.337 -8.401,0 z"
   id="path404" />
					</g>
					<g
   id="g405">
						<path
   style="fill:#5351af"
   d="m 234.448,236.622 c -1.22,0 -2.439,-0.268 -3.369,-0.804 l -15.454,-8.923 c -0.931,-0.537 -1.444,-1.264 -1.444,-2.044 -0.001,-0.781 0.512,-1.508 1.444,-2.046 l 15.454,-8.922 c 1.856,-1.072 4.878,-1.072 6.736,0 l 15.454,8.923 c 0.931,0.537 1.444,1.264 1.444,2.044 0,0.781 -0.513,1.508 -1.443,2.046 l -15.455,8.922 c -0.928,0.537 -2.147,0.804 -3.367,0.804 z m -0.001,-23.201 c -1.157,0 -2.314,0.255 -3.195,0.764 l -15.454,8.922 c -0.819,0.473 -1.27,1.093 -1.27,1.745 0.001,0.651 0.452,1.27 1.27,1.743 l 15.455,8.923 c 1.762,1.019 4.629,1.019 6.389,0 l 15.455,-8.922 c 0.819,-0.473 1.27,-1.093 1.27,-1.745 -10e-4,-0.651 -0.452,-1.27 -1.27,-1.743 l -15.454,-8.923 c -0.881,-0.509 -2.039,-0.764 -3.196,-0.764 z"
   id="path405" />
					</g>
					<g
   id="g406">
						<path
   style="fill:#ffffff"
   d="m 258.428,227.276 -19.78,11.42 c -2.316,1.337 -6.085,1.337 -8.401,0 l -19.781,-11.421 c -1.035,-0.598 -1.606,-1.363 -1.716,-2.146 -0.136,0.969 0.435,1.965 1.716,2.704 l 19.781,11.42 c 2.316,1.337 6.085,1.337 8.401,0 l 19.78,-11.42 c 1.281,-0.739 1.852,-1.735 1.716,-2.704 -0.109,0.785 -0.68,1.55 -1.716,2.147 z"
   id="path406" />
					</g>
				</g>
			</g>
		</g>
	</g>
</g>
<path
   style="fill:#42e8e0"
   d="m 221.44608,157.94032 c -0.499,0 -1.013,-0.144 -1.507,-0.429 l -27.581,-15.924 c -1.675,-0.967 -2.61,-3.301 -2.086,-5.201 0.262,-0.952 0.842,-1.655 1.631,-1.979 0.771,-0.315 1.643,-0.23 2.46,0.243 l 27.58,15.924 c 1.676,0.967 2.611,3.3 2.087,5.201 -0.263,0.953 -0.843,1.655 -1.633,1.979 -0.303,0.124 -0.623,0.186 -0.951,0.186 z m -28.59,-23.372 c -0.283,0 -0.559,0.053 -0.82,0.16 -0.688,0.282 -1.195,0.904 -1.429,1.749 -0.485,1.759 0.379,3.916 1.926,4.81 l 27.581,15.924 c 0.722,0.416 1.485,0.495 2.153,0.222 0.689,-0.282 1.196,-0.904 1.43,-1.75 0.485,-1.759 -0.379,-3.916 -1.927,-4.81 l -27.58,-15.924 c -0.44,-0.253 -0.895,-0.381 -1.334,-0.381 z"
   id="path411" />
<path
   style="fill:#42e8e0"
   d="m 217.80808,315.54232 c -1.653,0 -3.306,-0.363 -4.565,-1.09 l -79.478,-45.888 c -1.252,-0.723 -1.941,-1.694 -1.941,-2.735 0,-1.042 0.689,-2.014 1.941,-2.736 l 16.759,-9.661 0.174,0.301 -16.759,9.661 c -1.141,0.658 -1.769,1.522 -1.769,2.436 0,0.912 0.628,1.776 1.769,2.435 l 79.478,45.888 c 2.423,1.398 6.364,1.397 8.783,0 l 58.167,-33.46 0.173,0.301 -58.166,33.46 c -1.26,0.725 -2.913,1.088 -4.566,1.088 z"
   id="path412" />


<path
   style="fill:#42e8e0"
   d="m 91.170084,264.96132 c -0.956,0 -1.91,-0.246 -2.762,-0.737 l -26.25,-15.188 0.174,-0.301 26.25,15.188 c 1.596,0.922 3.58,0.922 5.177,0 l 37.537996,-21.663 0.174,0.301 -37.538996,21.663 c -0.852,0.491 -1.807,0.737 -2.762,0.737 z"
   id="path415" />
<g
   id="g416"
   transform="translate(-185.52692,1.3233207)">
	<circle
   style="opacity:0.4;fill:#42e8e0"
   cx="500.63101"
   cy="97.502998"
   r="3.313"
   id="circle415" />
	<circle
   style="opacity:0.4;fill:#42e8e0"
   cx="500.63101"
   cy="97.502998"
   r="1.438"
   id="circle416" />
</g>
<g
   id="g418"
   transform="translate(-185.52692,1.3233207)">
	<circle
   style="opacity:0.4;fill:#42e8e0"
   cx="450.383"
   cy="39.634998"
   r="3.313"
   id="circle417" />
	<circle
   style="opacity:0.4;fill:#42e8e0"
   cx="450.383"
   cy="39.634998"
   r="1.438"
   id="circle418" />
</g>
<g
   id="g420"
   transform="translate(-185.52692,1.3233207)">
	<circle
   style="opacity:0.4;fill:#42e8e0"
   cx="544.46399"
   cy="109.081"
   r="3.313"
   id="circle419" />
	<circle
   style="opacity:0.4;fill:#42e8e0"
   cx="544.46399"
   cy="109.081"
   r="1.438"
   id="circle420" />
</g>
</svg>
