<?xml version="1.0" encoding="UTF-8" standalone="no"?>
<!-- Created with Inkscape (http://www.inkscape.org/) -->

<svg
   width="59.313999mm"
   height="70.408997mm"
   viewBox="0 0 59.313999 70.408997"
   version="1.1"
   id="svg1"
   inkscape:version="1.4 (e7c3feb1, 2024-10-09)"
   sodipodi:docname="drawing.svg"
   xmlns:inkscape="http://www.inkscape.org/namespaces/inkscape"
   xmlns:sodipodi="http://sodipodi.sourceforge.net/DTD/sodipodi-0.dtd"
   xmlns="http://www.w3.org/2000/svg"
   xmlns:svg="http://www.w3.org/2000/svg">
  <sodipodi:namedview
     id="namedview1"
     pagecolor="#ffffff"
     bordercolor="#000000"
     borderopacity="0.25"
     inkscape:showpageshadow="2"
     inkscape:pageopacity="0.0"
     inkscape:pagecheckerboard="0"
     inkscape:deskcolor="#d1d1d1"
     inkscape:document-units="mm"
     inkscape:zoom="0.9199304"
     inkscape:cx="126.0965"
     inkscape:cy="152.72895"
     inkscape:window-width="1440"
     inkscape:window-height="872"
     inkscape:window-x="0"
     inkscape:window-y="28"
     inkscape:window-maximized="0"
     inkscape:current-layer="layer1" />
  <defs
     id="defs1" />
  <g
     inkscape:label="Layer 1"
     inkscape:groupmode="layer"
     id="layer1">
    <g
       id="g1925"
       transform="translate(-285.79801,-635.548)"
       style="stroke-width:0.26458">
		<polygon
   style="clip-rule:evenodd;fill:#f9c600;fill-rule:evenodd;stroke-width:0.26458"
   points="317.698,705.954 323.139,700.016 331.002,701.742 326.899,688.701 313.578,692.892 317.689,705.957 "
   id="polygon1918" />

		<polygon
   style="clip-rule:evenodd;fill:#f6f7f7;fill-rule:evenodd;stroke-width:0.26458"
   points="318.617,704.949 318.313,705.288 314.339,692.658 314.712,692.541 "
   id="polygon1919" />

		<polygon
   style="clip-rule:evenodd;fill:#f6f7f7;fill-rule:evenodd;stroke-width:0.26458"
   points="326.133,688.943 330.093,701.534 329.652,701.438 325.759,689.06 "
   id="polygon1920" />

		<polygon
   style="clip-rule:evenodd;fill:#f9c600;fill-rule:evenodd;stroke-width:0.26458"
   points="313.213,705.954 307.771,700.016 299.91,701.742 304.014,688.701 317.334,692.892 313.223,705.957 "
   id="polygon1921" />

		<polygon
   style="clip-rule:evenodd;fill:#f6f7f7;fill-rule:evenodd;stroke-width:0.26458"
   points="312.296,704.949 312.599,705.288 316.573,692.658 316.198,692.541 "
   id="polygon1922" />

		<polygon
   style="clip-rule:evenodd;fill:#f6f7f7;fill-rule:evenodd;stroke-width:0.26458"
   points="304.779,688.943 300.818,701.534 301.259,701.438 305.152,689.06 "
   id="polygon1923" />

		<polygon
   style="clip-rule:evenodd;fill:#03f8f8;fill-rule:evenodd;stroke-width:0.26458;fill-opacity:1"
   points="328.082,691.979 326.1,692.03 324.62,693.35 322.647,693.152 321.012,694.275 319.079,693.833 317.316,694.743 315.455,694.06 313.594,694.743 311.831,693.833 309.898,694.275 308.264,693.152 306.29,693.35 304.811,692.03 302.828,691.979 301.525,690.484 299.564,690.185 298.459,688.538 296.551,687.996 295.662,686.224 293.837,685.446 293.176,683.576 291.463,682.577 291.041,680.64 289.467,679.434 289.292,677.457 287.882,676.063 287.955,674.081 286.73,672.521 287.053,670.563 286.032,668.862 286.598,666.961 285.798,665.146 286.598,663.33 286.032,661.429 287.053,659.727 286.73,657.771 287.955,656.211 287.882,654.229 289.292,652.835 289.467,650.858 291.041,649.652 291.463,647.714 293.176,646.715 293.837,644.845 295.662,644.067 296.551,642.295 298.459,641.753 299.564,640.106 301.525,639.807 302.828,638.312 304.811,638.261 306.29,636.94 308.264,637.139 309.898,636.015 311.831,636.459 313.594,635.548 315.455,636.231 317.316,635.548 319.079,636.459 321.012,636.015 322.647,637.139 324.62,636.94 326.1,638.261 328.082,638.312 329.385,639.807 331.347,640.106 332.451,641.753 334.359,642.295 335.249,644.067 337.073,644.845 337.734,646.715 339.447,647.714 339.868,649.652 341.443,650.858 341.618,652.835 343.029,654.229 342.956,656.211 344.18,657.771 343.857,659.727 344.877,661.429 344.313,663.33 345.112,665.146 344.313,666.961 344.877,668.862 343.857,670.563 344.18,672.521 342.956,674.081 343.029,676.063 341.618,677.457 341.443,679.434 339.868,680.64 339.447,682.577 337.734,683.576 337.073,685.446 335.249,686.224 334.359,687.996 332.451,688.538 331.347,690.185 329.385,690.484 "
   id="polygon1924" />

		<path
   style="clip-rule:evenodd;fill:#ea557b;fill-rule:evenodd;stroke-width:0.26458"
   d="m 338.611,665.146 c 0,12.789 -10.367,23.157 -23.156,23.157 -12.789,0 -23.157,-10.368 -23.157,-23.157 0,-12.79 10.368,-23.157 23.157,-23.157 12.789,-10e-4 23.156,10.367 23.156,23.157 z"
   id="path1924" />

		<path
   style="clip-rule:evenodd;fill:#fc004b;fill-rule:evenodd;stroke:#f6f7f7;stroke-width:0.24585;fill-opacity:1"
   d="m 338.611,665.146 c 0,12.789 -10.367,23.157 -23.156,23.157 -12.789,0 -23.157,-10.368 -23.157,-23.157 0,-12.79 10.368,-23.157 23.157,-23.157 12.789,-10e-4 23.156,10.367 23.156,23.157 z"
   id="path1925" />

		
			<circle
   style="clip-rule:evenodd;fill:#180405;fill-rule:evenodd;stroke:#f6f7f7;stroke-width:0.122927;stroke-linecap:round;stroke-dasharray:0.24585, 0.368778;fill-opacity:1"
   cx="315.45499"
   cy="665.146"
   id="circle1925"
   r="20.745001" />

	</g>
    <g
       id="g37"
       transform="matrix(0.07479366,0,0,0.07477914,3.1014128,2.9608429)"
       style="stroke-width:3.53786">
		<path
   style="fill:#fc2875;stroke-width:3.53786"
   d="m 427.971,358.553 c -1.639,95.973 -144.396,95.957 -146.021,-0.003 1.638,-95.969 144.396,-95.954 146.021,0.003 z"
   id="path29" />

		<g
   id="g30"
   style="stroke-width:3.53786">
			<path
   style="fill:#999999;stroke-width:3.53786"
   d="m 298.582,281.993 c 71.384,-48.267 157.576,-104.804 247.147,-96.89 69.546,16.856 14.426,101.298 -12.337,134.806 -81.805,97.921 -228.617,209.922 -360.228,213.127 -75.21,-5.225 -35.058,-88.118 -6.781,-124.079 36.116,-49.597 82.898,-90.88 132.199,-126.964 16.44,-42.926 -119.812,89.966 -122.906,98.914 -49.644,52.715 -102.447,169.104 17.487,161.987 128.124,-18.792 240.676,-102.073 328.444,-193.583 46.274,-44.033 120.809,-172.912 6.29,-175.901 -71.568,2.5 -138.057,38.088 -197.713,75.019 -12.46,7.948 -24.666,16.281 -36.649,24.93 -5.17,3.731 -0.184,12.409 5.047,8.634 z"
   id="path30" />

		</g>

		<g
   id="g31"
   style="stroke-width:3.53786">
			<path
   style="fill:#999999;stroke-width:3.53786"
   d="m 406.8,267.787 c -77.312,-41.494 -178.683,-93.39 -267.93,-70.055 -69.737,29.709 -9.746,111.296 24.888,146.007 92.736,90.86 213.858,161.111 343.284,180.458 116.774,13.145 115.867,-69.573 49.082,-139.272 -42.115,-47.591 -94.698,-85.22 -149.324,-117.138 -5.58,-3.23 -10.621,5.408 -5.047,8.635 43.757,25.332 85.579,54.699 122.246,89.629 47.88,40.843 121.787,147.608 7.094,149.371 C 391.478,508.857 195.027,397.443 125.514,275.069 71.28,140.634 313.423,224.838 363.933,255.993 c 12.803,6.444 25.4,13.279 37.821,20.429 5.586,3.216 10.628,-5.422 5.046,-8.635 z"
   id="path31" />

		</g>

		<g
   id="g32"
   style="stroke-width:3.53786">
			<path
   style="fill:#999999;stroke-width:3.53786"
   d="m 258.256,363.811 c -3.99,-86.004 -6.346,-183.521 43.505,-257.651 48.562,-57.111 95.678,32.282 110.313,74.036 35.222,97.867 44.323,205.255 31.728,308.233 -6.639,43.927 -25.332,152.986 -88.751,132.724 -62.686,-39.893 -81.189,-145.871 -92.338,-214.762 -1.904,-14.146 -3.353,-28.35 -4.457,-42.58 -28.357,-36.533 14.858,153.079 21.294,160.292 43.88,134.268 132.908,158.318 167.455,3.113 24.24,-135.347 16.932,-315.549 -69.846,-427.855 -32.552,-36.237 -73.272,-23.654 -94.286,16.918 -32.476,61.874 -37.107,134.741 -36.699,203.429 0.259,14.72 0.979,29.424 2.082,44.104 0.479,6.377 10.483,6.429 10,-0.001 z"
   id="path32" />

		</g>

		<path
   style="fill:#feae1c;stroke-width:3.53786"
   d="m 427.971,136.109 c -0.812,47.538 -71.523,47.53 -72.328,-0.002 0.811,-47.536 71.523,-47.528 72.328,0.002 z"
   id="path33" />

		<path
   style="fill:#00e2ce;stroke-width:3.53786"
   d="m 587.639,288.954 c -0.812,47.538 -71.523,47.53 -72.328,-0.001 0.812,-47.537 71.523,-47.529 72.328,0.001 z"
   id="path34" />

		<path
   style="fill:#00e2ce;stroke-width:3.53786"
   d="m 470.276,574.174 c -0.812,47.538 -71.523,47.53 -72.328,-0.002 0.811,-47.536 71.523,-47.529 72.328,0.002 z"
   id="path35" />

		<path
   style="fill:#feae1c;stroke-width:3.53786"
   d="m 190.515,439.069 c -0.812,47.538 -71.523,47.53 -72.328,-0.001 0.812,-47.536 71.523,-47.529 72.328,0.001 z"
   id="path36" />

		<path
   style="fill:#00e2ce;stroke-width:3.53786"
   d="m 190.515,196.155 c -0.812,47.538 -71.523,47.53 -72.328,-0.002 0.812,-47.535 71.523,-47.528 72.328,0.002 z"
   id="path37" />

	</g>
  </g>
</svg>
