<?xml version="1.0" encoding="UTF-8" standalone="no"?>
<svg
   version="1.1"
   x="0px"
   y="0px"
   viewBox="0 0 34 34.5"
   enable-background="new 0 0 34 34"
   xml:space="preserve"
   id="svg4"
   sodipodi:docname="our vision.svg"
   inkscape:version="1.4 (e7c3feb1, 2024-10-09)"
   width="34"
   height="34.5"
   xmlns:inkscape="http://www.inkscape.org/namespaces/inkscape"
   xmlns:sodipodi="http://sodipodi.sourceforge.net/DTD/sodipodi-0.dtd"
   xmlns="http://www.w3.org/2000/svg"
   xmlns:svg="http://www.w3.org/2000/svg"><defs
     id="defs4" /><sodipodi:namedview
     id="namedview4"
     pagecolor="#ffffff"
     bordercolor="#000000"
     borderopacity="0.25"
     inkscape:showpageshadow="2"
     inkscape:pageopacity="0.0"
     inkscape:pagecheckerboard="0"
     inkscape:deskcolor="#d1d1d1"
     inkscape:zoom="13.198902"
     inkscape:cx="8.7128458"
     inkscape:cy="23.789857"
     inkscape:window-width="1440"
     inkscape:window-height="771"
     inkscape:window-x="0"
     inkscape:window-y="25"
     inkscape:window-maximized="0"
     inkscape:current-layer="g3" /><g
     id="g3"
     style="fill:#4b2dc3;fill-opacity:1"><path
       d="m 18.98246,1.00657 c -7.72998,0 -14,6.27002 -14,14 0,7.72998 6.27002,14 14,14 7.72998,0 14,-6.27002 14,-14 0,-7.72998 -6.27002,-14 -14,-14 z m 0,24.98969 c -6.05684,0 -10.9725,-4.92336 -10.9725,-10.98968 0,-6.05533 4.91566,-10.98968 10.9725,-10.98968 6.04586,0 10.9725,4.93436 10.9725,10.98968 0,6.06632 -4.92665,10.98968 -10.9725,10.98968 z"
       id="path1"
       style="fill:#ffffff;fill-opacity:1" /><path
       d="m 10.60365,28.64836 c 0.13665,0.08382 0.16075,0.26908 0.0475,0.38254 l -2.78651,2.79144 c -1.57388,1.56146 -4.11025,1.56146 -5.67416,0 -1.56391,-1.57148 -1.56391,-4.10382 0,-5.66529 l 2.7773,-2.77296 c 0.11307,-0.11289 0.29755,-0.08927 0.38176,0.04651 1.31796,2.12501 3.12456,3.91152 5.25411,5.21776 z"
       id="path2"
       style="fill:#ffffff;fill-opacity:1" /><path
       d="m 25.78081,12.77207 c -3.75503,-3.73802 -9.82513,-3.73798 -13.58011,9e-5 l -1.85391,1.84557 c -0.19633,0.19544 -0.19633,0.51326 0,0.7087 L 12.2007,17.172 c 3.75498,3.73808 9.82508,3.73812 13.58011,9e-5 l 1.85406,-1.84566 c 0.19633,-0.19544 0.19633,-0.51327 0,-0.70871 z m -6.78998,5.20001 c -1.66003,0 -3,-1.33997 -3,-3 0,-1.65997 1.33997,-3 3,-3 1.65997,0 3,1.34003 3,3 0,1.66003 -1.34003,3 -3,3 z"
       id="path3"
       style="fill:#00ffff;fill-opacity:1" /><circle
       cx="19.030821"
       cy="14.97125"
       r="1.98438"
       id="circle3"
       style="fill:#f5fa00;fill-opacity:1" /></g></svg>
