<?xml version="1.0" encoding="UTF-8" standalone="no"?>
<svg
   data-name="Layer 1"
   viewBox="0 0 96 86"
   x="0px"
   y="0px"
   version="1.1"
   id="svg2"
   sodipodi:docname="our mission.svg"
   width="96"
   height="86"
   inkscape:version="1.4 (e7c3feb1, 2024-10-09)"
   xmlns:inkscape="http://www.inkscape.org/namespaces/inkscape"
   xmlns:sodipodi="http://sodipodi.sourceforge.net/DTD/sodipodi-0.dtd"
   xmlns="http://www.w3.org/2000/svg"
   xmlns:svg="http://www.w3.org/2000/svg">
  <sodipodi:namedview
     id="namedview2"
     pagecolor="#ffffff"
     bordercolor="#000000"
     borderopacity="0.25"
     inkscape:showpageshadow="2"
     inkscape:pageopacity="0.0"
     inkscape:pagecheckerboard="0"
     inkscape:deskcolor="#d1d1d1"
     inkscape:zoom="4.0514429"
     inkscape:cx="66.149272"
     inkscape:cy="44.552029"
     inkscape:window-width="1440"
     inkscape:window-height="766"
     inkscape:window-x="0"
     inkscape:window-y="25"
     inkscape:window-maximized="0"
     inkscape:current-layer="svg2" />
  <defs
     id="defs1">
    <style
       id="style1">.cls-1{fill-rule:evenodd;}</style>
  </defs>
  <path
     class="cls-1"
     d="m 52.542387,84.144969 a 41.19,41.19 0 1 0 -39.89,-30.73 l 0.36,-0.2 7.52,3.07 7.8,-4.51 a 25.83,25.83 0 1 1 4.43,7.65 l -7.84,4.48 -1.1,8 -0.35,0.2 a 41.11,41.11 0 0 0 29,12 z m -42.22,-14.93 a 2.13,2.13 0 0 1 -1.6799998,-2.91 l -5.85,-2.4 a 1.16,1.16 0 0 1 -0.14,-2.08 l 10.5299998,-6.07 7.52,3.07 30.77,-17.76 a 2.13,2.13 0 1 1 2.13,3.68 l -30.77,17.77 -1.1,8 -10.54,6.08 a 1.16,1.16 0 0 1 -1.7299998,-1.16 l 0.8599998,-6.27 z m 42.22,-16 a 10.22,10.22 0 0 1 -5.85,-1.82 l 8,-4.65 a 4.42,4.42 0 0 0 -4.41,-7.66 l -8.06,4.65 c 0,-0.27 0,-0.54 0,-0.82 a 10.3,10.3 0 1 1 10.3,10.3 z"
     id="path1"
     style="fill:#ffffff;fill-opacity:1" />
</svg>
