<?xml version="1.0" encoding="UTF-8" standalone="no"?>
<svg
   viewBox="0 0 109 149"
   version="1.1"
   id="svg122"
   sodipodi:docname="staff-154689.svg"
   width="109"
   height="149"
   inkscape:version="1.4 (e7c3feb1, 2024-10-09)"
   xmlns:inkscape="http://www.inkscape.org/namespaces/inkscape"
   xmlns:sodipodi="http://sodipodi.sourceforge.net/DTD/sodipodi-0.dtd"
   xmlns:xlink="http://www.w3.org/1999/xlink"
   xmlns="http://www.w3.org/2000/svg"
   xmlns:svg="http://www.w3.org/2000/svg">
  <sodipodi:namedview
     id="namedview122"
     pagecolor="#ffffff"
     bordercolor="#000000"
     borderopacity="0.25"
     inkscape:showpageshadow="2"
     inkscape:pageopacity="0.0"
     inkscape:pagecheckerboard="0"
     inkscape:deskcolor="#d1d1d1"
     inkscape:zoom="1.0838208"
     inkscape:cx="89.49819"
     inkscape:cy="85.346212"
     inkscape:window-width="1440"
     inkscape:window-height="872"
     inkscape:window-x="0"
     inkscape:window-y="28"
     inkscape:window-maximized="0"
     inkscape:current-layer="g122" />
  <defs
     id="defs4">
    <linearGradient
       id="c">
      <stop
         stop-color="#11df40"
         offset="0"
         id="stop1" />
      <stop
         stop-color="#cbefe0"
         offset="1"
         id="stop2" />
    </linearGradient>
    <linearGradient
       id="a">
      <stop
         stop-color="#f44c11"
         offset="0"
         id="stop3" />
      <stop
         stop-color="#f8f65d"
         offset="1"
         id="stop4" />
    </linearGradient>
    <linearGradient
       id="g"
       x1="1323.4"
       x2="885.41998"
       gradientUnits="userSpaceOnUse"
       xlink:href="#c"
       spreadMethod="reflect" />
    <linearGradient
       id="d"
       x1="219.67999"
       x2="910.01001"
       y1="1089.7"
       y2="945.97998"
       gradientTransform="matrix(0.08159,0.02186,-0.02693,0.10049,88.209,601.55)"
       gradientUnits="userSpaceOnUse"
       xlink:href="#a" />
    <linearGradient
       id="e"
       x1="36.189999"
       x2="94.502998"
       y1="671.72998"
       y2="656.77002"
       gradientUnits="userSpaceOnUse"
       xlink:href="#a"
       gradientTransform="translate(4.848753e-6)" />
    <linearGradient
       id="f"
       x1="219.67999"
       x2="910.01001"
       y1="1089.7"
       y2="945.97998"
       gradientTransform="matrix(-0.08447,0,0,0.10404,201.24,558.77)"
       gradientUnits="userSpaceOnUse"
       xlink:href="#a" />
    <linearGradient
       id="b"
       x1="66.932999"
       x2="900.72998"
       y1="1107"
       y2="960.42999"
       gradientTransform="matrix(0.12107,0,0,0.12107,-2.4757281,542.00786)"
       gradientUnits="userSpaceOnUse"
       xlink:href="#c" />
  </defs>
  <g
     transform="matrix(1.4162,0,0,1.4162,-11.602,-799.38)"
     id="g122">
    <path
       d="m 45.110217,610.91259 c 20.180674,0.57599 36.011175,33.8065 28.545839,45.07493 -7.465336,11.26843 -51.269821,11.26892 -58.407182,0 -7.1373613,-11.26891 9.022796,-45.67048 29.860142,-45.07493 z"
       fill="url(#b)"
       fill-rule="evenodd"
       stroke="#383838"
       stroke-width="0.836727"
       id="path4"
       style="fill:url(#b)" />
    <path
       d="m 68.790904,603.66476 c 0,15.59865 -11.325394,28.24379 -25.29604,28.24379 -13.970647,0 -25.296041,-12.64514 -25.296041,-28.24379 0,-15.59865 11.325394,-28.24379 25.296041,-28.24379 13.890833,0 25.183107,12.50632 25.295497,28.01525"
       fill="#ffccaa"
       fill-rule="evenodd"
       stroke="#383838"
       stroke-width="0.836704"
       id="path5" />
    <path
       d="m 58.228711,591.54626 c 0,0 -9.702307,8.57175 -20.571003,7.90296 C 26.772062,598.77941 15.8869,594.8953 15.8869,594.8953 c 0,0 -0.602105,-24.79514 28.032548,-25.18378 19.637554,-0.27182 27.531318,8.72625 31.282067,25.18378 3.790822,16.62896 -6.686212,26.38841 -6.686212,26.38841 0,0 -5.570915,-5.42478 -8.142321,-12.85884 C 57.801576,600.99081 58.22968,591.5465 58.22968,591.5465 Z"
       fill="#4c4c4f"
       fill-rule="evenodd"
       stroke="#383838"
       stroke-width="0.836727"
       id="path6" />
    <path
       d="m 42.082472,632.13182 -3.3541,4.2917 1.8948,13.836 -8.2553,5.851 -3.089,-9.2722 5.8679,-11.121 -1.2415,-5.8102 8.1773,2.2246 z"
       fill="url(#e)"
       fill-rule="evenodd"
       stroke="#383838"
       stroke-width="0.64788"
       id="path12"
       style="fill:url(#e)" />
    <g
       transform="matrix(-1,0,0,1,151.80446,-65.67218)"
       id="g121">
      <path
         d="m 85.316,708.17 h 14.983 a 1.3244,1.8589 0 0 1 1.3244,1.8589 v 7.3875 a 1.3244,1.8589 0 0 1 -1.3244,1.8589 H 85.316 a 1.3244,1.8589 0 0 1 -1.3244,-1.8589 v -7.3875 A 1.3244,1.8589 0 0 1 85.316,708.17"
         fill="#e2ffff"
         fill-rule="evenodd"
         stroke="#d4d3d2"
         stroke-width="0.06737"
         id="path87" />
      <path
         d="m 85.28678,708.95477 h 5.14076 a 0.48228,0.73019 0 0 1 0.48228,0.73019 v 3.70025 a 0.48228,0.73019 0 0 1 -0.48228,0.73019 h -5.14076 a 0.48228,0.73019 0 0 1 -0.48228,-0.73019 v -3.70025 a 0.48228,0.73019 0 0 1 0.48228,-0.73019"
         fill="#e4e4e6"
         stroke="#797b7b"
         stroke-width="0.07458"
         id="path88" />
      <path
         d="m 92.41531,711.47266 h 6.82499 a 0.48228,0.16632 0 0 1 0.48228,0.16632 0.48228,0.16632 0 0 1 -0.48228,0.16632 h -6.82499 a 0.48228,0.16632 0 0 1 -0.48228,-0.16632 0.48228,0.16632 0 0 1 0.48228,-0.16632"
         fill="#929293"
         fill-rule="evenodd"
         stroke="#797b7b"
         stroke-linejoin="round"
         stroke-width="0.01071"
         id="path89" />
      <path
         d="m 92.38583,712.67065 h 6.82499 a 0.48228,0.16105 0 0 1 0.48228,0.16105 0.48228,0.16105 0 0 1 -0.48228,0.16105 h -6.82499 a 0.48228,0.16105 0 0 1 -0.48228,-0.16105 0.48228,0.16105 0 0 1 0.48228,-0.16105"
         fill="#929293"
         fill-rule="evenodd"
         stroke="#797b7b"
         stroke-linejoin="round"
         stroke-width="0.01054"
         id="path90" />
      <path
         d="m 85.75581,715.41937 h 8.76933 a 0.61968,0.16428 0 0 1 0.61968,0.16428 0.61968,0.16428 0 0 1 -0.61968,0.16428 h -8.76933 a 0.61968,0.16428 0 0 1 -0.61968,-0.16428 0.61968,0.16428 0 0 1 0.61968,-0.16428"
         fill="#929293"
         fill-rule="evenodd"
         stroke="#797b7b"
         stroke-linejoin="round"
         stroke-width="0.01207"
         id="path91" />
      <g
         transform="matrix(0.06737,0,0,0.06737,80.143,655.68)"
         id="g113">
        <path
           d="m 276.17,881.55 c -13.866,0 -25.107,11.241 -25.107,25.107 0,13.866 11.241,25.107 25.107,25.107 13.866,0 25.107,-11.241 25.107,-25.107 v -0.204 C 301.16534,892.666 289.957,881.55 276.17,881.55 Z m -0.21968,7.6263 c 9.4786,0 17.184,7.6417 17.261,17.12 v 0.14123 c 0,9.5331 -7.7281,17.261 -17.261,17.261 -9.5329,0 -17.261,-7.7281 -17.261,-17.261 0,-9.5329 7.7281,-17.261 17.261,-17.261 z"
           fill="none"
           stroke="#ff0000"
           stroke-linejoin="round"
           stroke-width="1.0043"
           id="path92" />
        <g
           transform="matrix(0.6032,0,0,0.6032,213.2,646)"
           fill="#ff0000"
           font-family="Sans"
           font-size="40px"
           letter-spacing="0"
           word-spacing="0"
           id="g102">
          <path
             d="m 74.56326,425.39923 c -0.13136,0.55552 -0.27765,1.0787 -0.44304,1.5719 -0.09427,0.37499 -0.20244,0.73221 -0.32456,1.07193 -0.29866,0.83082 -0.66924,1.5297 -1.11197,2.09834 -0.44273,0.56864 -0.95185,0.99322 -1.52718,1.27255 -0.5814,0.26377 -1.21737,0.35421 -1.90721,0.26635 -0.68984,-0.0879 -1.276,-0.35686 -1.75773,-0.81251 -0.48774,-0.47155 -0.87066,-1.06944 -1.14866,-1.79442 -0.278,-0.72498 -0.4539,-1.55455 -0.52806,-2.48672 -0.02492,-0.31335 -0.03822,-0.63218 -0.03991,-0.95634 0.04424,-0.67742 0.14957,-1.3785 0.31891,-2.09651 0.16132,-0.68392 0.34358,-1.28886 0.53809,-1.81318 0.19885,-0.54006 0.39277,-0.99546 0.57455,-1.36767 0.1866,-0.38778 0.35382,-0.69448 0.49685,-0.92236 0.14303,-0.22788 0.24671,-0.38175 0.30879,-0.46382 l 0.69658,0.92977 c -0.09034,0.12126 -0.20396,0.30213 -0.33867,0.54412 -0.13471,0.24199 -0.27946,0.52356 -0.4321,0.8456 -0.14815,0.30677 -0.29294,0.65705 -0.43149,1.05079 -0.14217,0.37644 -0.26246,0.76742 -0.35991,1.17131 -0.20091,0.83271 -0.28987,1.60282 -0.27705,2.29781 l 0.0049,0.0521 c 0.06588,0.68237 0.21152,1.27636 0.43705,1.78108 0.22553,0.50472 0.528,0.91215 0.90724,1.22298 0.37323,0.29489 0.81325,0.47684 1.31968,0.54843 0.49062,0.0694 0.95079,0.0298 1.38017,-0.11636 0.43125,-0.16075 0.81984,-0.4297 1.16563,-0.80588 0.33789,-0.37735 0.62507,-0.86317 0.86165,-1.45803 0.02986,-0.0763 0.05868,-0.15437 0.08646,-0.23419 0.22622,-0.51805 0.4147,-1.11017 0.57595,-1.78059 0.21294,-0.88532 0.36177,-1.62227 0.4253,-2.22541 0.06353,-0.60314 0.109,-1.06038 0.12111,-1.37222 0.35872,-0.066 0.71706,-0.12719 1.07492,-0.18355 0.007,0.10045 0.0015,0.2735 -0.01369,0.51891 -0.02276,0.24303 -0.06223,0.54238 -0.11442,0.89876 -0.05219,0.35638 -0.12477,0.76762 -0.21271,1.23558 -0.08794,0.46796 -0.19756,0.97072 -0.32542,1.51143 z"
             id="path93" />
          <path
             d="m 77.1007,415.87445 c 0.20987,-0.38708 0.39851,-0.72489 0.56102,-1.01629 0.16238,-0.30694 0.29228,-0.56383 0.38574,-0.77334 l -1.57852,-0.98766 c -0.10913,0.0989 -0.26022,0.28083 -0.44842,0.54918 -0.18779,0.25206 -0.39522,0.5764 -0.61515,0.97515 -0.08817,0.15986 -0.17497,0.32956 -0.25992,0.50903 -0.05418,0.11423 -0.10766,0.23242 -0.16031,0.35456 -0.12879,0.30127 -0.21867,0.59778 -0.27033,0.88689 -0.05268,0.27294 -0.05469,0.52116 -0.0079,0.74288 0.03954,0.21841 0.15926,0.37053 0.35613,0.45828 0.36457,0.16252 0.70872,0.0762 1.03929,-0.24444 0.28481,-0.28541 0.57093,-0.69668 0.87449,-1.23048 l 0.12386,-0.22376 z m -5.01261,-2.48677 c 0.41241,-0.77736 0.83915,-1.38711 1.25224,-1.83221 0.41444,-0.46264 0.81754,-0.77829 1.19508,-0.95362 0.37949,-0.19261 0.73596,-0.26205 1.06545,-0.21566 0.32294,0.0418 0.62688,0.16767 0.91392,0.37202 l 3.18027,2.26436 c -0.07721,0.13631 -0.1846,0.33067 -0.31824,0.58483 -0.133,0.23893 -0.28462,0.51173 -0.45183,0.82005 -0.16721,0.30832 -0.34991,0.64455 -0.54519,1.01047 -0.18182,0.35877 -0.36706,0.71472 -0.55627,1.06865 l -0.01629,0.0304 c -0.26408,0.48897 -0.52589,0.93154 -0.79283,1.32808 -0.26694,0.39654 -0.54559,0.74226 -0.82667,1.01104 -0.28845,0.2657 -0.58715,0.44776 -0.9007,0.54266 -0.31355,0.0949 -0.63824,0.0825 -0.97392,-0.0448 -0.32076,-0.12158 -0.55402,-0.33647 -0.69402,-0.65035 -0.1347,-0.32706 -0.18887,-0.72012 -0.15598,-1.17651 0.03289,-0.45639 0.13983,-0.96584 0.32776,-1.52152 0.14744,-0.43594 0.33093,-0.87697 0.55139,-1.31951 l 0.19012,-0.36497 c 0.0978,-0.17968 0.20772,-0.36113 0.32991,-0.54371 0.11522,-0.18652 0.23194,-0.35523 0.34926,-0.50618 0.11786,-0.16755 0.22226,-0.30886 0.31209,-0.42468 0.08983,-0.11582 0.15401,-0.19585 0.19168,-0.24095 l -0.26478,-0.16567 c -0.15615,-0.0977 -0.32844,-0.16217 -0.51748,-0.19177 -0.19584,-0.0338 -0.40337,-0.003 -0.62163,0.0947 -0.2251,0.0936 -0.46208,0.27154 -0.70616,0.53624 -0.23243,0.2363 -0.47628,0.58133 -0.72076,1.03673 l -0.03467,0.0654 c -0.32696,0.62367 -0.57332,1.19353 -0.74843,1.70072 -0.1759,0.49003 -0.28405,0.86604 -0.33517,1.12472 l -0.94957,-0.12434 c 0.05062,-0.28221 0.17987,-0.73553 0.40598,-1.35483 0.20815,-0.59217 0.47741,-1.21478 0.81303,-1.86019 z"
             id="path94" />
          <path
             d="m 80.15022,403.28972 c 0.14449,-0.1233 0.31334,-0.25473 0.50712,-0.39285 0.20095,-0.15431 0.40268,-0.29504 0.60441,-0.42222 0.20173,-0.12718 0.3788,-0.24691 0.54494,-0.34136 0.174,-0.11031 0.30467,-0.18582 0.39069,-0.22855 0.08769,0.33626 0.1791,0.6707 0.27417,1.00329 -0.15386,0.0747 -0.40196,0.21556 -0.73934,0.431 -0.33032,0.19968 -0.73342,0.4959 -1.19602,0.89911 -0.30069,0.26211 -0.5805,0.54797 -0.83733,0.85549 -0.25117,0.29123 -0.41063,0.48812 -0.48626,0.58524 l 3.68094,3.726 c -0.42065,0.41721 -0.82851,0.8501 -1.22311,1.2971 l -4.46938,-3.96445 c 0.27004,-0.44848 0.64039,-0.98115 1.12832,-1.58328 0.48227,-0.60777 1.0864,-1.23771 1.82085,-1.86452 z"
             id="path95" />
          <path
             d="m 85.82465,399.60207 c 1.37013,-0.72116 2.7849,-1.34091 4.23151,-1.86631 l 0.31701,0.87696 c -1.4087,0.51049 -2.78407,1.1126 -4.11329,1.81338 l 1.33918,2.53549 c 0.14508,0.27467 0.30237,0.48416 0.46967,0.63019 0.16362,0.13896 0.34289,0.225 0.53822,0.25975 0.19173,0.0276 0.40327,0.011 0.63696,-0.048 0.23369,-0.059 0.49298,-0.15335 0.78136,-0.28055 0.50465,-0.22259 0.90117,-0.41884 1.18454,-0.60466 0.29284,-0.19801 0.50036,-0.33158 0.6155,-0.40649 l 0.6426,0.75083 c -0.15378,0.11155 -0.43161,0.27886 -0.82283,0.51263 -0.38838,0.24121 -0.84296,0.47204 -1.3629,0.70498 -0.61238,0.27435 -1.12847,0.47764 -1.56714,0.59424 -0.43124,0.10361 -0.81336,0.13514 -1.15393,0.0864 -0.34057,-0.0487 -0.64307,-0.1709 -0.90721,-0.37322 -0.25708,-0.21613 -0.49779,-0.49861 -0.71743,-0.85121 l -2.93972,-4.71936 c 0.62892,-0.46078 1.27261,-0.89931 1.92953,-1.31595 z"
             id="path96" />
          <path
             d="m 92.81369,400.11101 c -0.15901,-0.52747 -0.15977,-1.02845 0.014,-1.5025 0.17156,-0.48171 0.46762,-0.92147 0.89141,-1.30994 0.42379,-0.38847 0.9519,-0.72349 1.58017,-0.99316 0.62827,-0.26967 1.29529,-0.46089 1.9905,-0.56965 1.62215,-0.25372 2.90851,-0.0963 3.8013,0.37259 0.89224,0.46086 1.34013,1.24695 1.38635,2.32101 0.002,0.0481 0.005,0.11222 0.008,0.19238 0.003,0.0721 -0.001,0.14059 -0.0128,0.20536 -2.55941,0.11515 -5.11096,0.44315 -7.57899,1.02556 0.23316,0.61108 0.66456,1.01338 1.28404,1.22958 0.61948,0.2162 1.49801,0.21817 2.67481,0.0602 0.6628,-0.0889 1.21734,-0.17951 1.66296,-0.28554 0.45855,-0.11529 0.80486,-0.20893 1.03524,-0.28916 0.11066,0.30627 0.21935,0.6129 0.32608,0.91985 -0.22526,0.0867 -0.62481,0.18918 -1.19219,0.32166 -0.55401,0.13125 -1.186,0.24009 -1.89664,0.33874 -0.89488,0.12422 -1.67363,0.18234 -2.35463,0.15773 -0.66968,-0.0351 -1.24463,-0.13252 -1.73236,-0.30535 -0.48773,-0.17283 -0.89277,-0.41168 -1.21378,-0.72653 -0.31003,-0.32632 -0.5378,-0.71183 -0.67377,-1.16287 z m 7.50986,-2.04338 c -0.0313,-0.50526 -0.30417,-0.89809 -0.83443,-1.1641 -0.51609,-0.2756 -1.21504,-0.35906 -2.07621,-0.22437 -0.48346,0.0756 -0.90453,0.20294 -1.25944,0.37613 -0.34143,0.16248 -0.62091,0.35076 -0.83834,0.56093 -0.21743,0.21017 -0.37452,0.43441 -0.47288,0.67049 -0.08387,0.23278 -0.12109,0.45952 -0.11399,0.67988 1.83353,-0.43239 3.70823,-0.72677 5.59528,-0.89896 z"
             id="path97" />
          <path
             d="m 119.82435,400.30937 c 0.65879,0.26864 1.30855,0.5584 1.94787,0.87005 l -1.69618,3.4805 c -0.1525,-0.0392 -0.37037,-0.10483 -0.6554,-0.19167 l -0.96584,-0.2907 -1.18553,-0.35791 c -0.43463,-0.1241 -0.87355,-0.2555 -1.31865,-0.39447 -0.90256,-0.28181 -1.71596,-0.59147 -2.44709,-0.95472 -0.73113,-0.36325 -1.35593,-0.76632 -1.87223,-1.22826 -0.5163,-0.46194 -0.91137,-0.97643 -1.17603,-1.55494 -0.25061,-0.57662 -0.34281,-1.21001 -0.25656,-1.90302 0.0862,-0.69301 0.35507,-1.28385 0.82695,-1.76122 0.48829,-0.48316 1.11776,-0.85224 1.8895,-1.08856 0.77174,-0.23632 1.66219,-0.3438 2.65902,-0.30033 1.0127,0.0473 2.07411,0.24174 3.15817,0.5946 0.73842,0.24038 1.37748,0.49679 1.91691,0.75487 0.55488,0.26401 1.01565,0.51549 1.38539,0.74401 0.36974,0.22852 0.65923,0.43016 0.87177,0.5989 0.22749,0.17567 0.37719,0.30087 0.4522,0.37241 -0.37014,0.17969 -0.73488,0.36483 -1.09426,0.55521 -0.35828,-0.33021 -0.87502,-0.69328 -1.5574,-1.06755 -0.67944,-0.38166 -1.40653,-0.70092 -2.17159,-0.95195 -0.81097,-0.26608 -1.5833,-0.41071 -2.30125,-0.44349 -0.70251,-0.0287 -1.32541,0.0518 -1.86199,0.22946 -0.52124,0.18107 -0.94792,0.45648 -1.28115,0.81725 -0.33175,0.3529 -0.53784,0.78484 -0.62871,1.28981 -0.088,0.48921 -0.0665,0.95294 0.055,1.3914 0.13555,0.44111 0.37268,0.84526 0.70502,1.21804 0.3476,0.3678 0.78507,0.69536 1.31051,0.99357 0.53859,0.30155 1.18173,0.56182 1.93193,0.80269 0.53403,0.17147 0.98412,0.31458 1.35669,0.41946 0.38784,0.10206 0.66636,0.17555 0.83861,0.21116 z"
             id="path98" />
          <path
             d="m 129.53645,403.54975 c 0.14449,0.12235 0.30083,0.26724 0.46778,0.43537 0.18403,0.17251 0.35484,0.34777 0.5124,0.52504 0.16294,0.17135 0.3039,0.33121 0.4237,0.47854 0.13666,0.15235 0.23217,0.26781 0.28821,0.345 -0.31618,0.1436 -0.63028,0.29012 -0.94226,0.43955 -0.0989,-0.13896 -0.27828,-0.3597 -0.54522,-0.65664 -0.25029,-0.2926 -0.60703,-0.64155 -1.07858,-1.033 -0.30653,-0.25445 -0.63311,-0.48489 -0.97752,-0.68941 -0.32744,-0.20153 -0.54727,-0.32771 -0.65524,-0.38694 l -3.09258,4.22664 c -0.4774,-0.34826 -0.96595,-0.67878 -1.46513,-0.99019 l 3.18664,-5.05493 c 0.48813,0.19512 1.07516,0.47666 1.74818,0.86297 0.67767,0.37983 1.39512,0.87609 2.12962,1.498 z"
             id="path99" />
          <path
             d="m 129.32529,412.45923 c -0.3748,-0.47304 -0.76289,-0.93411 -1.16375,-1.38184 l 4.64144,-4.17106 c 0.48777,0.54205 0.95863,1.09898 1.41208,1.66943 z m 5.0508,-5.4663 c -0.26124,-0.30847 -0.44224,-0.6112 -0.54234,-0.9145 -0.0833,-0.29653 -0.0457,-0.52058 0.11952,-0.67184 0.16522,-0.15126 0.39088,-0.16684 0.67631,-0.0405 0.30257,0.13348 0.59332,0.36078 0.86501,0.68134 0.27169,0.32056 0.44236,0.63764 0.51359,0.94425 0.0879,0.31464 0.04,0.54077 -0.13671,0.6787 -0.17671,0.13793 -0.409,0.13189 -0.69802,-0.0113 -0.27262,-0.13554 -0.53614,-0.35763 -0.79736,-0.66611 z"
             id="path100" />
          <path
             d="m 133.10171,416.74881 c 0.36527,0.67765 0.6677,1.16158 0.9347,1.44117 0.27286,0.29182 0.52644,0.38713 0.76614,0.27669 0.24695,-0.11382 0.36587,-0.37521 0.34627,-0.78663 -0.0196,-0.41142 -0.1319,-1.0561 -0.37634,-1.92743 -0.0912,-0.32308 -0.18312,-0.63835 -0.27513,-0.94592 -0.0279,-0.0932 -0.0557,-0.18575 -0.0837,-0.27757 -0.10562,-0.38569 -0.17933,-0.73623 -0.21736,-1.05349 -0.038,-0.31726 -0.0264,-0.60152 0.0381,-0.85395 0.0645,-0.25243 0.21147,-0.45746 0.44488,-0.61257 0.46011,-0.30579 1.0424,-0.22976 1.73053,0.27387 0.31152,0.22389 0.6233,0.52042 0.92912,0.89082 0.37554,0.45387 0.74293,1.01829 1.08784,1.69248 0.15627,0.30548 0.29811,0.6182 0.42514,0.93728 0.12703,0.31908 0.24719,0.6149 0.34022,0.89687 0.1003,0.27863 0.17795,0.52426 0.23489,0.73608 0.0631,0.22601 0.10647,0.40087 0.13215,0.52426 -0.34593,0.002 -0.69129,0.008 -1.03602,0.0156 -0.0308,-0.23377 -0.11378,-0.58616 -0.25876,-1.05482 -0.14498,-0.46866 -0.35797,-1.01811 -0.67055,-1.62904 -0.27093,-0.5295 -0.5753,-0.95607 -0.90241,-1.27772 -0.12154,-0.12359 -0.2372,-0.21342 -0.34616,-0.27 -0.17816,-0.0927 -0.33819,-0.0963 -0.47964,-0.0138 -0.11747,0.0686 -0.19841,0.16784 -0.2438,0.297 -0.0123,0.046 -0.0216,0.0955 -0.028,0.14856 -0.0134,0.11091 -0.0139,0.23732 -0.002,0.37933 0.0315,0.21887 0.0862,0.47392 0.16159,0.76584 0.0754,0.29192 0.17144,0.63739 0.28351,1.03737 0.14245,0.53134 0.24695,1.0116 0.32008,1.43898 0.0804,0.42401 0.10827,0.79707 0.0886,1.11708 -0.0141,0.33314 -0.0899,0.61128 -0.22373,0.83397 -0.13383,0.22269 -0.32822,0.38328 -0.60289,0.49359 -0.53451,0.2146 -1.07264,0.0302 -1.63227,-0.51554 -0.5543,-0.53344 -1.10149,-1.38348 -1.71938,-2.52926 -0.16639,-0.30854 -0.31706,-0.59165 -0.45017,-0.85105 -0.20956,-0.40764 -0.37531,-0.75694 -0.49112,-1.05261 -0.1955,-0.4776 -0.33245,-0.80382 -0.39507,-0.98297 0.32808,-0.0861 0.65758,-0.16904 0.98845,-0.24874 0.0787,0.20715 0.20636,0.53514 0.37046,0.98611 0.088,0.24188 0.20807,0.51486 0.35744,0.82117 0.13004,0.26693 0.28222,0.55922 0.45456,0.87894 z"
             id="path101" />
          <path
             d="m 137.71633,421.57248 c 0.52166,-0.18097 1.02353,-0.20155 1.5054,-0.0486 0.48944,0.15037 0.9418,0.42482 1.34953,0.82633 0.40773,0.40151 0.76772,0.90695 1.06998,1.51344 0.22124,0.44393 0.40289,0.90986 0.54341,1.39446 0.0516,0.17736 0.0978,0.35741 0.13834,0.54001 0.32283,1.4531 0.29372,2.66424 -0.0283,3.56404 -0.0302,0.0845 -0.0631,0.1665 -0.0985,0.24587 -0.17927,0.40955 -0.43067,0.73776 -0.74803,0.97868 -0.19533,0.14989 -0.41589,0.26477 -0.6604,0.345 -0.0376,0.0354 0.0232,0.0557 0.0989,0.067 l 0.17311,0.0136 5.4e-4,-1e-5 -6.5e-4,2e-5 -0.33555,0.002 -0.0559,3e-4 -1.11742,0.006 c -0.006,-0.0797 -0.014,-0.16172 -0.0224,-0.2462 -0.0328,-0.33543 -0.0742,-0.67454 -0.12102,-1.01746 -0.16848,-1.23335 -0.40409,-2.46339 -0.69031,-3.68729 -0.19034,-0.81108 -0.40262,-1.61692 -0.63726,-2.41564 -0.59774,0.26531 -0.97519,0.72085 -1.15162,1.35776 -0.11002,0.39716 -0.1297,0.89291 -0.0695,1.49295 0.0358,0.36256 0.10035,0.76199 0.18961,1.19969 0.13355,0.6549 0.25967,1.19567 0.3923,1.62661 0.0836,0.25973 0.15669,0.48141 0.2215,0.66471 0.0457,0.12947 0.0873,0.23838 0.12517,0.32777 -0.29883,0.12443 -0.59852,0.24527 -0.89913,0.36194 -0.0579,-0.1229 -0.12529,-0.30542 -0.2061,-0.55561 -0.0531,-0.16434 -0.11184,-0.35487 -0.17754,-0.57156 -0.16361,-0.53332 -0.3135,-1.14861 -0.46085,-1.85299 -0.0703,-0.33633 -0.1305,-0.65878 -0.17899,-0.96784 -0.0805,-0.5054 -0.12902,-0.97139 -0.14207,-1.40125 -0.01,-0.68146 0.052,-1.2712 0.19686,-1.77467 0.14486,-0.50347 0.36293,-0.92482 0.66265,-1.26263 0.31178,-0.32712 0.68811,-0.57191 1.13418,-0.72665 z m 2.48448,7.39074 c 0.50021,-0.0631 0.87357,-0.35912 1.10342,-0.90396 0.2403,-0.53136 0.27658,-1.23223 0.0883,-2.07791 -0.0396,-0.17775 -0.0857,-0.34631 -0.13795,-0.50554 -0.0872,-0.26616 -0.19181,-0.5065 -0.31259,-0.72041 -0.18161,-0.32916 -0.38482,-0.59595 -0.60634,-0.80043 -0.22152,-0.20448 -0.45366,-0.34875 -0.69458,-0.43425 -0.23685,-0.0712 -0.46527,-0.0966 -0.685,-0.0781 0.23452,0.80125 0.44682,1.6092 0.6373,2.42207 0.24025,1.02663 0.44579,2.05998 0.60743,3.09849 z"
             id="path102" />
        </g>
        <g
           transform="matrix(-0.6032,0,0,-0.6032,338.89,1167.7)"
           fill="#ff0000"
           font-family="Sans"
           font-size="40px"
           letter-spacing="0"
           word-spacing="0"
           id="g112">
          <path
             d="m 74.56326,425.39923 c -0.13136,0.55552 -0.27765,1.0787 -0.44304,1.5719 -0.09427,0.37499 -0.20244,0.73221 -0.32456,1.07193 -0.29866,0.83082 -0.66924,1.5297 -1.11197,2.09834 -0.44273,0.56864 -0.95185,0.99322 -1.52718,1.27255 -0.5814,0.26377 -1.21737,0.35421 -1.90721,0.26635 -0.68984,-0.0879 -1.276,-0.35686 -1.75773,-0.81251 -0.48774,-0.47155 -0.87066,-1.06944 -1.14866,-1.79442 -0.278,-0.72498 -0.4539,-1.55455 -0.52806,-2.48672 -0.02492,-0.31335 -0.03822,-0.63218 -0.03991,-0.95634 0.04424,-0.67742 0.14957,-1.3785 0.31891,-2.09651 0.16132,-0.68392 0.34358,-1.28886 0.53809,-1.81318 0.19885,-0.54006 0.39277,-0.99546 0.57455,-1.36767 0.1866,-0.38778 0.35382,-0.69448 0.49685,-0.92236 0.14303,-0.22788 0.24671,-0.38175 0.30879,-0.46382 l 0.69658,0.92977 c -0.09034,0.12126 -0.20396,0.30213 -0.33867,0.54412 -0.13471,0.24199 -0.27946,0.52356 -0.4321,0.8456 -0.14815,0.30677 -0.29294,0.65705 -0.43149,1.05079 -0.14217,0.37644 -0.26246,0.76742 -0.35991,1.17131 -0.20091,0.83271 -0.28987,1.60282 -0.27705,2.29781 l 0.0049,0.0521 c 0.06588,0.68237 0.21152,1.27636 0.43705,1.78108 0.22553,0.50472 0.528,0.91215 0.90724,1.22298 0.37323,0.29489 0.81325,0.47684 1.31968,0.54843 0.49062,0.0694 0.95079,0.0298 1.38017,-0.11636 0.43125,-0.16075 0.81984,-0.4297 1.16563,-0.80588 0.33789,-0.37735 0.62507,-0.86317 0.86165,-1.45803 0.02986,-0.0763 0.05868,-0.15437 0.08646,-0.23419 0.22622,-0.51805 0.4147,-1.11017 0.57595,-1.78059 0.21294,-0.88532 0.36177,-1.62227 0.4253,-2.22541 0.06353,-0.60314 0.109,-1.06038 0.12111,-1.37222 0.35872,-0.066 0.71706,-0.12719 1.07492,-0.18355 0.007,0.10045 0.0015,0.2735 -0.01369,0.51891 -0.02276,0.24303 -0.06223,0.54238 -0.11442,0.89876 -0.05219,0.35638 -0.12477,0.76762 -0.21271,1.23558 -0.08794,0.46796 -0.19756,0.97072 -0.32542,1.51143 z"
             id="path103" />
          <path
             d="m 77.1007,415.87445 c 0.20987,-0.38708 0.39851,-0.72489 0.56102,-1.01629 0.16238,-0.30694 0.29228,-0.56383 0.38574,-0.77334 l -1.57852,-0.98766 c -0.10913,0.0989 -0.26022,0.28083 -0.44842,0.54918 -0.18779,0.25206 -0.39522,0.5764 -0.61515,0.97515 -0.08817,0.15986 -0.17497,0.32956 -0.25992,0.50903 -0.05418,0.11423 -0.10766,0.23242 -0.16031,0.35456 -0.12879,0.30127 -0.21867,0.59778 -0.27033,0.88689 -0.05268,0.27294 -0.05469,0.52116 -0.0079,0.74288 0.03954,0.21841 0.15926,0.37053 0.35613,0.45828 0.36457,0.16252 0.70872,0.0762 1.03929,-0.24444 0.28481,-0.28541 0.57093,-0.69668 0.87449,-1.23048 l 0.12386,-0.22376 z m -5.01261,-2.48677 c 0.41241,-0.77736 0.83915,-1.38711 1.25224,-1.83221 0.41444,-0.46264 0.81754,-0.77829 1.19508,-0.95362 0.37949,-0.19261 0.73596,-0.26205 1.06545,-0.21566 0.32294,0.0418 0.62688,0.16767 0.91392,0.37202 l 3.18027,2.26436 c -0.07721,0.13631 -0.1846,0.33067 -0.31824,0.58483 -0.133,0.23893 -0.28462,0.51173 -0.45183,0.82005 -0.16721,0.30832 -0.34991,0.64455 -0.54519,1.01047 -0.18182,0.35877 -0.36706,0.71472 -0.55627,1.06865 l -0.01629,0.0304 c -0.26408,0.48897 -0.52589,0.93154 -0.79283,1.32808 -0.26694,0.39654 -0.54559,0.74226 -0.82667,1.01104 -0.28845,0.2657 -0.58715,0.44776 -0.9007,0.54266 -0.31355,0.0949 -0.63824,0.0825 -0.97392,-0.0448 -0.32076,-0.12158 -0.55402,-0.33647 -0.69402,-0.65035 -0.1347,-0.32706 -0.18887,-0.72012 -0.15598,-1.17651 0.03289,-0.45639 0.13983,-0.96584 0.32776,-1.52152 0.14744,-0.43594 0.33093,-0.87697 0.55139,-1.31951 l 0.19012,-0.36497 c 0.0978,-0.17968 0.20772,-0.36113 0.32991,-0.54371 0.11522,-0.18652 0.23194,-0.35523 0.34926,-0.50618 0.11786,-0.16755 0.22226,-0.30886 0.31209,-0.42468 0.08983,-0.11582 0.15401,-0.19585 0.19168,-0.24095 l -0.26478,-0.16567 c -0.15615,-0.0977 -0.32844,-0.16217 -0.51748,-0.19177 -0.19584,-0.0338 -0.40337,-0.003 -0.62163,0.0947 -0.2251,0.0936 -0.46208,0.27154 -0.70616,0.53624 -0.23243,0.2363 -0.47628,0.58133 -0.72076,1.03673 l -0.03467,0.0654 c -0.32696,0.62367 -0.57332,1.19353 -0.74843,1.70072 -0.1759,0.49003 -0.28405,0.86604 -0.33517,1.12472 l -0.94957,-0.12434 c 0.05062,-0.28221 0.17987,-0.73553 0.40598,-1.35483 0.20815,-0.59217 0.47741,-1.21478 0.81303,-1.86019 z"
             id="path104" />
          <path
             d="m 80.15022,403.28972 c 0.14449,-0.1233 0.31334,-0.25473 0.50712,-0.39285 0.20095,-0.15431 0.40268,-0.29504 0.60441,-0.42222 0.20173,-0.12718 0.3788,-0.24691 0.54494,-0.34136 0.174,-0.11031 0.30467,-0.18582 0.39069,-0.22855 0.08769,0.33626 0.1791,0.6707 0.27417,1.00329 -0.15386,0.0747 -0.40196,0.21556 -0.73934,0.431 -0.33032,0.19968 -0.73342,0.4959 -1.19602,0.89911 -0.30069,0.26211 -0.5805,0.54797 -0.83733,0.85549 -0.25117,0.29123 -0.41063,0.48812 -0.48626,0.58524 l 3.68094,3.726 c -0.42065,0.41721 -0.82851,0.8501 -1.22311,1.2971 l -4.46938,-3.96445 c 0.27004,-0.44848 0.64039,-0.98115 1.12832,-1.58328 0.48227,-0.60777 1.0864,-1.23771 1.82085,-1.86452 z"
             id="path105" />
          <path
             d="m 85.82465,399.60207 c 1.37013,-0.72116 2.7849,-1.34091 4.23151,-1.86631 l 0.31701,0.87696 c -1.4087,0.51049 -2.78407,1.1126 -4.11329,1.81338 l 1.33918,2.53549 c 0.14508,0.27467 0.30237,0.48416 0.46967,0.63019 0.16362,0.13896 0.34289,0.225 0.53822,0.25975 0.19173,0.0276 0.40327,0.011 0.63696,-0.048 0.23369,-0.059 0.49298,-0.15335 0.78136,-0.28055 0.50465,-0.22259 0.90117,-0.41884 1.18454,-0.60466 0.29284,-0.19801 0.50036,-0.33158 0.6155,-0.40649 l 0.6426,0.75083 c -0.15378,0.11155 -0.43161,0.27886 -0.82283,0.51263 -0.38838,0.24121 -0.84296,0.47204 -1.3629,0.70498 -0.61238,0.27435 -1.12847,0.47764 -1.56714,0.59424 -0.43124,0.10361 -0.81336,0.13514 -1.15393,0.0864 -0.34057,-0.0487 -0.64307,-0.1709 -0.90721,-0.37322 -0.25708,-0.21613 -0.49779,-0.49861 -0.71743,-0.85121 l -2.93972,-4.71936 c 0.62892,-0.46078 1.27261,-0.89931 1.92953,-1.31595 z"
             id="path106" />
          <path
             d="m 92.81369,400.11101 c -0.15901,-0.52747 -0.15977,-1.02845 0.014,-1.5025 0.17156,-0.48171 0.46762,-0.92147 0.89141,-1.30994 0.42379,-0.38847 0.9519,-0.72349 1.58017,-0.99316 0.62827,-0.26967 1.29529,-0.46089 1.9905,-0.56965 1.62215,-0.25372 2.90851,-0.0963 3.8013,0.37259 0.89224,0.46086 1.34013,1.24695 1.38635,2.32101 0.002,0.0481 0.005,0.11222 0.008,0.19238 0.003,0.0721 -0.001,0.14059 -0.0128,0.20536 -2.55941,0.11515 -5.11096,0.44315 -7.57899,1.02556 0.23316,0.61108 0.66456,1.01338 1.28404,1.22958 0.61948,0.2162 1.49801,0.21817 2.67481,0.0602 0.6628,-0.0889 1.21734,-0.17951 1.66296,-0.28554 0.45855,-0.11529 0.80486,-0.20893 1.03524,-0.28916 0.11066,0.30627 0.21935,0.6129 0.32608,0.91985 -0.22526,0.0867 -0.62481,0.18918 -1.19219,0.32166 -0.55401,0.13125 -1.186,0.24009 -1.89664,0.33874 -0.89488,0.12422 -1.67363,0.18234 -2.35463,0.15773 -0.66968,-0.0351 -1.24463,-0.13252 -1.73236,-0.30535 -0.48773,-0.17283 -0.89277,-0.41168 -1.21378,-0.72653 -0.31003,-0.32632 -0.5378,-0.71183 -0.67377,-1.16287 z m 7.50986,-2.04338 c -0.0313,-0.50526 -0.30417,-0.89809 -0.83443,-1.1641 -0.51609,-0.2756 -1.21504,-0.35906 -2.07621,-0.22437 -0.48346,0.0756 -0.90453,0.20294 -1.25944,0.37613 -0.34143,0.16248 -0.62091,0.35076 -0.83834,0.56093 -0.21743,0.21017 -0.37452,0.43441 -0.47288,0.67049 -0.08387,0.23278 -0.12109,0.45952 -0.11399,0.67988 1.83353,-0.43239 3.70823,-0.72677 5.59528,-0.89896 z"
             id="path107" />
          <path
             d="m 119.82435,400.30937 c 0.65879,0.26864 1.30855,0.5584 1.94787,0.87005 l -1.69618,3.4805 c -0.1525,-0.0392 -0.37037,-0.10483 -0.6554,-0.19167 l -0.96584,-0.2907 -1.18553,-0.35791 c -0.43463,-0.1241 -0.87355,-0.2555 -1.31865,-0.39447 -0.90256,-0.28181 -1.71596,-0.59147 -2.44709,-0.95472 -0.73113,-0.36325 -1.35593,-0.76632 -1.87223,-1.22826 -0.5163,-0.46194 -0.91137,-0.97643 -1.17603,-1.55494 -0.25061,-0.57662 -0.34281,-1.21001 -0.25656,-1.90302 0.0862,-0.69301 0.35507,-1.28385 0.82695,-1.76122 0.48829,-0.48316 1.11776,-0.85224 1.8895,-1.08856 0.77174,-0.23632 1.66219,-0.3438 2.65902,-0.30033 1.0127,0.0473 2.07411,0.24174 3.15817,0.5946 0.73842,0.24038 1.37748,0.49679 1.91691,0.75487 0.55488,0.26401 1.01565,0.51549 1.38539,0.74401 0.36974,0.22852 0.65923,0.43016 0.87177,0.5989 0.22749,0.17567 0.37719,0.30087 0.4522,0.37241 -0.37014,0.17969 -0.73488,0.36483 -1.09426,0.55521 -0.35828,-0.33021 -0.87502,-0.69328 -1.5574,-1.06755 -0.67944,-0.38166 -1.40653,-0.70092 -2.17159,-0.95195 -0.81097,-0.26608 -1.5833,-0.41071 -2.30125,-0.44349 -0.70251,-0.0287 -1.32541,0.0518 -1.86199,0.22946 -0.52124,0.18107 -0.94792,0.45648 -1.28115,0.81725 -0.33175,0.3529 -0.53784,0.78484 -0.62871,1.28981 -0.088,0.48921 -0.0665,0.95294 0.055,1.3914 0.13555,0.44111 0.37268,0.84526 0.70502,1.21804 0.3476,0.3678 0.78507,0.69536 1.31051,0.99357 0.53859,0.30155 1.18173,0.56182 1.93193,0.80269 0.53403,0.17147 0.98412,0.31458 1.35669,0.41946 0.38784,0.10206 0.66636,0.17555 0.83861,0.21116 z"
             id="path108" />
          <path
             d="m 129.53645,403.54975 c 0.14449,0.12235 0.30083,0.26724 0.46778,0.43537 0.18403,0.17251 0.35484,0.34777 0.5124,0.52504 0.16294,0.17135 0.3039,0.33121 0.4237,0.47854 0.13666,0.15235 0.23217,0.26781 0.28821,0.345 -0.31618,0.1436 -0.63028,0.29012 -0.94226,0.43955 -0.0989,-0.13896 -0.27828,-0.3597 -0.54522,-0.65664 -0.25029,-0.2926 -0.60703,-0.64155 -1.07858,-1.033 -0.30653,-0.25445 -0.63311,-0.48489 -0.97752,-0.68941 -0.32744,-0.20153 -0.54727,-0.32771 -0.65524,-0.38694 l -3.09258,4.22664 c -0.4774,-0.34826 -0.96595,-0.67878 -1.46513,-0.99019 l 3.18664,-5.05493 c 0.48813,0.19512 1.07516,0.47666 1.74818,0.86297 0.67767,0.37983 1.39512,0.87609 2.12962,1.498 z"
             id="path109" />
          <path
             d="m 129.32529,412.45923 c -0.3748,-0.47304 -0.76289,-0.93411 -1.16375,-1.38184 l 4.64144,-4.17106 c 0.48777,0.54205 0.95863,1.09898 1.41208,1.66943 z m 5.0508,-5.4663 c -0.26124,-0.30847 -0.44224,-0.6112 -0.54234,-0.9145 -0.0833,-0.29653 -0.0457,-0.52058 0.11952,-0.67184 0.16522,-0.15126 0.39088,-0.16684 0.67631,-0.0405 0.30257,0.13348 0.59332,0.36078 0.86501,0.68134 0.27169,0.32056 0.44236,0.63764 0.51359,0.94425 0.0879,0.31464 0.04,0.54077 -0.13671,0.6787 -0.17671,0.13793 -0.409,0.13189 -0.69802,-0.0113 -0.27262,-0.13554 -0.53614,-0.35763 -0.79736,-0.66611 z"
             id="path110" />
          <path
             d="m 133.10171,416.74881 c 0.36527,0.67765 0.6677,1.16158 0.9347,1.44117 0.27286,0.29182 0.52644,0.38713 0.76614,0.27669 0.24695,-0.11382 0.36587,-0.37521 0.34627,-0.78663 -0.0196,-0.41142 -0.1319,-1.0561 -0.37634,-1.92743 -0.0912,-0.32308 -0.18312,-0.63835 -0.27513,-0.94592 -0.0279,-0.0932 -0.0557,-0.18575 -0.0837,-0.27757 -0.10562,-0.38569 -0.17933,-0.73623 -0.21736,-1.05349 -0.038,-0.31726 -0.0264,-0.60152 0.0381,-0.85395 0.0645,-0.25243 0.21147,-0.45746 0.44488,-0.61257 0.46011,-0.30579 1.0424,-0.22976 1.73053,0.27387 0.31152,0.22389 0.6233,0.52042 0.92912,0.89082 0.37554,0.45387 0.74293,1.01829 1.08784,1.69248 0.15627,0.30548 0.29811,0.6182 0.42514,0.93728 0.12703,0.31908 0.24719,0.6149 0.34022,0.89687 0.1003,0.27863 0.17795,0.52426 0.23489,0.73608 0.0631,0.22601 0.10647,0.40087 0.13215,0.52426 -0.34593,0.002 -0.69129,0.008 -1.03602,0.0156 -0.0308,-0.23377 -0.11378,-0.58616 -0.25876,-1.05482 -0.14498,-0.46866 -0.35797,-1.01811 -0.67055,-1.62904 -0.27093,-0.5295 -0.5753,-0.95607 -0.90241,-1.27772 -0.12154,-0.12359 -0.2372,-0.21342 -0.34616,-0.27 -0.17816,-0.0927 -0.33819,-0.0963 -0.47964,-0.0138 -0.11747,0.0686 -0.19841,0.16784 -0.2438,0.297 -0.0123,0.046 -0.0216,0.0955 -0.028,0.14856 -0.0134,0.11091 -0.0139,0.23732 -0.002,0.37933 0.0315,0.21887 0.0862,0.47392 0.16159,0.76584 0.0754,0.29192 0.17144,0.63739 0.28351,1.03737 0.14245,0.53134 0.24695,1.0116 0.32008,1.43898 0.0804,0.42401 0.10827,0.79707 0.0886,1.11708 -0.0141,0.33314 -0.0899,0.61128 -0.22373,0.83397 -0.13383,0.22269 -0.32822,0.38328 -0.60289,0.49359 -0.53451,0.2146 -1.07264,0.0302 -1.63227,-0.51554 -0.5543,-0.53344 -1.10149,-1.38348 -1.71938,-2.52926 -0.16639,-0.30854 -0.31706,-0.59165 -0.45017,-0.85105 -0.20956,-0.40764 -0.37531,-0.75694 -0.49112,-1.05261 -0.1955,-0.4776 -0.33245,-0.80382 -0.39507,-0.98297 0.32808,-0.0861 0.65758,-0.16904 0.98845,-0.24874 0.0787,0.20715 0.20636,0.53514 0.37046,0.98611 0.088,0.24188 0.20807,0.51486 0.35744,0.82117 0.13004,0.26693 0.28222,0.55922 0.45456,0.87894 z"
             id="path111" />
          <path
             d="m 137.71633,421.57248 c 0.52166,-0.18097 1.02353,-0.20155 1.5054,-0.0486 0.48944,0.15037 0.9418,0.42482 1.34953,0.82633 0.40773,0.40151 0.76772,0.90695 1.06998,1.51344 0.22124,0.44393 0.40289,0.90986 0.54341,1.39446 0.0516,0.17736 0.0978,0.35741 0.13834,0.54001 0.32283,1.4531 0.29372,2.66424 -0.0283,3.56404 -0.0302,0.0845 -0.0631,0.1665 -0.0985,0.24587 -0.17927,0.40955 -0.43067,0.73776 -0.74803,0.97868 -0.19533,0.14989 -0.41589,0.26477 -0.6604,0.345 -0.0376,0.0354 0.0232,0.0557 0.0989,0.067 l 0.17311,0.0136 5.4e-4,-1e-5 -6.5e-4,2e-5 -0.33555,0.002 -0.0559,3e-4 -1.11742,0.006 c -0.006,-0.0797 -0.014,-0.16172 -0.0224,-0.2462 -0.0328,-0.33543 -0.0742,-0.67454 -0.12102,-1.01746 -0.16848,-1.23335 -0.40409,-2.46339 -0.69031,-3.68729 -0.19034,-0.81108 -0.40262,-1.61692 -0.63726,-2.41564 -0.59774,0.26531 -0.97519,0.72085 -1.15162,1.35776 -0.11002,0.39716 -0.1297,0.89291 -0.0695,1.49295 0.0358,0.36256 0.10035,0.76199 0.18961,1.19969 0.13355,0.6549 0.25967,1.19567 0.3923,1.62661 0.0836,0.25973 0.15669,0.48141 0.2215,0.66471 0.0457,0.12947 0.0873,0.23838 0.12517,0.32777 -0.29883,0.12443 -0.59852,0.24527 -0.89913,0.36194 -0.0579,-0.1229 -0.12529,-0.30542 -0.2061,-0.55561 -0.0531,-0.16434 -0.11184,-0.35487 -0.17754,-0.57156 -0.16361,-0.53332 -0.3135,-1.14861 -0.46085,-1.85299 -0.0703,-0.33633 -0.1305,-0.65878 -0.17899,-0.96784 -0.0805,-0.5054 -0.12902,-0.97139 -0.14207,-1.40125 -0.01,-0.68146 0.052,-1.2712 0.19686,-1.77467 0.14486,-0.50347 0.36293,-0.92482 0.66265,-1.26263 0.31178,-0.32712 0.68811,-0.57191 1.13418,-0.72665 z m 2.48448,7.39074 c 0.50021,-0.0631 0.87357,-0.35912 1.10342,-0.90396 0.2403,-0.53136 0.27658,-1.23223 0.0883,-2.07791 -0.0396,-0.17775 -0.0857,-0.34631 -0.13795,-0.50554 -0.0872,-0.26616 -0.19181,-0.5065 -0.31259,-0.72041 -0.18161,-0.32916 -0.38482,-0.59595 -0.60634,-0.80043 -0.22152,-0.20448 -0.45366,-0.34875 -0.69458,-0.43425 -0.23685,-0.0712 -0.46527,-0.0966 -0.685,-0.0781 0.23452,0.80125 0.44682,1.6092 0.6373,2.42207 0.24025,1.02663 0.44579,2.05998 0.60743,3.09849 z"
             id="path112" />
        </g>
        <path
           d="m 284.78841,912.47492 c -2.1729,0.76918 -4.34536,1.53728 -6.53218,2.26654 -1.40599,0.43779 -2.81068,0.89505 -4.25676,1.1858 -0.3001,0.0603 -0.6012,0.13013 -0.907,0.14375 -1.52988,0.0681 -1.3698,0.41198 -1.49356,-0.34897 0.15441,-0.15998 0.29112,-0.33919 0.46324,-0.47994 0.51085,-0.41773 1.5409,-1.03511 2.06194,-1.35442 1.15766,-0.70942 2.33587,-1.38114 3.51001,-2.06255 0.2494,-0.15939 0.51576,-0.29492 0.74819,-0.47817 0.12096,-0.0954 0.27658,-0.19787 0.30197,-0.3498 0.0175,-0.10462 -0.11219,-0.1898 -0.20244,-0.24554 -0.53436,-0.33 -1.60816,-0.52753 -2.22117,-0.68753 -0.0264,-0.007 -1.09378,-0.26905 -1.22503,-0.32342 -0.0436,-0.0181 -0.13972,-0.0987 -0.0932,-0.1064 1.32905,-0.21929 2.24589,-0.007 3.5447,0.19757 3.1015,0.61916 6.20986,1.34343 9.17702,2.45783 0.40173,0.15088 0.79152,0.33182 1.18728,0.49772 0.10527,0.0609 1.07995,0.44929 1.01583,0.88208 -0.0702,0.47371 -1.08266,0.77756 -1.29633,0.85098 -0.92961,0.31945 -1.77631,0.46094 -2.73947,0.66079 -1.56956,0.23261 -3.19865,0.65313 -4.80126,0.4396 -0.0727,-0.01 -0.14161,-0.11288 -0.12158,-0.18346 0.0379,-0.13363 0.17664,-0.21443 0.26495,-0.32165 0.49833,-0.33385 1.0421,-0.58971 1.57834,-0.85493 0.12032,-0.0595 0.24461,-0.11135 0.36176,-0.17689 0.0389,-0.0218 0.0598,-0.0859 0.10435,-0.0839 0.23506,0.0108 0.46368,0.0805 0.69552,0.12075 -2.14495,0.33035 -4.28353,0.70489 -6.42981,1.03061 -0.80256,0.0905 -1.69454,0.35596 -2.5057,0.1789 -0.079,-0.0172 0.0468,-0.16744 0.11207,-0.21521 0.18914,-0.13844 0.93121,-0.34528 1.08864,-0.39446 1.01975,-0.26677 2.08967,-0.54258 3.15643,-0.36562 0.0737,0.0122 0.10103,0.13229 0.0886,0.206 -0.0217,0.12853 -0.1211,0.23085 -0.18165,0.34627 -0.14372,0.14614 -0.27411,0.3067 -0.43116,0.4384 -0.54913,0.46053 -1.18943,0.8438 -1.80975,1.19251 -1.19203,0.67008 -2.43,1.21037 -3.69139,1.73249 -0.99383,0.32693 -2.03104,0.74591 -3.10184,0.70897 -0.7819,-0.027 -1.57112,0.12844 -2.06018,-0.55349 -0.13322,-0.18576 -0.1763,-0.42183 -0.26445,-0.63275 -0.0422,-0.26837 -0.10285,-0.53448 -0.12665,-0.8051 -0.0468,-0.5322 -0.0155,-1.28014 0.01,-1.80961 0.0395,-0.83189 0.10594,-1.66294 0.16536,-2.49358 0.0534,-0.42002 0.0394,-0.84907 0.0965,-1.26881 0.005,-0.0401 0.0333,-0.27268 0.13138,-0.28316 0.36864,-0.0394 0.74132,-0.0156 1.11197,-0.0234 1.72883,0.57039 3.46255,1.12539 5.20004,1.669 2.98512,0.88735 5.95321,1.83087 8.92815,2.75151 l 0.90226,0.29861 -0.90315,0.11333 -0.88582,-0.2989 c -2.96064,-0.93345 -5.91791,-1.8792 -8.89613,-2.75543 -1.76597,-0.54395 -3.52432,-1.1235 -5.29994,-1.63127 0.269,-0.0123 0.53772,-0.039 0.80699,-0.0369 0.0339,2.6e-4 -0.0735,0.0143 -0.0924,0.0425 -0.0317,0.047 -0.0364,0.10785 -0.0464,0.16366 -0.0751,0.41715 -0.0658,0.84798 -0.12769,1.2665 -0.0702,0.82887 -0.1405,1.65834 -0.17903,2.48944 -0.0243,0.52368 -0.0537,1.26483 -0.002,1.79146 0.026,0.26331 0.0905,0.52138 0.13578,0.78207 0.0886,0.19583 0.13442,0.41745 0.26591,0.58749 0.11939,0.15438 0.38423,0.17871 0.46427,0.3567 0.0382,0.0848 -0.33148,0.13074 -0.23934,0.14351 0.29046,0.0403 0.58793,-0.012 0.878,-0.055 0.89137,-0.13209 1.38519,-0.33755 2.25278,-0.62118 1.25906,-0.516 2.49377,-1.04941 3.68058,-1.72008 0.62174,-0.35134 1.21797,-0.71374 1.76494,-1.17373 0.14938,-0.12563 0.27454,-0.27752 0.41181,-0.41628 0.0564,-0.0837 0.14182,-0.15403 0.1693,-0.25118 0.0115,-0.0409 -0.0452,-0.0719 -0.0677,-0.10786 l 0.60259,-0.0262 c 0.16048,0.0796 -0.35703,0.0325 -0.534,0.0602 -0.57518,0.0901 -0.78801,0.15991 -1.36034,0.30666 -0.20901,0.0646 -0.42007,0.12276 -0.62701,0.19364 -0.14294,0.0489 -0.2766,0.12428 -0.42193,0.1656 -0.0398,0.0113 -0.0822,-0.011 -0.12357,-0.0105 -0.24088,0.003 -0.48982,0.0829 -0.7224,0.0202 -0.44952,-0.12124 2.26569,0.004 1.38459,-0.18371 2.13123,-0.31519 4.25591,-0.66904 6.376,-1.0512 0.40454,0.0376 0.81524,0.0329 1.21362,0.11267 0.0533,0.0107 -0.0774,0.0786 -0.12478,0.10525 -0.1195,0.0672 -0.24892,0.11506 -0.37248,0.17447 -0.23721,0.11405 -0.85149,0.41615 -1.06836,0.53504 -0.16742,0.0918 -0.32872,0.19426 -0.49308,0.29139 -0.0836,0.0617 -0.19972,0.0947 -0.25091,0.18521 -0.0222,0.0392 0.12943,0.0843 0.0882,0.10239 -0.12002,0.0527 -0.52271,0.0401 -0.39197,0.0309 1.14186,-0.0801 2.27747,-0.21586 3.4,-0.44735 1.02703,-0.21162 1.71759,-0.31984 2.70273,-0.64791 0.009,-0.003 1.18342,-0.36944 1.25516,-0.69744 0.0842,-0.38518 -0.93119,-0.81238 -0.95422,-0.82597 -0.38732,-0.16493 -0.76857,-0.34493 -1.16196,-0.4948 -2.96712,-1.13037 -6.08487,-1.84923 -9.19715,-2.43927 -0.43582,-0.0645 -0.87035,-0.13845 -1.30746,-0.19352 -0.30606,-0.0386 -0.64647,0.0528 -0.92131,-0.0873 -0.15976,-0.0814 0.34715,-0.0971 0.52561,-0.1144 0.0275,-0.003 0.0334,0.0483 0.0594,0.0576 0.21443,0.0776 1.0591,0.28799 1.2012,0.3246 0.37698,0.0993 2.5674,0.52864 2.45553,1.12102 -0.031,0.16408 -0.20136,0.27166 -0.33343,0.37383 -0.23909,0.18498 -0.51313,0.31975 -0.76969,0.47963 -1.18134,0.67509 -2.36457,1.34187 -3.52187,2.05804 -0.72426,0.44819 -1.34333,0.82207 -2.00778,1.34008 -0.15369,0.11981 -0.28928,0.26119 -0.43392,0.39178 0.007,0.0615 0.0726,0.15118 0.0204,0.18436 -0.10995,0.0699 -0.51652,0.0693 -0.38778,0.0492 0.30962,-0.0482 0.62264,-0.0753 0.9305,-0.13373 1.4548,-0.27603 2.86562,-0.73433 4.27638,-1.1745 2.15878,-0.72573 4.30604,-1.48213 6.44089,-2.27552 l 0.95018,0.1167 z"
           fill="#ef0000"
           id="path113" />
      </g>
      <path
         d="m 98.05393,708.99792 h 1.62098 a 0.11455,0.12109 0 0 1 0.11455,0.12109 0.11455,0.12109 0 0 1 -0.11455,0.12109 h -1.62098 a 0.11455,0.12109 0 0 1 -0.11455,-0.12109 0.11455,0.12109 0 0 1 0.11455,-0.12109"
         fill="#929293"
         fill-rule="evenodd"
         stroke="#797b7b"
         stroke-linejoin="round"
         stroke-width="0.00445"
         id="path114" />
      <path
         d="m 98.08391,709.43768 h 1.62098 a 0.11455,0.12109 0 0 1 0.11455,0.12109 0.11455,0.12109 0 0 1 -0.11455,0.12109 h -1.62098 a 0.11455,0.12109 0 0 1 -0.11455,-0.12109 0.11455,0.12109 0 0 1 0.11455,-0.12109"
         fill="#929293"
         fill-rule="evenodd"
         stroke="#797b7b"
         stroke-linejoin="round"
         stroke-width="0.00445"
         id="path115" />
      <path
         d="m 98.05209,709.86261 h 1.62098 a 0.11455,0.12109 0 0 1 0.11455,0.12109 0.11455,0.12109 0 0 1 -0.11455,0.12109 h -1.62098 a 0.11455,0.12109 0 0 1 -0.11455,-0.12109 0.11455,0.12109 0 0 1 0.11455,-0.12109"
         fill="#929293"
         fill-rule="evenodd"
         stroke="#797b7b"
         stroke-linejoin="round"
         stroke-width="0.00445"
         id="path116" />
      <path
         d="m 86.00313,717.56989 h 3.01603 a 0.21313,0.12109 0 0 1 0.21313,0.12109 0.21313,0.12109 0 0 1 -0.21313,0.12109 h -3.01603 a 0.21313,0.12109 0 0 1 -0.21313,-0.12109 0.21313,0.12109 0 0 1 0.21313,-0.12109"
         fill="#929293"
         fill-rule="evenodd"
         stroke="#797b7b"
         stroke-linejoin="round"
         stroke-width="0.00608"
         id="path117" />
      <path
         d="m 86.05892,718.00958 h 3.01603 a 0.21313,0.12109 0 0 1 0.21313,0.12109 0.21313,0.12109 0 0 1 -0.21313,0.12109 h -3.01603 a 0.21313,0.12109 0 0 1 -0.21313,-0.12109 0.21313,0.12109 0 0 1 0.21313,-0.12109"
         fill="#929293"
         fill-rule="evenodd"
         stroke="#797b7b"
         stroke-linejoin="round"
         stroke-width="0.00608"
         id="path118" />
      <path
         d="m 93.828,718.01 h 1.621 a 0.11455,0.095368 0 0 1 0.11455,0.0954 0.11455,0.095368 0 0 1 -0.11455,0.0954 H 93.828 A 0.11455,0.095368 0 0 1 93.71345,718.1054 0.11455,0.095368 0 0 1 93.828,718.01"
         fill="#929293"
         fill-rule="evenodd"
         stroke="#797b7b"
         stroke-linejoin="round"
         stroke-width="0.00395"
         id="path119" />
      <path
         transform="matrix(-0.03849,0,0,0.04298,105.15,697.87)"
         d="m 496.96,320.73 c 0,25.731 -20.859,46.59 -46.59,46.59 -25.731,0 -46.59,-20.859 -46.59,-46.59 0,-25.731 20.859,-46.59 46.59,-46.59 25.584,0 46.382,20.63 46.589,46.213"
         fill="#ffccaa"
         fill-rule="evenodd"
         stroke="#383838"
         stroke-width="1.4584"
         id="path120" />
      <path
         d="m 85.416,711.16 c -0.21698,1.065 1.2332,1.9728 1.2332,1.9728 0,0 -0.53315,-0.63002 -0.38614,-1.1062 0.14701,-0.47618 0.23747,-1.3663 0.23747,-1.3663 0,0 0.43997,0.40738 1.2832,0.41538 0.84323,0.008 1.2832,-0.39939 1.2832,-0.39939 0,0 0.09041,0.88822 0.23747,1.3644 0.14706,0.47618 -0.2443,1.1081 -0.2443,1.1081 0,0 1.3082,-0.90976 1.0914,-1.9748 -0.21456,-1.054 -0.66587,-1.6306 -2.3821,-1.6194 -1.71623,0.0112 -2.146,0.58431 -2.3538,1.6053 z"
         fill="#4c4c4f"
         fill-rule="evenodd"
         stroke="#383838"
         stroke-width="0.05064"
         id="path121" />
    </g>
  </g>
</svg>
